<?xml version="1.0" standalone="no"?>
<!DOCTYPE svg PUBLIC "-//W3C//DTD SVG 1.1//EN" "http://www.w3.org/Graphics/SVG/1.1/DTD/svg11.dtd" >
<svg>
<metadata>
Created by FontForge 20120731 at Thu Jun  2 21:19:05 2016
 By ,,,
FREE FOR PERSONAL USE
</metadata>
<defs>
<font id="WolfintheCity" horiz-adv-x="215" >
  <font-face 
    font-family="Wolf in the City"
    font-weight="400"
    font-style="italic"
    font-stretch="normal"
    units-per-em="1000"
    panose-1="2 0 0 0 0 0 0 0 0 0"
    ascent="750"
    descent="-250"
    x-height="262"
    cap-height="429"
    bbox="-860 -183 1090 545"
    underline-thickness="50"
    underline-position="-50"
    slope="-12"
    unicode-range="U+0020-FB02"
  />
<missing-glyph horiz-adv-x="120" 
 />
    <glyph glyph-name=".notdef" horiz-adv-x="120" 
 />
    <glyph glyph-name="N" unicode="N" horiz-adv-x="608" 
d="M665 389q5 -8 3.5 -18.5t-5.5 -19.5q-9 -15 -23 -46t-30 -70.5t-32 -83t-29.5 -83t-21.5 -71t-8 -46.5q-45 1 -75 47.5t-46 125.5q-18 -42 -39 -76.5t-48 -59t-61 -38t-77 -13.5q-74 0 -119 44.5t-45 133.5q0 48 15.5 92.5t42.5 79t63.5 56t78.5 23.5q20 0 35 -5
t26.5 -12t21 -14.5t18.5 -11.5q0 -8 -7.5 -13.5t-18 -9t-21 -5.5t-15.5 -3q-13 25 -45 25q-29 0 -63 -16.5t-57 -44.5q-29 -35 -39 -64.5t-10 -68.5q0 -29 7 -56t22 -48t39 -33.5t59 -12.5q47 0 80.5 17.5t57 45t38.5 61.5t26 67q9 27 17 53.5t15.5 49l13.5 40.5t9 28v1
q3 13 6 24q2 10 4 20.5t3 17.5l10 -5t21 -12t20.5 -14.5t9.5 -11.5q0 -6 -3.5 -15.5t-5.5 -16.5q1 0 1 -1q-17 -35 -32 -85.5t-15 -104.5q0 -48 12 -81.5t29 -56.5q0 14 9 48t22.5 76.5t29.5 87.5t29 82.5t21.5 60.5t7.5 21l7 21q6 19 8 33q12 -5 23 -10q9 -5 18 -11t12 -14
z" />
    <glyph glyph-name="L" unicode="L" horiz-adv-x="200" 
d="M1086 -16q4 -12 4 -24q0 -16 -6 -28.5t-14 -20.5q-9 -11 -20 -18q-34 -26 -79.5 -40t-88.5 -21t-77 -8.5t-46 -1.5q-79 0 -157 14t-140 31t-100.5 31.5l-38.5 14.5q-58 20 -102 32t-76.5 19t-54.5 9t-35 2q-7 0 -11 -0.5t-7 -0.5q-4 -1 -6 -1l-1 5q-27 -26 -50 -42.5
t-43 -25.5t-36.5 -12.5t-28.5 -3.5q-29 0 -36.5 7t-7.5 15q0 18 13 32.5t33.5 25.5t44 18.5t44.5 12.5t36 7t18 2h2q2 0 2 1l-1 -1q31 33 59.5 85.5t53 111t45 116t34.5 99.5q2 -1 11 -4.5t18.5 -9.5t17.5 -15t8 -21q0 -5 -1 -10.5t-4 -12.5q-14 -29 -31.5 -65.5t-38 -75
t-41.5 -75.5t-42 -65q-13 -17 -24.5 -30.5t-21.5 -27.5q43 -2 90.5 -10t88.5 -17q48 -11 93 -23q103 -25 210 -46.5t219 -21.5q92 0 153 13.5t99 30.5q44 19 70 44zM-150 -81q14 -6 32.5 -2.5t37 12.5t35 21t27.5 22q-35 -3 -63 -10q-24 -6 -45 -16t-24 -27z" />
    <glyph glyph-name="A" unicode="A" horiz-adv-x="592" 
d="M92 -6q-35 24 -55.5 63t-20.5 79q0 30 11.5 52t30.5 38t42 25t47 12q33 4 93 8t132 4q26 42 56 72t59.5 49.5t54.5 29t40 9.5q12 0 19 -6.5t7 -32.5q0 -8 -7.5 -22.5t-18.5 -32t-23.5 -36.5t-21.5 -37q26 0 41.5 -2.5t23.5 -7t10.5 -10t2.5 -11.5q0 -8 -0.5 -16.5
t-1.5 -15.5q-1 -8 -1 -16q-10 7 -23 10t-27 4t-28 1t-27 1q-14 -31 -27.5 -67.5t-13.5 -64.5q0 -20 12 -35.5t38 -15.5q11 0 20.5 3t17.5 5q34 14 43 22t11 8t4.5 -2t2.5 -4v1q-1 0 -5.5 -6.5t-15 -15.5t-28.5 -18.5t-45 -14.5q-8 -2 -12 -2q-12 0 -25 5.5t-24 14.5
t-18.5 21.5t-7.5 27.5q0 40 7.5 75t17.5 67q-12 0 -29.5 2.5t-35.5 4.5q-20 -33 -41 -66.5t-40 -66.5q-11 -19 -27.5 -39t-37 -36t-44 -26.5t-48.5 -10.5q-34 0 -64 23zM515 353q-41 -28 -80 -79q12 -1 23.5 -1t22.5 -1q8 23 17 43.5t17 37.5zM120 232q-35 -5 -54 -33.5
t-19 -61.5q0 -25 10 -47.5t25.5 -40t35 -28t38.5 -10.5q31 0 57 21.5t48.5 53t42 68.5t37.5 68q-40 5 -80 9t-82 4q-29 0 -59 -3z" />
    <glyph glyph-name="B" unicode="B" horiz-adv-x="446" 
d="M319 43q10 13 22 31.5t22 38t16.5 37.5t6.5 30q0 11 -18.5 17.5t-53.5 6.5q-36 0 -69 -6t-58 -11q-14 -34 -28.5 -69t-24.5 -58q-3 -8 -6 -18q-2 -9 -4 -21t-2 -28q-2 0 -8.5 2t-13.5 6.5t-13 12.5t-6 22q0 10 3 26.5t8 36t10.5 38.5t10.5 33q-3 0 -7.5 6.5t-9 15.5
t-8 18t-3.5 14q0 4 6 7t14.5 5t18 3.5t16.5 2.5q5 14 10.5 26t10.5 25l7 21q3 9 5.5 18t2.5 15q2 -1 11 -4t19 -9t18 -15t8 -21q0 -9 -1.5 -15t-11.5 -26q15 2 30 3t31 1q15 0 30.5 -1t31.5 -4q10 12 16.5 28t6.5 32q0 17 -8 28.5t-20 18.5t-26 10t-26 3q-38 0 -67 -12.5
t-51 -20.5q-35 -19 -57 -36.5t-35 -31t-18.5 -21.5t-7.5 -8q-20 14 -26 28t-6 26q0 9 2 17q1 4 3 7q2 4 16 18t39.5 30.5t62 32.5t84.5 24l-1 -1q18 3 39 3q27 0 53 -7t45.5 -21t31.5 -35t12 -48q0 -18 -9 -38.5t-20 -32.5q33 -11 47 -26t14 -44q0 -16 -7 -35t-17 -38
t-22.5 -37t-22.5 -31q9 -3 12 -3q1 0 1 1q1 0 2 -1q3 -3 3 -4q0 -3 -1 -4l-2 -2q-2 -1 -3 -1q-4 0 -9 0.5t-13 1.5q-25 -29 -57.5 -50t-67.5 -21q-13 0 -26 3t-23.5 9t-17 14t-6.5 17q0 17 14 26.5t33 14t37.5 5.5t27.5 1q14 0 25.5 -0.5t22.5 -1.5zM216 -12q23 0 45 9.5
t44 30.5q-14 0 -34.5 -2.5t-39.5 -6t-33 -8.5t-14 -11q0 -3 32 -12z" />
    <glyph glyph-name="D" unicode="D" horiz-adv-x="494" 
d="M42 246q-20 14 -26.5 28.5t-6.5 25.5t1.5 18t7.5 14t17 15.5t30 21.5h1q20 12 44 25t50.5 23.5t56 17.5t59.5 7q41 0 78.5 -14.5t65.5 -41.5t44.5 -64.5t16.5 -82.5q0 -64 -27 -118t-69 -93t-93.5 -60.5t-99.5 -21.5q-20 0 -44 3.5t-44.5 10.5t-34.5 18.5t-14 27.5
q0 8 5 13t12.5 8t15 4.5t13.5 1.5q0 26 11 65.5t25.5 78.5t27.5 71.5t16 44.5l7 21q3 9 5.5 18t2.5 15l12 -4t19 -9t18 -15.5t8 -21.5q0 -5 -1 -10.5t-4 -12.5q-6 -10 -15 -29.5t-20 -43.5t-22 -50.5t-20.5 -50.5t-16.5 -43.5t-8 -28.5q16 -5 27 -10.5t13 -5.5v1l2 -2
q3 -3 3 -4q0 -3 -2 -4.5t-4 -1.5q-4 0 -15 4t-26 8q-1 -5 -1 -10v-10q-8 1 -16 5q-7 3 -13.5 7t-9.5 12q-14 -1 -22 -3t-8 -7q0 -7 10.5 -13t26 -10.5t33 -7t31.5 -2.5q31 0 63.5 8.5t62.5 25.5t55 42.5t43 60.5q17 27 25.5 57t8.5 60q0 36 -11.5 64.5t-31 48t-44.5 30
t-53 10.5q-23 0 -43.5 -3.5t-38.5 -9.5q-52 -22 -84 -44t-50 -39t-25.5 -28t-9.5 -11z" />
    <glyph glyph-name="E" unicode="E" horiz-adv-x="593" 
d="M663 438q11 -21 11 -38q0 -11 -3.5 -19.5t-7.5 -13.5q-4 -6 -10 -11q-7 -5 -35 -12.5t-76 -7.5q-22 0 -47 2.5t-51 6.5q1 -4 1.5 -6.5t0.5 -4.5q-17 -8 -33 -16q-14 -7 -27.5 -15.5t-22.5 -16.5q24 -5 48.5 -10t43.5 -10t31 -8.5t12 -4.5h1q2 -2 2 -6t-3 -7l-2 -1v1
q-2 -1 -15.5 -1.5t-42.5 -0.5q-26 0 -56.5 0.5t-59.5 0.5q-20 -26 -36 -62t-16 -74q0 -43 22.5 -78t70.5 -39q43 2 77.5 15.5t61 32.5t45.5 41t31 41.5t17.5 32.5t5.5 15q0 1 1 2q2 2 5 2q6 0 6 -5q0 -21 -10.5 -45.5t-28 -48.5t-41.5 -46t-51 -39t-55.5 -26.5t-55.5 -9.5
q-35 0 -63 14t-47.5 37t-30 53t-10.5 63q0 35 9.5 66.5t23.5 58.5q-22 0 -26.5 10t-4.5 21v21q0 5 1 10q4 -3 11.5 -4.5t15.5 -3t15 -2t10 -0.5v-1q2 0 4 0.5t4 0.5q16 23 33.5 41t34.5 30q-26 6 -53 9.5t-54 3.5q-39 0 -75.5 -10.5t-65 -33t-46 -58.5t-17.5 -86
q0 -36 11 -63.5t28.5 -45.5t40 -27.5t46.5 -9.5q13 0 21 2t10 2q-1 0 3 -0.5t4 -5.5q0 -2 -9.5 -7t-41.5 -5q-18 0 -42.5 7.5t-46 27t-37 53t-15.5 85.5q0 50 21.5 99t70.5 84q41 24 82 33t80 9q37 0 70 -4.5t62 -8.5q35 -5 63 -7.5t48 -2.5q42 0 70 6t46 12.5t26.5 12
t11.5 4.5z" />
    <glyph glyph-name="F" unicode="F" horiz-adv-x="384" 
d="M546 397q30 3 51.5 8.5t35.5 11t21 9.5t9 4q3 0 5 -6t4 -13q2 -9 3 -19q0 -11 -3.5 -19.5t-7.5 -13.5q-4 -6 -10 -11q-7 -5 -35 -12.5t-76 -7.5q-25 0 -55 3.5t-59 8.5q-2 -4 -4.5 -7.5t-4.5 -8.5q16 -4 31.5 -8t28 -8t21 -7t10.5 -4h1l1 -1q1 -2 1 -6t-2 -6l-2 -2l-1 1
h-10t-25.5 -0.5t-34.5 -0.5h-38q-12 -29 -24 -60.5t-26 -63.5q-12 -30 -27.5 -66t-37 -67t-50 -51.5t-67.5 -20.5q-21 0 -39 7t-31.5 17.5t-21.5 24t-8 27.5q0 6 1 11l2 10q-27 22 -42.5 60.5t-15.5 83.5q0 50 21.5 98.5t70.5 83.5q41 24 81.5 32.5t79.5 8.5q41 0 77.5 -3.5
t67 -7.5t55.5 -7.5t43 -3.5h21t15 2zM353 334q2 5 3.5 10t3.5 10q-27 5 -56 9.5t-58 4.5q-39 0 -76 -10.5t-65.5 -33t-45.5 -58.5t-17 -86q0 -32 10 -61t28 -49q12 24 18.5 26.5t4.5 2.5q2 0 4 -2.5t2 -4.5t-6 -10.5t-11 -22.5q8 -8 19 -13t21.5 -7.5t19.5 -3t15 -0.5
q13 0 21 1.5t10 1.5h-1h1q7 0 8 -4q0 -2 -1 -4t-6 -4t-15 -3.5t-29 -1.5q-15 0 -32 3t-34 14q0 -23 20.5 -38.5t49.5 -15.5q24 0 47 13t39 42q32 59 53.5 124.5t38.5 119.5q-22 0 -35 2t-19.5 5.5t-8 9t-1.5 12.5v21q0 6 1 12q12 -8 28.5 -10t30.5 -2q8 0 13.5 0.5t6.5 0.5z
" />
    <glyph glyph-name="G" unicode="G" horiz-adv-x="573" 
d="M110 296q-5 -2 -16 -6t-23.5 -9t-24 -11t-17.5 -11l-2.5 6t-5.5 15t-5 18.5t-2 17.5q0 5 6.5 13t28.5 16q0 1 11.5 4t29 6.5t38.5 6.5t40 3q23 0 45.5 -3.5t45.5 -8.5q45 41 90 59.5t87 18.5q15 0 28.5 -2t25.5 -4q6 -2 18 -5.5t24 -12t21 -23t9 -36.5q0 -26 -12.5 -43
t-30.5 -27t-37.5 -14t-33.5 -4q-26 0 -48 4t-42 10t-38 12.5t-34 10.5q-45 -41 -76 -97.5t-31 -118.5q0 -51 21 -75.5t60 -24.5q31 0 58.5 14t50 33.5t38 40t22.5 33.5q10 29 20.5 57.5t19 50.5t15.5 35.5t11 13.5q20 0 34 -14t14 -28q0 -6 -2 -10q-9 -17 -20 -36
t-20.5 -39.5t-15.5 -40.5t-6 -38q0 -11 3 -17.5t14 -6.5q17 0 42.5 20.5t45.5 66.5v1h1l2 1q3 0 6 -3q1 -1 1 -2l-4.5 -18t-16.5 -39t-32 -39t-52 -18q-9 0 -19 3.5t-19 13.5q-19 -43 -39 -80q23 -4 47 -6.5t46 -2.5q46 0 82.5 11.5t57.5 23.5q3 1 12.5 7.5t20.5 14t21 15.5
t14 13q1 0 5 -6t8 -15t7 -19.5t3 -18.5q0 -20 -22.5 -34t-53 -23t-63 -12.5t-52.5 -3.5q-42 1 -79 8.5t-72 16.5q-15 -30 -40.5 -42t-45.5 -12q-2 0 -11.5 0.5t-20 5t-19 14t-8.5 27.5q0 23 12 36.5t25 17.5q-15 -3 -30 -3q-36 0 -59.5 13.5t-37 34.5t-19 45t-5.5 45
q0 60 24.5 117t57.5 102q-33 0 -60 -2.5t-47 -7.5zM266 -101q0 -13 9.5 -19t24.5 -6q13 0 27.5 9t28.5 34q-13 5 -25 9t-25 4t-26.5 -6.5t-13.5 -24.5zM376 3q-15 -15 -37.5 -29.5t-50.5 -20.5q3 1 10 1q19 0 35.5 -3.5t34.5 -6.5q9 19 17 42t17 44q-6 -7 -12.5 -13.5z
M496 343q-26 22 -63 22q-25 0 -52 -9.5t-53 -26.5q30 -13 60.5 -24.5t60.5 -11.5q7 1 16 4.5t17 8.5t13.5 11t5.5 12t-5 14z" />
    <glyph glyph-name="H" unicode="H" horiz-adv-x="723" 
d="M496 146q-20 -38 -42.5 -74t-53 -64t-70.5 -45.5t-94 -17.5q-41 0 -80 11t-69 34.5t-48 60.5t-18 88q0 43 11 81t33 66.5t55.5 45t79.5 16.5q34 0 66.5 -14t64 -35.5t62.5 -47t62 -48.5q24 54 39.5 97t26.5 68q1 5 5.5 16t8.5 24t7.5 25.5t3.5 20.5q3 -1 12.5 -4t20 -9
t18.5 -15t8 -21q0 -8 -2.5 -16.5t-7.5 -19.5q-21 -45 -42 -96.5t-47 -106.5q28 -20 58 -31t55 -16q8 39 23.5 92.5t41.5 121.5l6 18l4 16t2 14q0 5 -1 6q2 -1 12.5 -4.5t22.5 -9.5t21.5 -14.5t9.5 -19.5q0 -12 -5 -26q-14 -32 -29 -65q-13 -29 -27.5 -64t-27.5 -70
q21 1 32 2.5t15.5 2.5t6 2t3.5 1q7 0 8 -3q0 -5 -17.5 -11t-52.5 -8q-11 -33 -17 -60t-6 -44q-10 2 -18 6q-7 3 -13.5 8.5t-8.5 14.5q0 9 2 20q2 21 9 58q-25 0 -57.5 14t-60.5 31q-1 -1 -1 -2zM217 318q-38 0 -67 -13t-49 -36.5t-30 -55.5t-10 -70q0 -37 13 -64.5t36 -45.5
t53.5 -27t66.5 -9q43 0 76 16t58.5 42.5t44.5 59.5t36 67q-21 14 -49 37t-58.5 45t-61.5 38t-59 16z" />
    <glyph glyph-name="I" unicode="I" horiz-adv-x="420" 
d="M588 429q11 -19 11 -37q0 -11 -3.5 -19.5t-7.5 -13.5q-4 -7 -10 -11q-8 -5 -37 -12.5t-80 -7.5h-8t-8 1l8 -8t3 -19q0 -12 -5 -23q-9 -17 -20.5 -41.5t-24 -52.5t-25 -58t-22.5 -56.5t-16.5 -47.5t-7.5 -33q31 -5 54 -14.5t28 -12.5q0 -5 -4 -15t-8.5 -20t-8.5 -18t-5 -8
q-18 20 -51 33t-67.5 21t-65 11.5t-44.5 3.5q-9 0 -9 -1q-1 0 -2 1q-2 2 -2 8q0 3 13 6t34 5.5t47 4t53 1.5q-1 2 -1.5 2t-1 1.5t-0.5 6v13.5q0 7 2 16.5t5 22.5q11 42 25.5 81t28 74t25 65.5t17.5 56.5q-42 5 -82 14.5t-84 9.5q-32 0 -66 -7.5t-61.5 -24t-45 -42
t-17.5 -61.5q0 -39 23.5 -60t65.5 -21q16 0 25 2.5t11 2.5q-1 0 2.5 -1t3.5 -6q0 -3 -12 -7.5t-38 -6.5q-11 0 -29 3.5t-35.5 14.5t-30.5 31t-13 54q0 48 23.5 82t60 55t80.5 30.5t85 9.5q18 0 48.5 -1.5t66 -3t71.5 -1.5t66.5 2.5t50 8.5t22.5 17z" />
    <glyph glyph-name="J" unicode="J" horiz-adv-x="833" 
d="M75 130q-11 -5 -21 -9q-8 -4 -17 -8t-13 -7l-6 16q-2 7 -4 15t-2 16v8.5t2 7.5q3 7 19 15t38.5 15t49.5 11t53 4q43 0 84 -12.5t80 -30.5q6 40 23.5 70.5t40.5 50.5t48.5 30t46.5 10h9t9 -1q18 31 45 50.5t58 31t64 15.5t63 4q50 0 86.5 -6t71.5 -6q44 0 74.5 5.5
t50 11.5t30 11.5t13.5 5.5t5 -5.5t3.5 -12.5t2 -13l0.5 -6q0 -11 -3.5 -19.5t-7.5 -13.5q-4 -6 -10 -11q-8 -5 -38 -13t-82 -8q-35 0 -73 8q7 -4 7 -9q-17 -32 -32 -71.5t-33 -81.5t-42 -85.5t-57 -84.5q-32 -38 -77 -57t-94 -19q-39 0 -74.5 11.5t-63 33.5t-45 53.5
t-20.5 71.5q-41 14 -74 24t-66 10q-46 0 -77 -10t-45 -16zM547 323q35 -11 52 -41.5t17 -71.5q0 -21 -12 -45q17 0 27.5 2t12.5 2q1 0 4 -0.5t3 -5.5q0 -3 -13.5 -8.5t-42.5 -5.5q-20 -33 -57.5 -46t-73.5 -13q-25 0 -47 5t-45 13q14 -51 53.5 -82t105.5 -31q37 0 68.5 14.5
t56.5 38t43.5 54t30.5 62.5q31 74 50.5 129.5t28.5 73.5v1l3 3q-26 5 -50.5 8.5t-51.5 3.5q-42 0 -81.5 -11t-69.5 -37zM538 311q-18 -30 -18 -64q0 -32 13.5 -50t41.5 -27q10 14 14.5 29.5t4.5 30.5q0 19 -6 33t-15 24t-18.5 16t-16.5 8zM505 317q-29 -1 -54.5 -15
t-44 -35.5t-29.5 -49t-11 -56.5q0 -7 14 -13.5t32.5 -11t36 -7.5t24.5 -3q31 0 51.5 5.5t37.5 22.5q-26 7 -48.5 33.5t-22.5 65.5q0 15 4 31t11 31z" />
    <glyph glyph-name="K" unicode="K" horiz-adv-x="422" 
d="M8 281q-1 0 -1 1v4q0 5 10 6t26.5 2.5t37.5 6.5t43 19q26 14 42.5 29.5t26 30t13 27.5t3.5 23q2 -1 11.5 -4.5t19.5 -9.5t18 -15.5t8 -21.5v-8t-1.5 -7t-4.5 -10l-9 -18q-6 -11 -16 -35.5t-23 -55.5t-27 -65.5t-26.5 -66t-22.5 -56.5t-15 -37q-1 0 -7 -17.5t-6 -49.5
q-2 0 -8.5 2t-13.5 6.5t-13 12.5t-6 22t9 48.5t23.5 78.5t31.5 91.5t33 86.5q-29 -14 -56.5 -19t-49.5 -5q-20 0 -33.5 2t-15.5 2h-1zM239 208q26 23 51 42.5t48 36.5v1q45 35 70 64.5t38 50.5t17.5 33.5t6.5 12.5q16 -5 25.5 -13t14.5 -16t6.5 -16t1.5 -14q0 -20 -18 -43.5
t-43 -45t-51.5 -39.5t-43.5 -28q-12 -8 -37.5 -23.5t-51.5 -35t-45.5 -42.5t-19.5 -47q0 -22 16 -43.5t41 -40.5t56 -35t60.5 -27.5t54.5 -18t39 -6.5q28 0 49 6.5t34 14t19.5 14t6.5 5.5h1q1 0 1.5 0.5t1.5 0.5q6 0 6 -5q0 -1 -8 -10t-24.5 -19.5t-41 -19t-56.5 -8.5
q-35 0 -75.5 12t-80.5 33t-74.5 48.5t-56.5 58.5q-12 19 -12 42q0 21 7.5 39t19 33t24 27t23.5 21z" />
    <glyph glyph-name="P" unicode="P" horiz-adv-x="441" 
d="M94 120q-25 11 -41 23.5t-25 23t-12.5 17l-3.5 6.5q-1 0 -1 1q-1 1 -1 3t2 3t4 1q1 0 6.5 -6.5t16 -16t28 -21t43.5 -20.5q14 44 28.5 79t24.5 58l7 21q3 9 5.5 18t2.5 15q2 -1 11 -4.5t19 -9.5t18 -14.5t8 -20.5q0 -7 -1.5 -11.5t-7.5 -18.5t-19 -42.5t-35 -83.5
q7 -1 13 -1.5t13 -0.5q30 0 61.5 8t60.5 24.5t54 41.5t42 58q11 22 18.5 41.5t7.5 33.5q0 13 -12.5 23t-30.5 16t-38 9t-35 3q-29 0 -54 -5.5t-47 -12.5q-50 -20 -81.5 -39.5t-49.5 -35.5t-25.5 -26t-9.5 -10q-18 14 -24.5 28t-6.5 25t3 19q2 4 4 7t22 20t55.5 35.5t85 34
t109.5 15.5q14 0 44 -2.5t60 -13t53 -31t23 -56.5q0 -14 -3.5 -28t-8.5 -25q-20 -45 -49.5 -78.5t-64 -56.5t-72 -34.5t-73.5 -11.5q-25 0 -53 5q-10 -23 -18.5 -44t-14.5 -35q-3 -8 -6 -18q-2 -9 -4 -21t-2 -28q-2 0 -8.5 2t-13.5 6.5t-13 12.5t-6 22q0 8 2.5 22t6.5 30.5
t9 34.5t10 33q-3 1 -5.5 2t-4.5 2z" />
    <glyph glyph-name="Q" unicode="Q" horiz-adv-x="466" 
d="M435 -22q8 5 21.5 11.5t20.5 11.5q2 -8 4 -15t3.5 -14t1.5 -15q0 -11 -4 -18q-3 -9 -11 -15q-7 -5 -20 -9.5t-35 -4.5q-36 0 -71 15.5t-64 37.5q-39 -15 -82 -15q-37 0 -68.5 11.5t-55 33t-36.5 53.5t-13 73q0 44 17 84t42.5 71t56 51.5t57.5 25.5q12 2 23.5 3.5
t21.5 1.5q26 0 45.5 -5.5t33 -12.5t21 -12.5t8.5 -5.5q1 -1 3 -2q3 -3 3 -5t-2 -3t-4 -1q-1 0 -8.5 4.5t-20 10.5t-31 10.5t-41.5 4.5q-27 0 -59 -11t-62 -41q-29 -29 -52 -72t-23 -91q0 -59 35.5 -97.5t98.5 -38.5q14 0 29 0.5t27 5.5q-31 31 -59.5 40.5t-53.5 9.5
q-6 0 -10.5 -0.5t-7.5 -0.5q-4 -1 -7 -1q-2 -1 -3 0q-2 2 -2 7q0 2 14 8t40 6q37 0 69 -16.5t60 -35.5q26 16 46 40.5t33.5 54t20.5 61t7 60.5q0 44 -15.5 71.5t-38 43t-47 21t-43.5 5.5q-37 0 -64 -9.5t-34 -12.5q-7 -7 -18 -8.5t-13 -1.5q-8 0 -17 6.5t-16.5 14.5
t-12.5 15t-5 8q8 2 20 7.5t21 10.5q33 14 62 24t65 10q47 0 86 -15t67 -41.5t43.5 -63t15.5 -80.5q0 -28 -8 -62t-23 -68t-37.5 -64.5t-50.5 -50.5q20 -9 38 -12.5t32 -3.5q15 0 24.5 3.5t11.5 3.5z" />
    <glyph glyph-name="R" unicode="R" horiz-adv-x="427" 
d="M62 38q0 21 5.5 41.5t10.5 43.5q-23 11 -37.5 23t-23 22t-12 16l-3.5 6q-1 0 -1 1v2q0 5 6 5q2 0 6.5 -7t13 -16.5t22 -18.5t34.5 -13q4 19 9.5 35t11 30t11 28.5t10.5 32.5l7 21q3 9 5.5 18t2.5 15q-26 -15 -43 -29t-27 -24.5t-15 -16.5t-6 -6q-18 14 -24.5 28t-6.5 25
q0 12 1.5 18.5t6 11.5t11 10t17.5 14h1q14 10 39 23.5t57.5 25.5t69.5 20t76 8q13 0 43 -2.5t60.5 -13t53.5 -30.5t23 -56q0 -14 -4 -28.5t-9 -25.5q-19 -45 -48 -79t-64 -57t-73 -34.5t-74 -11.5q-4 0 -8 0.5t-8 0.5q22 -27 53.5 -50t66.5 -39.5t72 -25.5t70 -9
q26 0 45 2.5t39 17.5q10 -10 11 -24t-7 -27t-27 -22.5t-50 -10.5q-58 -2 -104.5 14t-86.5 43.5t-74.5 64t-68.5 74.5q-2 -2 -4 -7.5t-3.5 -11.5t-3 -11t-1.5 -8l-2 -8.5t-4.5 -19.5t-4.5 -22t-2 -17q-2 0 -8.5 2t-13.5 6.5t-13 12t-6 20.5zM182 230q-7 -14 -12.5 -25.5
l-11 -23t-10.5 -24.5t-12 -31q8 -5 24.5 -6t28.5 -1q60 0 113.5 32.5t87.5 98.5q11 22 18.5 42t7.5 34q0 13 -10 22.5t-25 15.5t-32.5 9t-33.5 3q-27 0 -52.5 -5t-48 -13t-41 -17.5t-32.5 -17.5q3 0 12.5 -3.5t19 -10.5t17 -16t7.5 -20v-8t-1.5 -7t-4.5 -10z" />
    <glyph glyph-name="S" unicode="S" horiz-adv-x="439" 
d="M473 24q-4 -8 -21.5 -16.5t-40.5 -8.5q-11 0 -27.5 3t-24.5 12q-29 -35 -71.5 -49.5t-84.5 -14.5t-78.5 12.5t-62.5 35t-41 53.5t-15 67q0 19 6.5 41t18 40t27.5 30t36 12q21 0 40.5 -10.5t34.5 -21.5q66 76 99.5 134.5t36.5 94.5q3 -1 11.5 -6t17.5 -12.5t16 -17.5
t7 -20q0 -7 -5 -15.5t-5 -19.5q0 -19 8 -44.5t17.5 -54.5t17.5 -61t8 -64q0 -26 -6.5 -50t-22.5 -47q12 -6 23 -10t23 -4q23 0 32.5 3.5t13.5 8t5.5 8.5t7.5 4q4 0 4 -4q0 -3 -3 -6q-1 -2 -2 -2zM86 209q-20 -11 -31.5 -36.5t-11.5 -54.5q0 -8 1 -12q15 10 44 31t61 52
q-14 10 -28 16t-25 6q-4 0 -10 -2zM192 -2q32 0 66 9.5t57 35.5q-35 26 -66.5 59t-76.5 70q-42 -34 -77 -52.5t-49 -24.5q6 -25 20 -43t33.5 -30t43 -18t49.5 -6zM326 57q14 25 14 54q0 27 -6 51.5t-14.5 47.5t-17 43.5t-12.5 38.5q-23 -28 -47.5 -54t-50.5 -49
q40 -37 71.5 -72t62.5 -60z" />
    <glyph glyph-name="T" unicode="T" horiz-adv-x="307" 
d="M-57 198q0 54 20.5 95.5t55 69t81 42t97.5 14.5q37 0 70.5 -4.5t62.5 -8.5q37 -5 65 -7.5t48 -2.5q39 0 66 5.5t44.5 12.5t26.5 12.5t12 5.5t5 -6t3.5 -13t2.5 -13l1 -6q0 -11 -3.5 -19.5t-7.5 -13.5q-4 -6 -10 -11q-7 -5 -35 -13t-74 -8q-28 0 -61 4t-67 11
q0 -5 -1 -11.5t-4 -14.5q-1 0 -11 -22.5t-23.5 -57.5t-29 -77.5t-28.5 -83t-21.5 -74t-8.5 -50.5q-10 2 -18 6q-7 3 -13.5 9t-8.5 15q6 48 17 104q10 48 27 112.5t46 137.5q1 2 2 6q1 3 1.5 6.5t2.5 8.5q-25 5 -50 8.5t-51 3.5q-41 0 -77.5 -12t-65 -35.5t-45 -57.5
t-16.5 -78q0 -34 10.5 -59t28 -41.5t40 -25t46.5 -8.5q14 0 22 2t10 2t4 -1q3 -1 4 -4q-2 -4 -8 -7q-5 -3 -16.5 -5t-32.5 -2q-16 0 -39 7t-44.5 25t-36.5 49t-15 79z" />
    <glyph glyph-name="U" unicode="U" horiz-adv-x="536" 
d="M517 46q-5 -6 -11.5 -14t-15.5 -15.5t-21 -12.5t-27 -5q-14 0 -25 5.5t-22 22.5q-20 -26 -52 -42t-71 -16q-25 0 -51 9t-47 26.5t-34 42.5t-13 57q0 44 13 79t21 61q-27 -12 -54.5 -18t-49.5 -6q-29 0 -40 2.5t-11 7.5q0 4 10 5t26.5 3t37.5 7t42 19q21 10 36 23.5
t25.5 26t15.5 21.5t6 12l2.5 6.5t5.5 15t5 17t2 14.5q2 -1 10.5 -4t18.5 -9t17.5 -14.5t7.5 -20.5q0 -5 -1 -11t-3 -13q-12 -24 -26.5 -52.5t-28 -59t-23.5 -63.5t-11 -66q0 -15 9 -29t24 -24.5t33 -16.5t36 -6q33 0 61.5 20.5t45.5 49.5q0 2 1 3q4 37 17.5 83t29 89
t29.5 75.5t19 41.5q3 11 7 22q3 9 5.5 18t2.5 15q2 -1 11 -4.5t19.5 -9.5t18.5 -15t8 -21q0 -13 -5 -24t-16 -32.5t-24.5 -49.5t-28 -60t-26 -62.5t-19 -56.5t-7.5 -43q0 -21 17 -21t42 20.5t45 66.5l2 1q5 0 7 -2t2 -3q0 -3 -6.5 -22.5t-23.5 -43.5z" />
    <glyph glyph-name="V" unicode="V" horiz-adv-x="445" 
d="M452 326q0 -22 -6.5 -55.5t-19 -71t-30.5 -74.5t-41 -66.5t-51 -48t-60 -18.5q-31 0 -49.5 20.5t-28 53t-11 71.5t2.5 75.5t11.5 66t16.5 43.5q-37 13 -57.5 21.5t-35 14t-28.5 7.5t-38 2q-9 0 -19 -2q3 2 2.5 13t2.5 23t12 21.5t29 9.5q21 0 41 -7.5t39 -18.5t36.5 -23
t34.5 -21q12 22 32.5 34.5t40 14t34 -9.5t14.5 -37q0 -25 -19.5 -42t-48.5 -17q-14 0 -28 3t-24 7q-8 -4 -13 -26.5t-6.5 -54t0.5 -66.5t8 -65t15.5 -49.5t24.5 -19.5q33 0 58.5 25t44.5 64t30.5 85.5t16 89t1.5 75.5t-14 45q4 0 8 1q4 0 9 0.5t10 0.5q8 0 19.5 -2t16.5 -7
q1 -3 4 -4.5t6 -8.5t5 -23t2 -49zM298 365q0 21 -11 26.5t-25 1.5t-26 -15t-14 -24q11 -6 27 -11.5t27 -5.5t16.5 8.5t5.5 19.5z" />
    <glyph glyph-name="X" unicode="X" horiz-adv-x="743" 
d="M764 171q3 -2 3 -5q-1 -5 -15 -37t-39 -71q-6 -10 -16.5 -26t-25 -31.5t-34 -26.5t-44.5 -11q-23 0 -38.5 9.5t-25 22.5t-15.5 26.5t-10 21.5q-26 -30 -57 -55.5t-66 -44t-74 -29.5t-81 -11q-39 0 -76 12.5t-66 36.5t-46.5 60t-17.5 83q0 58 21.5 100t52.5 68.5t64.5 39
t57.5 12.5q35 0 58 -6.5t25 -6.5l2 -2q3 -3 3 -5t-2 -3t-4 -1q-3 0 -24 4t-50 4q-21 0 -51 -10.5t-57 -33t-46.5 -58.5t-19.5 -88q0 -36 10.5 -66t32 -52t55 -34t79.5 -12q40 0 77 14t69.5 36.5t61.5 52t53 59.5q-11 47 -16 89.5t-7 77.5q-34 -40 -67.5 -57t-55.5 -17
q-19 0 -21 3t-2 2q0 2 1 3q0 2 0.5 2.5t0.5 1.5t1 1q0 -1 1 -1h2q5 0 14.5 2.5t21.5 9t25.5 17.5t25.5 28q23 27 33 55.5t14 44.5q0 28 -10 57q3 0 7 1q3 0 7.5 0.5t9.5 0.5q6 0 15 -0.5t16.5 -4t13 -11t5.5 -21.5h1q4 -56 2 -112.5t3 -118.5q2 4 6 10q55 80 86 141.5
t42 83.5q0 3 2.5 9.5t5.5 14t6 14t3 9.5q1 0 9 -4t17 -10t16.5 -14.5t7.5 -18.5q0 -2 -0.5 -10t-2.5 -10q-34 -68 -80 -145t-110 -151q5 -27 16 -48.5t34 -32.5q28 0 48 12.5t35 30t26.5 35.5t21.5 30q14 22 21.5 35t11.5 20t5.5 9t2.5 2t2 -0.5t3 -0.5z" />
    <glyph glyph-name="Y" unicode="Y" horiz-adv-x="437" 
d="M532 -24q3 0 10.5 -7t15 -15t13.5 -16t6 -9l-1 -1v-1q-32 -26 -76 -37t-91 -11q-42 0 -80.5 7.5t-72.5 16.5q-20 -29 -41 -41.5t-44 -12.5q-3 0 -13 0.5t-21.5 5t-20.5 14.5t-9 28q0 16 6.5 27t15 17t17.5 8.5t14 3.5q19 2 35.5 -2t34.5 -9q6 14 13 31.5t12 34.5
q-18 -19 -44 -29t-55 -10q-32 0 -58.5 9t-45.5 27t-29.5 44.5t-9.5 61.5q0 23 8.5 55.5t20.5 67t25.5 66.5t22.5 54l7 21q3 9 5.5 18t2.5 15q3 -1 13 -5t20 -11t18 -17t8 -23v-1q-6 -11 -13.5 -25.5t-14.5 -27.5q-11 -21 -25 -47t-26 -53.5t-20 -54.5t-8 -50q0 -21 9 -38.5
t24 -30t35 -19t41 -6.5q37 0 61.5 15.5t39.5 38t23.5 46.5t15.5 41q6 23 12 41t10.5 33.5t7.5 31t4 33.5q2 0 10.5 -4t18 -10t17 -15t7.5 -19q0 -5 -1 -11t-4 -14q0 -1 -7 -17.5t-16 -39.5t-16.5 -49.5t-7.5 -46.5q0 -11 3 -18t14 -7q17 0 42.5 20.5t45.5 66.5h1l2 1
q7 0 7 -4v2q-1 0 -5 -18t-15 -40t-31.5 -40t-53.5 -18q-9 0 -19 3.5t-19 13.5q-19 -43 -39 -80q23 -4 46 -7t45 -3q33 0 61.5 6.5t50 14.5t35.5 16.5t18 13.5h2zM128 -102q0 -13 10.5 -19t23.5 -6t27.5 9t28.5 34q-14 5 -26 8.5t-25 3.5t-26 -6.5t-13 -23.5z" />
    <glyph glyph-name="Z" unicode="Z" horiz-adv-x="472" 
d="M306 427q60 -12 107 -24t83.5 -22t65.5 -16t53 -6q45 0 67 7t27 7q2 0 3 -4t2 -9.5t1 -10v-5.5q0 -14 -4.5 -23.5t-9.5 -15.5q-6 -7 -14 -11q-14 -7 -34.5 -8.5t-42.5 1t-43 7t-36 8.5q-47 -1 -91.5 -31t-88 -74.5t-86 -97.5t-84.5 -99q33 -5 64 -9t60 -4q52 0 87.5 13.5
t57.5 29.5t31 29t9 12l2 2q2 2 5 2q5 0 5 -5t-13 -22t-38.5 -35.5t-64.5 -33t-90 -14.5q-33 0 -68 2t-71 7q-7 -7 -15.5 -15t-18.5 -15t-21 -11.5t-23 -4.5q-9 0 -19.5 5.5t-19 14.5t-14.5 20.5t-6 23.5q0 18 18 25q19 4 43 -1t46 -8q41 43 77 91.5t72 93.5t74.5 83.5
t84.5 62.5q-53 21 -104.5 39t-106.5 18q-47 0 -79.5 -19t-53 -41.5t-29.5 -41.5l-9 -19v1q0 -1 -1 -2t-3 -1q-4 0 -5.5 2t-1.5 3q0 2 3 11t10 23t19 31t29 35q28 28 69 40.5t85 12.5q12 0 24.5 -1t24.5 -3zM77 -33q6 0 12 5t11 10q-11 0 -21 1.5t-18 1.5q4 -8 8.5 -13
t7.5 -5z" />
    <glyph glyph-name="t" unicode="t" horiz-adv-x="116" 
d="M295 270q-17 2 -38.5 3t-47.5 1q-20 0 -43 -1.5t-49 -3.5q-14 -28 -30.5 -61.5t-30.5 -66.5t-23 -61.5t-9 -46.5q0 -19 16 -19q17 0 43 19.5t47 64.5l2 1q3 0 6 -3l2 -2l-5 -17t-17 -37.5t-32.5 -38t-51.5 -17.5q-8 0 -17 2.5t-17 9.5t-13.5 18.5t-5.5 29.5q0 21 6 48
t15 56.5t20 58.5t22 55q-10 -4 -19 -5t-17 -1q-29 0 -46.5 14t-17.5 31q0 23 30 39q9 0 13 -3t4 -5q0 -3 -3 -3q-2 0 -3.5 1.5t-5.5 1.5q-5 0 -11 -4t-6 -16q0 -20 27 -20q14 0 31.5 4.5t44.5 11.5q6 13 13 30.5t13 33t9.5 26.5l3.5 11q4 0 13.5 -4.5t18.5 -11.5t16 -16.5
t7 -19.5q0 -8 -3 -15t-8 -16q37 6 68.5 8.5t57.5 2.5q36 0 59 -3.5t31 -5.5q10 -4 18 -11q7 -6 13 -15.5t6 -24.5q0 -1 -0.5 -5.5t-1 -9.5t-2 -9t-3.5 -4q-3 0 -8 2.5t-15.5 6t-28.5 7t-47 5.5z" />
    <glyph glyph-name="k" unicode="k" horiz-adv-x="217" 
d="M375 -38q28 -23 28 -56q0 -7 -6 -15t-32 -8q-11 0 -26.5 2.5t-36 11.5t-46 25t-55.5 43q-3 2 -5 3t-7 1q-9 0 -24 -3t-43 -10t-71.5 -18.5t-109.5 -28.5q0 -1 -24 -8.5t-63 -18t-89 -22t-102.5 -21t-103.5 -16t-92 -6.5q-21 0 -56 2t-75.5 9.5t-81 22t-73.5 38.5
q-12 7 -21 18q-8 9 -14 21t-6 29q0 12 4 24q26 -25 70 -44q38 -17 99.5 -30.5t154.5 -13.5q52 0 114 6q54 5 113 14q51 8 112.5 19.5t122.5 28.5q6 1 26.5 7t50.5 13.5t67 15t75 12.5q-23 22 -38.5 43t-25.5 38q-15 -24 -23.5 -41.5t-14.5 -28.5t-12.5 -16.5t-19.5 -5.5
q-5 0 -10.5 1t-11 5.5t-9 14.5t-3.5 27q0 33 12 80t27.5 94t31 86t22.5 54q1 1 3.5 7.5t5.5 15.5t5.5 19t2.5 17q2 0 11 -4t19 -10.5t18 -15.5t8 -19q0 -5 -9 -25t-22.5 -48t-29.5 -62t-29.5 -68t-23 -64.5t-9.5 -52.5q30 55 61 94.5t56 65.5t40.5 38.5l15.5 12.5q2 -1 5 -3
q6 -4 6 -6l-9 -9t-21.5 -23.5t-26 -32t-23.5 -34.5q4 -33 27.5 -70.5t52.5 -72.5h7q31 -3 61 -9q26 -5 52.5 -14.5t46.5 -24.5zM345 -94q9 -4 18 -4q11 0 16 5q3 3 5 6q-4 17 -25 28t-45 17q-28 7 -64 10q13 -16 30 -27.5t31 -19.5q17 -9 34 -15z" />
    <glyph glyph-name="u" unicode="u" horiz-adv-x="247" 
d="M262 116q5 -3 5 -4q0 -4 -6.5 -25t-18.5 -45t-29.5 -43.5t-39.5 -19.5q-20 0 -37.5 21.5t-17.5 56.5q-6 -10 -14 -20.5t-18 -19t-22 -14t-25 -5.5q-19 0 -35.5 19t-16.5 55q0 24 6.5 51t15.5 51.5t18 44t14 30.5h-1q6 10 11 20q5 8 8.5 16.5t5.5 14.5q1 0 8.5 -4.5
t15.5 -12t15 -16.5t7 -18q0 -11 -12 -34t-27 -50.5t-27 -57t-12 -54.5q0 -12 3.5 -20t15.5 -8q14 0 33.5 16.5t36.5 56.5q7 35 19.5 66t19.5 45q5 10 9 20q4 8 7 16.5t5 14.5q1 0 9 -4.5t17 -12t16 -16.5t7 -18q0 -12 -10 -31.5t-22.5 -43t-22.5 -49t-10 -48.5q0 -33 14 -33
t36 27.5t40 83.5q0 1 2 1h4z" />
    <glyph glyph-name="h" unicode="h" horiz-adv-x="230" 
d="M248 116q5 -3 5 -4q0 -3 -7 -21t-19.5 -39t-30 -37.5t-38.5 -16.5q-23 0 -39 23.5t-16 55.5q0 18 2.5 31.5t7.5 30.5q-11 -20 -23 -43t-23 -45t-19.5 -41t-11.5 -30q-4 -12 -13.5 -19t-20.5 -7q-12 0 -22.5 10t-10.5 36q0 24 7.5 59.5t19 75t25 79.5t26 73.5t22.5 57.5
t13 32q3 11 7 22q3 9 5.5 18t2.5 15q1 -1 10 -4.5t19.5 -9.5t18.5 -14.5t8 -19.5q0 -12 -5 -26q-5 -10 -16.5 -35t-26.5 -57.5t-31.5 -70t-30 -73t-22.5 -65.5t-9 -48q0 1 1 1q42 76 72 122t48.5 72.5t26.5 38t5 18.5q1 0 8.5 -4.5t15.5 -12t15 -16t7 -17.5q0 -5 -3 -14
q-6 -16 -15.5 -32.5t-19 -33.5t-16 -35.5t-6.5 -37.5q0 -11 2.5 -20.5t12.5 -9.5q14 0 35 20.5t41 66.5q0 1 2 1h4z" />
    <glyph glyph-name="a" unicode="a" horiz-adv-x="264" 
d="M274 116q5 -3 5 -4q0 -4 -6.5 -25t-18.5 -45t-29.5 -43.5t-39.5 -19.5q-15 0 -30.5 12.5t-22.5 43.5q-4 -5 -9.5 -11.5t-14 -12t-20 -9.5t-28.5 -4q-23 0 -37.5 11t-22.5 27t-11 32.5t-3 28.5q0 28 11 58.5t30.5 55.5t46 41t58.5 16q22 0 34.5 -6.5t23.5 -13.5
q2 3 2.5 6.5t1.5 5.5q1 0 9 -4.5t17 -12t16 -16t7 -17.5q0 -8 -3 -15.5t-7 -15.5h-1q-8 -15 -17.5 -32.5t-17.5 -35.5t-13.5 -37t-5.5 -37q0 -33 14 -33t36 27.5t40 83.5q0 1 2 1h4zM130 54q0 34 11 70t22 62q-9 10 -19 16.5t-22 6.5q-17 0 -34.5 -11t-32.5 -28.5
t-24.5 -39.5t-9.5 -44q0 -11 1.5 -22t7 -21t15 -16t26.5 -6t32 9t27 24z" />
    <glyph glyph-name="b" unicode="b" horiz-adv-x="221" 
d="M235 108q2 -2 2 -4q0 -1 -7.5 -11.5t-22 -23t-35.5 -23.5t-48 -13q-9 -5 -17.5 -11t-18 -11.5t-22.5 -9.5t-31 -4q-24 0 -39.5 12t-15.5 49q0 34 12.5 81.5t28 92.5t31 81.5t21.5 49.5l7 21q3 9 5.5 18t2.5 15q2 -1 11 -4.5t19 -9.5t18 -14.5t8 -20.5q0 -14 -11 -37
t-34 -71q12 4 29 4q22 0 36.5 -8t23 -20t12 -26t3.5 -26q0 -42 -15 -71t-29 -47q21 6 34.5 13.5t22 14.5t12 11.5l3.5 4.5zM23 36q1 -11 17 -11q17 0 40 12q-19 0 -32.5 16.5t-18.5 28.5q-4 -15 -5 -26.5t-1 -19.5zM113 61q18 15 33 43.5t15 57.5q0 17 -2 27t-5 15t-6.5 6.5
t-7.5 1.5q-18 0 -32 -10.5t-23 -25.5t-14 -32.5t-5 -30.5q0 -20 10.5 -34.5t36.5 -17.5z" />
    <glyph glyph-name="c" unicode="c" 
d="M231 119q3 -1 3 -4q-5 -22 -22 -44t-40 -39.5t-48.5 -28.5t-47.5 -11q-23 0 -39.5 9.5t-27.5 24t-16.5 32.5t-5.5 35q0 62 28.5 112t90.5 71q9 3 18 3q22 0 35 -11.5t20 -26t9 -28t2 -16.5q0 -11 -2.5 -24.5t-7.5 -25.5t-14 -20t-21 -8q-8 0 -16 2t-15 4l-16 6
q11 14 17 27t8 23q3 11 3 20q0 16 -12 16q-11 0 -25.5 -11t-28.5 -28.5t-23.5 -40t-9.5 -45.5q0 -31 18 -51t45 -20q14 0 27 5t25 11.5t22 14t17 13.5q19 15 27 25t11 16.5t4.5 9.5t7.5 3z" />
    <glyph glyph-name="l" unicode="l" horiz-adv-x="88" 
d="M112 469q2 0 11 -4t19.5 -10.5t18.5 -15.5t8 -19q0 -9 -3.5 -18.5t-7.5 -17.5q-7 -15 -20.5 -44.5t-29.5 -66t-33 -76.5t-30.5 -76.5t-22 -67t-8.5 -47.5q0 -2 0.5 -5t2.5 -3q5 0 25.5 18t52.5 70q8 8 11 8q2 -1 2 -5q0 -9 -12 -31t-28.5 -44.5t-34 -39.5t-28.5 -17
q-4 0 -9.5 0.5t-11 4.5t-9.5 12.5t-4 23.5q0 21 6.5 53t17 69.5t24 78.5t27.5 80t27 74t24 61q3 11 7 22q3 9 5.5 18t2.5 15z" />
    <glyph glyph-name="e" unicode="e" horiz-adv-x="213" 
d="M219 90q2 -2 2 -4q-15 -28 -35 -49q-17 -18 -43.5 -33t-61.5 -15q-26 0 -44 11t-29 27.5t-15.5 35.5t-4.5 34q0 34 11 65.5t30 56.5t43 40t50 15q32 0 49.5 -18t17.5 -39t-9 -40t-24.5 -33.5t-36.5 -23t-44 -8.5q-16 0 -27 3.5t-16 8.5q-6 -18 -6 -36q0 -28 17.5 -50.5
t46.5 -22.5q22 0 44.5 12t35.5 21q15 11 23.5 19t12.5 13.5t5.5 8t3.5 2.5t4 -1zM61 183q-14 -20 -25 -44q3 -1 13 -1q15 0 29 7t24.5 17t17 21.5t6.5 19.5q0 13 -14 13q-10 0 -23.5 -7.5t-27.5 -25.5z" />
    <glyph glyph-name="hyphen" unicode="-" horiz-adv-x="248" 
d="M65 213q38 0 70 1q27 1 50.5 2.5t26.5 5.5v-9q0 -4 0.5 -8.5t0.5 -9.5q0 -6 -3.5 -10.5t-17.5 -4.5q-15 1 -32 2q-14 1 -31.5 1.5t-34.5 0.5q-20 0 -36.5 -1.5t-22.5 -4.5l-2 6q-1 3 -1 12q0 5 5.5 11t27.5 6z" />
    <glyph glyph-name="period" unicode="." horiz-adv-x="107" 
d="M74 16q0 -1 1 -2q0 -1 0.5 -2t0.5 -3q0 -5 -7.5 -12.5t-7.5 -29.5q0 -5 1 -7h-6q-5 0 -14 1.5t-9 14.5q0 7 5 13t5 27q0 3 -2 7q7 0 14 -1q5 -1 11 -2.5t8 -3.5z" />
    <glyph glyph-name="slash" unicode="/" horiz-adv-x="226" 
d="M197 370q-14 -46 -32 -94t-36 -94t-35 -87t-30.5 -71.5t-21 -48.5t-6.5 -18q-2 0 -4 1q-2 0 -4 2q-1 1 -1 2q2 8 10.5 40.5t20 77t25 95t24.5 95.5t19 77.5t9 40.5q1 9 2 22t1 21q9 -5 22 -7.5t24 -8t15.5 -15.5t-2.5 -30z" />
    <glyph glyph-name="zero" unicode="0" horiz-adv-x="397" 
d="M151 436q30 14 63 14q40 0 68.5 -16.5t46.5 -42t26 -57.5t8 -62q0 -28 -5 -63t-16 -70.5t-27.5 -69t-40 -59.5t-53.5 -42t-68 -16t-61.5 19t-36 45.5t-17 55t-4.5 48.5q0 44 8.5 78.5t19 58t19.5 36.5t9 15q0 1 1 2q3 3 4 3q2 0 3.5 -2t1.5 -4q0 -4 -6.5 -18t-15 -36.5
t-15 -53.5t-6.5 -68q0 -21 4.5 -46t15.5 -47t29 -36.5t45 -14.5q38 0 67.5 26t49.5 65t30 85t10 86q0 39 -7 65.5t-19 42t-28 22t-34 6.5q-15 0 -26.5 -3.5t-16.5 -6.5q-8 -5 -13.5 -8t-10.5 -3q-9 0 -18 8t-15.5 17.5t-10.5 18t-4 9.5q5 1 12.5 4.5t15 6.5t13 5.5z" />
    <glyph glyph-name="one" unicode="1" horiz-adv-x="296" 
d="M247 452q14 0 15.5 -14t-2.5 -34q-5 -32 -10.5 -62.5t-11.5 -59.5q-36 -165 -58 -241t-24 -76q-3 0 -4 2t-1 3q0 9 5 36.5t12.5 68.5t16.5 93t17 109q-14 -33 -28 -62t-26.5 -52.5t-23 -40t-16.5 -22.5l1 -1q-12 -13 -21 -15.5t-12 -2.5q-8 0 -17 4.5t-17 10.5t-13.5 11
t-5.5 6q19 9 38 33t38 57t38 71t39 74l34 63q1 3 5 9.5t9.5 13.5t11 12.5t11.5 5.5z" />
    <glyph glyph-name="two" unicode="2" horiz-adv-x="441" 
d="M319 257q7 -1 19.5 -10.5t23.5 -27t19.5 -40.5t8.5 -51q0 -29 -11.5 -64.5t-35 -66t-60 -51t-86.5 -20.5q-26 0 -53 10t-49.5 29.5t-36.5 47.5t-14 64q0 39 14.5 71.5t35.5 58.5t44 46.5t40 36.5q46 42 80.5 73t51.5 44q-18 8 -40 8q-28 0 -55 -11t-51 -24.5t-45 -24.5
t-36 -11q-9 0 -17.5 7t-15 16t-10.5 16.5t-4 9.5q12 2 30 10q34 16 81.5 30.5t93.5 14.5q27 0 49.5 -8t38.5 -20t25 -26t9 -27q0 -3 -1 -4h-1q-23 -18 -50 -39.5t-56.5 -45t-59 -48.5t-57.5 -52q-22 -21 -36 -50.5t-14 -58.5q0 -23 9.5 -42.5t25 -34t36 -23t43.5 -8.5
q42 0 73.5 17t52.5 43.5t31.5 57t10.5 57.5q0 31 -9 52t-19.5 33.5t-19 18.5t-8.5 7l-2 2q-2 2 -2 4q0 5 4 5q1 0 2 -0.5t2 -0.5h1v0z" />
    <glyph glyph-name="three" unicode="3" horiz-adv-x="453" 
d="M274 304q19 0 41.5 -7t42.5 -24t33.5 -44.5t13.5 -69.5q0 -35 -14 -69.5t-39 -62t-61 -44.5t-79 -17q-40 0 -70 15t-50.5 37.5t-30.5 49.5t-10 51q0 23 2 35t4 20.5l4 17t2 24.5q0 4 -0.5 6.5t-0.5 4.5q2 -2 12.5 -3t22 -4.5t21 -12.5t9.5 -28q0 -8 -1 -12h-1
q-10 -28 -10 -54q0 -17 5.5 -34.5t18 -32t33 -23.5t50.5 -9q31 0 59 12t49 33.5t33 50.5t12 63q0 49 -25.5 81.5t-73.5 32.5q-20 0 -32 -5t-14 -5q-1 0 -4.5 0.5t-3.5 5.5q0 6 4 7t16 9t33.5 29t56.5 67l3 4q-31 -7 -62 -19t-56 -23.5t-42 -20.5t-20 -10v-1q-11 -6 -18 -8
t-12 -2q-9 0 -18 7t-15.5 15t-11 15.5t-4.5 8.5q5 1 13.5 4.5t16.5 8.5q10 5 20 11h1q24 11 52.5 22.5t60 20.5t64.5 15t65 6q1 0 5.5 -0.5t9.5 -2.5t10 -6.5t7 -11.5q-15 -22 -32 -41t-34 -34.5t-33 -28t-28 -20.5z" />
    <glyph glyph-name="four" unicode="4" horiz-adv-x="387" 
d="M355 6q1 0 2 -1q2 -2 2 -5q0 -7 -25.5 -8t-70.5 -3q-7 -21 -11 -34l-6 -19.5t-4 -9t-5 -2.5q-5 1 -6 5t-1 13v20.5t1 25.5q-48 -3 -107 -3q-1 0 -15 0.5t-30.5 7t-30 21.5t-13.5 44q0 11 1.5 19.5t3.5 15.5q21 62 49.5 114t54.5 92t46.5 66.5t25.5 36.5q4 6 12 20.5
t10 23.5q1 0 8 -4.5t15 -12t15 -16.5t7 -18q0 -11 -8 -24q-29 -36 -61 -76.5t-64 -86.5q-12 -17 -25.5 -36.5t-25 -40t-19 -40.5t-7.5 -38q0 -24 23 -31q38 -5 72 -7.5t64 -4.5q1 34 3.5 57t4.5 39.5t3.5 30t1.5 28.5q0 3 -0.5 6t-0.5 5q1 -1 11.5 -2t22.5 -5.5t21.5 -13
t9.5 -24.5q0 -7 -1 -11h1q-11 -21 -20.5 -52t-19.5 -59q39 -3 63 -3h23v0z" />
    <glyph glyph-name="five" unicode="5" horiz-adv-x="443" 
d="M272 293q6 0 26.5 -2t42.5 -14t39.5 -37.5t17.5 -72.5q0 -31 -12.5 -66t-36 -64.5t-58 -49t-78.5 -19.5t-76.5 16.5t-53.5 42.5t-31 59t-10 66q0 30 4.5 45t10 25.5t10.5 23t7 37.5q2 0 10.5 -4t18 -10t17 -15t7.5 -20q0 -5 -1 -11t-4 -14h-1q-7 -14 -12.5 -33.5
t-5.5 -41.5q0 -23 8 -44.5t22.5 -38t36 -27t48.5 -10.5q33 0 61 14.5t48.5 37.5t32.5 53t12 60q0 33 -12.5 52.5t-29 30.5t-33 14.5t-23.5 3.5q-10 0 -28.5 -2.5t-50.5 -2.5q-6 0 -20 2t-28.5 9t-25.5 20t-11 35q0 15 5.5 26.5t7.5 22.5q9 26 20 38.5t21.5 17t19 4t10.5 0.5
q27 -2 48 -2.5t40.5 -0.5h38.5h42q13 0 17 1q-3 -3 -2.5 -13.5t-2.5 -22.5t-13.5 -21.5t-34.5 -9.5h-1q-12 0 -26.5 3t-29.5 6.5t-30.5 6.5t-29.5 3q-26 0 -44 -13.5t-20 -51.5q3 -16 14 -23.5t24.5 -10.5t26.5 -3t21 -2q31 -3 40 -3z" />
    <glyph glyph-name="six" unicode="6" horiz-adv-x="427" 
d="M217 305q6 2 12 3t14 1q26 0 51.5 -10t45.5 -29.5t32.5 -47.5t12.5 -64t-14 -70.5t-39 -61.5t-59.5 -43t-75.5 -16q-29 0 -55.5 10.5t-46.5 30t-32 47t-12 60.5t10 62t19 52q31 57 54.5 92.5t40.5 58t28 37t16 29.5l7.5 -4.5t15.5 -12t15 -16.5t7 -18q0 -17 -20.5 -40
t-43.5 -52q5 1 8.5 1.5t8.5 0.5zM349 132q3 15 3 31q0 54 -30.5 87t-90.5 33q-27 0 -53 -8q-29 -39 -51 -83.5t-22 -95.5q0 -18 8 -33.5t21.5 -27t31.5 -18t38 -6.5q25 0 49.5 9.5t44 26t33.5 38.5t18 47z" />
    <glyph glyph-name="seven" unicode="7" horiz-adv-x="391" 
d="M321 456q5 -3 12 -6.5t14 -8t11.5 -12t4.5 -17.5q0 -9 -4.5 -20.5t-10.5 -22.5t-13 -22t-12 -19q-61 -96 -107 -163.5t-77.5 -110t-47.5 -63t-16 -22.5q-4 0 -5 3q-1 1 -1 3q0 6 19 37.5t48 79.5t64 106.5t67 117.5q13 23 24.5 45t19.5 43q-8 3 -23 5.5t-31 2.5
q-7 0 -13 -0.5t-11 -1.5q-39 -4 -65.5 -10.5t-44.5 -13t-28.5 -11t-16.5 -4.5q-13 0 -22 8.5t-14.5 19t-8.5 19.5t-4 11q5 0 14.5 1.5t17.5 3.5q10 3 21 6q33 10 71.5 19t81.5 9q41 0 86 -12z" />
    <glyph glyph-name="eight" unicode="8" horiz-adv-x="406" 
d="M257 318q17 -12 36 -27.5t35.5 -35.5t27.5 -45t11 -56q0 -45 -12.5 -80t-34 -58t-51.5 -35t-65 -12q-36 0 -63.5 13.5t-46 34.5t-27.5 46.5t-9 48.5q0 35 12.5 65t26.5 50q13 18 26 28t23.5 15.5t17 6.5t7.5 1q4 0 4 -5q0 -3 -9.5 -6.5t-22.5 -14t-27.5 -30t-23.5 -52.5
q-9 -21 -9 -43t7.5 -43t22 -37.5t35 -26.5t46.5 -10q31 0 53.5 11t37 29t21 42t6.5 51q0 30 -14 51.5t-32 36.5t-35 25t-23 16h-1q-17 17 -33.5 37t-16.5 50q0 24 10 40.5t25 27t32.5 15.5t32.5 5q21 0 35 -6.5t23 -16.5t13 -21t4 -21q0 -15 -3.5 -23t-7.5 -11.5t-7.5 -4
t-3.5 -1.5t1 -1q-1 0 -3 4t-2 5v1q1 1 2 5q1 3 2 7t1 10q0 13 -8.5 24.5t-33.5 11.5q-15 0 -26 -4.5t-18 -11t-10 -13.5t-3 -11q0 -17 15.5 -29.5t29.5 -21.5z" />
    <glyph glyph-name="nine" unicode="9" horiz-adv-x="395" 
d="M226 445q25 -1 49 -10t43 -26t31 -41.5t12 -56.5q0 -35 -10.5 -66.5t-25.5 -59.5t-33 -51t-33 -41q-55 -64 -96 -106t-57 -56l-1 -1q-1 0 -3 -2q-9 -8 -16 -9.5t-10 -1.5q-9 0 -18.5 5.5t-17.5 12t-13 12t-5 6.5q5 2 12 7.5t14 10.5q8 6 17 13q31 29 66.5 61.5t70.5 70.5
q-5 -1 -10.5 -1h-11.5q-38 0 -65 11.5t-45 30.5t-26.5 44t-8.5 51q0 37 13.5 72t38.5 62t60.5 43t78.5 16zM288 229q11 20 18 42t7 44q0 37 -25.5 63t-73.5 26q-32 0 -59 -12.5t-47 -34t-31.5 -49.5t-11.5 -58q0 -34 11.5 -56t29.5 -35t39 -18.5t40 -5.5q8 0 14.5 0.5
t13.5 1.5q10 3 21 14t21 25t18.5 28t14.5 25z" />
    <glyph glyph-name="space" unicode=" " horiz-adv-x="120" 
 />
    <glyph glyph-name="exclam" unicode="!" horiz-adv-x="240" 
d="M70 51q0 -1 1 -2q2 -4 2 -7q0 -4 -8 -12t-8 -30q0 -4 1 -6h-7.5t-9 1.5t-8 4.5t-3.5 10t4.5 12t4.5 27q0 4 -2 8q7 0 14 -1q5 -1 11 -2t8 -3zM149 500q5 1 17 -2t23 -12t17.5 -23.5t0.5 -35.5l-9 -31q-32 -91 -58 -154.5t-44 -103t-28 -57.5t-9 -18q-4 0 -5 1t-1 2
q0 6 5.5 29.5t14.5 57.5t19.5 74t20.5 78.5t18 72t12 54.5q2 8 4 20.5t2 47.5z" />
    <glyph glyph-name="plus" unicode="+" horiz-adv-x="238" 
d="M141 215q25 1 44.5 2.5t22.5 4.5v-9q0 -4 0.5 -8t0.5 -9q0 -6 -3 -11t-16 -5q-7 0 -16 1q-8 1 -19.5 1t-25.5 1q-9 -28 -15.5 -50t-6.5 -27q-2 0 -8 1.5t-12 4.5t-10.5 7.5t-4.5 12.5q0 2 0 1.5t1.5 2.5t6.5 13.5t15 34.5q-22 0 -40 -1t-24 -5q-1 2 -1 4q-1 2 -1 8
q0 9 4 14q4 3 4 4t5 2t19 1.5t47 2.5q10 24 16.5 43.5t6.5 29.5q1 -2 5 -2.5t8.5 -2.5t8.5 -7.5t4 -16.5q0 -2 -0.5 -3.5t-2 -5.5t-5 -12t-8.5 -22z" />
    <glyph glyph-name="question" unicode="?" horiz-adv-x="355" 
d="M86 57q1 0 7 -0.5t12.5 -1.5t11.5 -4t5 -8t-8.5 -13.5t-8.5 -30.5q0 -4 1 -6h-6q-7 0 -14.5 2.5t-7.5 13.5q0 7 5 13t5 28q0 3 -2 7zM151 477q20 7 45 7q26 0 49 -9t40 -25.5t26.5 -38.5t9.5 -48q0 -40 -20 -72t-47 -57.5t-54.5 -45.5t-41.5 -37q-23 -27 -31.5 -44.5
t-11 -27t-2.5 -13.5t-6 -4q-4 0 -5 2t-1 4q0 5 4 19.5t13.5 34t25 41.5t38.5 42q18 15 36 33t32.5 37.5t23.5 40t9 41.5q0 40 -24.5 58.5t-52.5 18.5t-46.5 -11t-29.5 -26.5t-15.5 -33.5t-4.5 -33q0 -38 13 -61t30 -37l-6 -3.5t-14.5 -7.5t-18.5 -7t-18 -3q-5 0 -12 4.5
t-17 20.5v1q-4 0 -7.5 10t-6.5 23.5t-4.5 27t-1.5 21.5q0 24 6 48.5t18.5 46t32 38t47.5 25.5z" />
    <glyph glyph-name="C" unicode="C" horiz-adv-x="358" 
d="M131 -49q-26 0 -48 11t-37.5 29.5t-24.5 44t-9 54.5q-1 59 23.5 120t65.5 110t96 80t115 31q57 0 86 -17t31 -37q0 -4 -1 -6q-22 -35 -32.5 -61t-15 -43.5t-5.5 -27t-4 -12.5l-2 -1q-23 2 -35.5 10.5t-18.5 18.5q-7 11 -9 26q0 8 6.5 29.5t24.5 52.5q-12 3 -26 3
q-40 0 -84 -24t-81.5 -63t-62 -89.5t-24.5 -103.5q0 -21 3.5 -40t12.5 -32.5t25 -21.5t41 -8t50 7t48 19t42.5 27.5t33.5 32.5q25 30 36 49.5t15.5 31t6 15.5t8.5 4q3 0 4 -2t1 -4q0 -7 -5.5 -24t-18 -38.5t-33 -46.5t-49.5 -47q-12 -9 -28.5 -19t-35.5 -18.5t-41 -14
t-44 -5.5z" />
    <glyph glyph-name="O" unicode="O" horiz-adv-x="442" 
d="M128 -34q-61 12 -90.5 56t-31.5 104q-2 42 10.5 84.5t34.5 80.5t50.5 68.5t58.5 48.5l20 12q8 5 15.5 10t11.5 9l3.5 -6.5t7 -15.5t6 -19t1.5 -17q0 -3 -4 -9t-15 -14q-26 -11 -53 -33.5t-49 -53t-37.5 -67t-18.5 -76.5q-3 -36 5 -62.5t23 -44t35.5 -26.5t43.5 -11
q38 -3 69 6.5t59 38.5l-12 6q-26 12 -41.5 33t-24 45t-10.5 50t0 49q3 33 13.5 68.5t29 65t44.5 47.5t59 15q26 -2 42 -18.5t24 -40t10 -50t1 -48.5q-3 -30 -11.5 -59t-20 -56t-25.5 -49.5t-27 -38.5q27 -2 45 6.5t33 22.5q15 15 23 25.5t12 17.5t5.5 10t4.5 3q4 0 5 -2.5
t1 -3.5q0 -3 -7.5 -21t-24 -38.5t-43.5 -35.5t-68 -12q-4 0 -12 2q-18 -16 -37 -28.5t-41 -20.5t-47 -10t-55 3zM237 183q-4 -39 11 -75.5t55 -53.5q9 14 19.5 33.5t19.5 42t15 45.5t8 44q3 38 0 63t-9 39.5t-13 20.5t-13 6q-15 1 -30.5 -14.5t-29 -40.5t-22.5 -54.5
t-11 -55.5z" />
    <glyph glyph-name="W" unicode="W" horiz-adv-x="567" 
d="M760 435q12 0 23.5 -3t20.5 -9.5t15 -17.5t6 -27q0 -10 -3 -23l-1 -1q-2 -2 -4 -2q-3 0 -7 2.5t-10.5 4.5t-18 4t-30.5 2q-27 0 -50.5 -3.5t-45 -8.5t-44 -10t-48.5 -8q2 -23 0 -59.5t-10 -77.5t-22 -82t-35.5 -74.5t-51.5 -54t-69 -20.5q-17 0 -30.5 9t-24 21.5
t-18 25.5t-12.5 21q-5 -5 -12.5 -12t-17 -13.5t-21 -11.5t-24.5 -5q-19 0 -33 9.5t-23 24t-13 31.5t-4 33q0 35 12.5 72t30.5 70.5t38 61.5t36 46q-20 -5 -51 -19.5t-60 -37t-50 -53t-21 -68.5q0 -8 1 -11q1 -4 7 -2.5t13 6t14 11.5t10 13q2 4 6 6t7.5 2t5.5 -3t-1 -11
q-3 -6 -7.5 -18.5t-12.5 -25t-20.5 -21.5t-30.5 -9q-14 0 -24 6.5t-17 16.5t-10 22t-3 23q0 46 26.5 83t67 63t88.5 39.5t92 13.5q6 0 10.5 -4.5t2.5 -7.5q-5 -8 -23 -30t-38 -54t-37 -72.5t-20 -85.5q-2 -23 2 -37.5t10 -22.5t12 -11.5t8 -3.5h2q11 0 20.5 5t17 11.5
t13 13.5t8.5 11q-14 51 -6.5 102.5t27 93t46.5 67.5t53 26q13 0 22.5 -6t15.5 -15t9 -20t3 -20q0 -32 -10 -66t-25.5 -65t-35 -56.5t-37.5 -41.5q1 -6 4.5 -15.5t8 -19t10 -17.5t11.5 -9q21 -6 42 7.5t40 39.5t35 61t27 71t16 70.5t2 59.5q-24 3 -35 16.5t-11 26.5
q0 24 13.5 36t24.5 10q15 -3 21 -21t9 -30q48 23 97 41.5t106 20.5zM517 384q0 -7 5 -10.5t11 -4.5q1 0 1 5t-0.5 11t-2.5 11t-6 4q-6 -3 -7 -6t-1 -10zM331 154q0 -8 0 -7.5t1 -7.5q9 16 22.5 43t24.5 54t15.5 47.5t-4.5 23.5q-11 -2 -21.5 -19t-18.5 -40.5t-13.5 -49
t-5.5 -44.5z" />
    <glyph glyph-name="d" unicode="d" horiz-adv-x="270" 
d="M260 45q-4 -6 -10.5 -14t-16 -15.5t-21.5 -12.5t-27 -5q-11 0 -26.5 6.5t-20.5 25.5q-8 -8 -27 -21t-45 -13q-22 0 -37 10.5t-24 25.5t-13 32.5t-4 32.5q0 24 10 53.5t29 55.5t46 43.5t60 17.5q15 0 27.5 -3t21.5 -8q15 38 26.5 65.5t17.5 41.5l7 21q3 9 5.5 18t2.5 15
q2 -1 11 -4.5t19 -9.5t18 -14.5t8 -19.5q0 -5 -1 -11t-4 -14q-7 -16 -26 -54.5t-39.5 -83.5t-36 -88.5t-15.5 -68.5q0 -21 17 -21t42 20.5t45 66.5l2 1q4 0 7 -3l2 -2q0 -4 -6.5 -23t-23.5 -43zM134 48q-1 4 -1 14q0 28 8 63t20 70q-16 13 -37 13q-20 0 -38.5 -12.5
t-32.5 -32t-22.5 -42.5t-8.5 -45q0 -29 17.5 -42.5t39.5 -13.5q16 0 30.5 7t24.5 21z" />
    <glyph glyph-name="f" unicode="f" horiz-adv-x="146" 
d="M16 -153q-4 -1 -10 -1q-18 0 -28 7t-15 17t-6 21.5t-1 20.5q0 33 8.5 73t20.5 80t25 77t22 64q-19 32 -28.5 46.5t-9.5 17.5q0 2 2 3.5t4 1.5q12 -2 26 -3.5t28 -3.5q13 33 21 54t16 41l7 21q3 9 5.5 18t2.5 15q2 -1 11 -4.5t19 -9.5t18 -14.5t8 -19.5q0 -9 -4.5 -21.5
t-11 -26.5t-14 -29.5t-13.5 -30.5q34 -3 45.5 -4.5t11.5 -3.5q0 -3 -18.5 -3.5t-44.5 -1.5q-9 -20 -17.5 -40.5t-17.5 -43.5q7 -14 16.5 -31.5t17.5 -37.5t13.5 -43.5t5.5 -50.5q0 -39 -14 -67.5t-32.5 -47t-38 -28.5t-30.5 -11zM27 242q3 -4 6 -7.5t6 -8.5q2 5 3.5 10.5
t3.5 10.5h-17t-4 -2q0 -1 2 -3zM7 -66q-1 -6 -1.5 -12.5t-0.5 -13.5q0 -9 2.5 -15.5t10.5 -6.5q21 0 36.5 14.5t26 35t15.5 42.5t5 37q0 34 -10.5 65.5t-22.5 57.5q-19 -48 -36 -100.5t-25 -103.5z" />
    <glyph glyph-name="g" unicode="g" horiz-adv-x="239" 
d="M248 249q1 -2 1 -7q0 -8 -4 -17q-24 -51 -52 -112t-49 -123q19 -1 39 -3t36 -7.5t26 -16t10 -27.5q0 -13 -6 -26t-16.5 -23t-24 -16.5t-28.5 -6.5q-26 0 -49 20t-28 52q-18 -2 -42 -5.5t-46 -7.5t-37 -9t-15 -9q-3 12 -3 22q0 15 5 25t11.5 16t13 9t9.5 4q24 4 50 5.5
t58 3.5q1 5 2 8.5t2 8.5q-9 -4 -19 -8t-25 -4q-24 0 -39 10.5t-23.5 25.5t-12 32t-4.5 30q0 27 10 57.5t28.5 56t44.5 42.5t59 19q20 0 34 -4t25 -9q5 8 9.5 16t5.5 17q11 -6 20 -12q8 -5 15 -12t9 -15zM202 -52q-17 0 -36.5 -4t-49.5 -6q3 -1 7 -1q3 -1 5.5 -1t4.5 -1
q5 -20 19.5 -35t33.5 -15q13 0 29.5 11t16.5 34q0 8 -6.5 13t-23.5 5zM117 35q11 45 25 86t25 73q-17 14 -40 14q-18 0 -36 -10.5t-33 -27.5t-24.5 -38.5t-9.5 -44.5q0 -12 2 -24t7 -21.5t15 -16t27 -6.5q5 0 12 1.5t14 3.5t11.5 5t4.5 6z" />
    <glyph glyph-name="i" unicode="i" horiz-adv-x="123" 
d="M38 -2q-29 0 -42.5 22.5t-13.5 50.5q0 30 9 61t20 58t20.5 48t11.5 31q-1 -2 6.5 -5t16.5 -9t17 -15.5t8 -24.5q0 -12 -11 -26q-17 -32 -34.5 -68t-17.5 -68q0 -11 3 -18t14 -7q17 0 42 20.5t45 66.5l2 1q4 0 7 -3l2 -2q0 1 -4.5 -16.5t-16.5 -39t-32.5 -39.5t-51.5 -18z
M129 299q-5 -11 -15 -18t-21 -7q-14 0 -20 10t-6 23q0 16 9.5 26t23.5 10t23 -9t9 -22q0 -7 -3 -13z" />
    <glyph glyph-name="j" unicode="j" horiz-adv-x="127" 
d="M0 144q14 36 25 64.5t24 60.5q-1 -2 6.5 -5t16.5 -9t17 -15.5t8 -22.5q0 -6 -2 -12q-9 -17 -19.5 -36t-19.5 -38.5t-15.5 -39t-6.5 -37.5q0 -12 3 -19t14 -7q17 0 42 20.5t45 66.5l2 1q3 0 6 -3l2 -2l-5 -17.5t-16.5 -39t-31.5 -39t-51 -17.5q-10 0 -20.5 4t-19.5 15
q-4 -8 -7 -15t-7 -14q46 -6 65 -8t19 -18q0 -21 -2 -36.5t-4 -15.5q-22 6 -48.5 15t-54.5 17q-23 -33 -43.5 -47t-46.5 -14q-9 0 -19.5 2.5t-19.5 8.5t-15 16t-6 25q0 19 10 31t22.5 19t25.5 9t19 2h23t26 -2v1q17 40 31.5 79t27.5 72zM-77 -53q7 0 12.5 0.5t13.5 -1.5
l-24 7h1q-12 4 -24 6.5t-23 2.5q-17 0 -30.5 -9t-13.5 -26q0 -14 9.5 -18.5t21.5 -4.5q14 0 28.5 9t28.5 34zM76 324q8 19 30 19q14 0 22.5 -9.5t8.5 -22.5q0 -14 -12.5 -25.5t-26.5 -11.5q-13 0 -19.5 10t-6.5 22q0 5 1 9t3 9z" />
    <glyph glyph-name="m" unicode="m" horiz-adv-x="343" 
d="M163 20q-5 -16 -15 -19.5t-14 -3.5q-24 0 -32.5 18t-8.5 48q0 21 4 43.5t11 44.5q-15 -32 -27 -60t-22.5 -48.5t-20 -32.5t-19.5 -12q-23 0 -31.5 16t-8.5 47q0 38 10.5 76.5t24 70t24.5 51.5t13 20q8 0 18 -4t20 -9q11 -5 23 -12q-8 -16 -22.5 -40.5t-28.5 -52.5
t-25 -57t-11 -54q47 86 79 136t44 62q6 10 11 20q9 17 13 30q1 0 8.5 -4.5t15.5 -12t15 -16t7 -17.5q0 -14 -12 -36t-26 -48t-26.5 -55.5t-13.5 -59.5q42 76 69.5 116.5t45 63t27 35.5t14.5 34l7.5 -4.5t15.5 -11.5t15 -15.5t7 -16.5q0 -14 -11.5 -37.5t-26 -50.5t-26 -55
t-11.5 -53q0 -11 2.5 -18.5t10.5 -7.5q14 0 35 20.5t41 66.5l2 1q4 0 7 -3l2 -2q0 -2 -6.5 -20t-19 -38.5t-30 -37.5t-39.5 -17q-19 0 -35.5 18.5t-16.5 54.5q0 26 8 56t18 57q-11 -20 -24.5 -46.5t-26 -51.5t-21.5 -43.5t-10 -22.5z" />
    <glyph glyph-name="n" unicode="n" horiz-adv-x="244" 
d="M130 34q-14 20 -14 53q0 27 6 48.5t16 48.5q-9 -17 -22.5 -41.5t-26.5 -50t-23.5 -48t-13.5 -33.5l-2.5 -6.5t-7.5 -13.5t-11.5 -13t-14.5 -6q-24 0 -32 18.5t-8 48.5q0 33 8 65t18 58t19 43.5t11 21.5q6 12 12 28.5t8 23.5q3 0 11 -5t15.5 -12.5t13.5 -16.5t6 -17
q0 -17 -12 -38t-26.5 -45.5t-26.5 -51.5t-12 -57q0 -8 1 -12q33 63 57.5 104.5t42.5 67t30 40t19.5 24t11.5 17t7 21.5q1 0 8.5 -4.5t15.5 -12t15 -16t7 -17.5q0 -3 -1.5 -11t-5.5 -12q-8 -17 -19.5 -35.5t-22 -38.5t-18 -40.5t-7.5 -40.5q0 -11 2.5 -18.5t11.5 -7.5
q13 0 34.5 20.5t41.5 66.5l2 1q3 0 6 -3l2 -2q0 -2 -6.5 -19.5t-18.5 -38.5t-29.5 -38t-39.5 -17q-9 0 -19 4t-19 16z" />
    <glyph glyph-name="o" unicode="o" horiz-adv-x="216" 
d="M204 196q1 -5 1 -9.5v-9.5q0 -36 -15.5 -68.5t-31.5 -52.5q4 -2 12 -2q9 0 17 3.5t15 8t12 8t8 3.5t3 -5q0 -4 -3.5 -11.5t-11 -15t-21 -13t-32.5 -5.5q-12 0 -25 5q-5 -7 -23.5 -20.5t-43.5 -13.5q-21 0 -35.5 9t-23.5 23t-13.5 30t-4.5 31q0 39 13 69.5t29.5 52.5
t32.5 34.5t22 14.5q2 0 5.5 -2.5t11.5 -15.5q8 6 18 11t26 5t27 -7.5t17.5 -17.5t10 -21t3.5 -18zM68 23q5 0 15 4t24 17q-26 16 -34.5 44t-8.5 55q0 6 0.5 12.5t1.5 12.5q-17 -18 -28.5 -41t-11.5 -50t11 -39.5t31 -14.5zM153 126q2 6 3 13t1 14q0 15 -1 28t-7 15
q-8 0 -15 -8t-12.5 -19.5t-9 -25t-3.5 -25.5q0 -11 4 -28t16 -21q8 11 14 25t10 32z" />
    <glyph glyph-name="p" unicode="p" horiz-adv-x="229" 
d="M132 86q5 10 10 24.5t9.5 29t7.5 27.5t3 21q0 11 -5 11q-29 -3 -47 -11t-29.5 -17t-17.5 -18.5t-10 -15.5q-29 -58 -53 -109.5t-42 -90.5t-28.5 -62l-10.5 -23q-5 0 -7 2.5t-1 2.5q2 14 12.5 50.5t25 82.5t31 96.5t30.5 93t23.5 71.5t9.5 33q2 0 10 -3.5t17 -10t16.5 -15
t9.5 -17.5q3 2 21 11t39 9q31 0 43 -17.5t12 -43.5q0 -32 -11.5 -65.5t-20.5 -52.5q24 -5 37 -8.5t19.5 -5.5t7.5 -3.5t1 -2.5q0 -6 -5 -6q-6 0 -24.5 4t-44.5 6q-15 -30 -44 -50t-60 -20q-26 0 -37.5 12t-11.5 26q0 19 11 30.5t26 17t31 7t27 1.5h10t10 -1zM49 35
q0 -8 10 -8q13 0 33 12t28 26q-12 0 -24.5 -2.5t-23 -6.5t-17 -9.5t-6.5 -11.5z" />
    <glyph glyph-name="q" unicode="q" horiz-adv-x="252" 
d="M220 -80q-7 -44 -28 -58.5t-49 -14.5q-32 0 -43.5 18t-14.5 54q-5 0 -9 -0.5t-6 -0.5q-5 0 -6 4t-1 20q0 5 1 5q5 -1 10.5 -1.5t11.5 -1.5q2 15 5 30.5t8 31.5q-8 -4 -17.5 -6t-21.5 -2q-23 0 -37 11t-22 27t-11 33t-3 29q0 21 9.5 50.5t27.5 55.5t44 44.5t60 18.5
q20 0 34 -4.5t25 -10.5q6 9 13 22t9 24q2 0 9.5 -5t16 -13t15.5 -17.5t7 -18.5q0 -4 -4 -11t-8 -15q-16 -32 -29.5 -63t-28.5 -71q16 -32 26 -63.5t10 -70.5q0 -6 -0.5 -11t-1.5 -10q20 -2 23 -2t3 -3t-7 -3t-20 -1zM178 60q-10 -24 -16.5 -40.5t-11 -29.5t-7.5 -25t-6 -27
q16 -2 31 -3.5t29 -3.5q1 5 1 11v13q0 26 -5.5 54t-14.5 51zM103 29l4 2q6 19 14 41t15.5 43t14.5 40t12 34q-8 8 -18 13.5t-23 5.5q-17 0 -34.5 -11t-32 -28.5t-23.5 -39t-9 -43.5q0 -11 1.5 -22.5t6.5 -20.5t14.5 -15t26.5 -6q9 0 16.5 2t14.5 5zM154 -126q17 0 27 13
t14 33q-14 -1 -30 -1h-31q-1 -6 -1.5 -12t-0.5 -11q0 -10 4 -16t18 -6z" />
    <glyph glyph-name="r" unicode="r" horiz-adv-x="212" 
d="M229 115q5 -3 5 -4q0 -2 -6.5 -20t-19 -38.5t-30 -37.5t-39.5 -17q-19 0 -35.5 18.5t-16.5 54.5q0 29 8.5 60t19.5 58q-11 -2 -21 -3t-21 -1h-9t-8 1q-19 -39 -29 -61.5t-14.5 -34t-6.5 -15t-5 -3.5q-8 0 -8 5v3q0 1 1 1q8 20 19.5 53.5t17.5 62.5q-17 11 -23 26.5
t-6 26.5t2 16.5t10 5.5h6t9 -2q17 -4 29.5 -7t12.5 -4q-3 -7 -4 -8.5t-3 -3.5q0 -2 4.5 -3t11 -2t14.5 -1.5t15 -0.5h28q7 10 12 21q5 9 9 19t6 18q1 0 8 -4.5t15.5 -11.5t15.5 -15.5t7 -17.5q0 -15 -12 -38t-26 -49.5t-26 -54.5t-12 -53q0 -11 2.5 -18.5t10.5 -7.5
q14 0 35 20.5t41 66.5l2 1q2 0 4 -1z" />
    <glyph glyph-name="s" unicode="s" horiz-adv-x="196" 
d="M153 255q1 -3 1 -8q0 -2 -0.5 -4t-1.5 -5q1 -24 11 -60t15 -82q0 -25 -10 -44.5t-26 -32.5t-36 -19.5t-40 -6.5q-23 0 -39.5 7.5t-27.5 19t-16.5 25t-5.5 25.5q0 15 7.5 26.5t21.5 13.5q9 15 20.5 35t22.5 40.5t21 39t18 32.5q0 4 1.5 11t4.5 14t6.5 11.5t6.5 4.5h-1
q0 -1 6.5 -4.5t14.5 -8.5t15.5 -12.5t10.5 -17.5zM59 30q12 0 23.5 4t21.5 11.5t16 18.5t6 24q0 12 -4.5 28t-10.5 33.5t-11.5 34t-8.5 29.5q-17 -25 -36 -51.5t-34 -47.5q20 5 32.5 5t11.5 1q1 0 2 -1q2 -2 2 -6q0 -3 -10.5 -5t-23.5 -6t-23.5 -10t-10.5 -18
q0 -6 4.5 -13.5t12 -14t18.5 -11.5t23 -5z" />
    <glyph glyph-name="circumflex" unicode="&#x2c6;" horiz-adv-x="279" 
d="M248 293q0 -2 1.5 -3t1.5 -2q0 -2 -5.5 -4t-24.5 -2q-18 0 -41 8t-38 31q-11 -8 -23 -11t-24 -3q-13 0 -24.5 3t-20.5 7t-14.5 7.5t-5.5 5.5l4 6q2 -1 15 -4.5t30 -3.5t28.5 5t19 11t12 11t9.5 5q11 0 14.5 -6t6.5 -14.5t8 -18t20 -15.5q17 -8 32 -9.5t19 -2.5v-1z" />
    <glyph glyph-name="dieresis" unicode="&#xa8;" horiz-adv-x="182" 
d="M111 369q1 -1 7 -1t12.5 -1.5t12 -4.5t5.5 -9q0 -5 -7.5 -13.5t-7.5 -33.5q0 -6 1 -9h-6q-6 0 -14.5 3t-8.5 17q0 3 1 5.5t2.5 7t3 11.5t1.5 19q0 5 -2 9zM41 369q1 -1 7 -1t13 -1t12 -4.5t5 -10.5q0 -5 -1 -7q-4 -6 -7 -13q-7 -14 -7 -27q0 -6 1 -8h-6q-6 0 -14.5 3
t-8.5 16q0 4 1 6t2.5 5.5t3 10.5t1.5 21q0 6 -2 10z" />
    <glyph glyph-name="tilde" unicode="&#x2dc;" horiz-adv-x="251" 
d="M92 342q-11 3 -19.5 6.5t-18.5 3.5q-13 0 -16 -7t-3 -10t0.5 -5t0.5 -3q-1 0 -1 -1.5t-4 -1.5q-2 1 -3 3q-2 4 -2 9q0 14 9 22t20 8q24 0 49.5 -6t41.5 -6q13 0 23.5 4t12.5 27q3 0 8.5 -0.5t11 -3t9.5 -6.5t4 -12q0 -11 -11.5 -26t-40.5 -15q-19 0 -38 7.5t-33 12.5z
" />
    <glyph glyph-name="cedilla" unicode="&#xb8;" horiz-adv-x="164" 
d="M103 42v-8.5t2 -7t7 -8t16 -12.5q5 -5 5.5 -8.5t0.5 -8.5q-4 -25 -18 -32.5t-28 -7.5q-20 0 -31.5 6t-17 13.5t-7 14t-1.5 7.5q0 7 4.5 11.5t10 6.5t11 2.5t7.5 1.5q2 -12 5 -18t8 -9q4 -4 11 -4h-1q8 -2 12 -2q12 0 12 12q0 3 -3 7.5t-7 9.5t-7 10t-3 9q0 8 3 12.5
t3 5.5q0 -1 1 -1t1 -0.5t1 -0.5q1 -1 3 -1z" />
    <glyph glyph-name="acute" unicode="&#xb4;" horiz-adv-x="223" 
d="M174 389q1 0 4.5 -4t7.5 -9t7 -11.5t3 -10.5q0 -13 -10 -21.5t-23.5 -14t-28.5 -8t-25 -2.5q-16 0 -30.5 3t-26 6.5t-18.5 7t-7 5.5l2 4q0 1 0.5 1t0.5 1l1 1q3 -1 17 -4.5t31 -3.5q18 0 31 4t22 10t14.5 11.5l8.5 8.5q3 4 9.5 12.5t9.5 13.5z" />
    <glyph glyph-name="divide" unicode="&#xf7;" horiz-adv-x="239" 
d="M60 213q38 0 70 1q27 1 50.5 2.5t26.5 5.5q0 -2 1 -6q0 -3 0.5 -6.5t0.5 -6.5q0 -8 -2 -15.5t-19 -7.5q-15 1 -32 2q-14 1 -31.5 1.5t-34.5 0.5q-20 0 -36.5 -1.5t-22.5 -4.5q-1 2 -1 4q-1 2 -1 8q0 1 -0.5 5t2 8t9 7t20.5 3zM122 232q-1 0 -2 2q-2 4 -2 8q0 3 1.5 5.5
t3 6.5t3 11t1.5 18q0 5 -1 7q1 -1 6.5 -1t12 -1t11.5 -4t5 -9q0 -4 -1 -7q-4 -6 -7 -12q-7 -12 -7 -23q0 -5 1 -7q-3 0 -11.5 0.5t-13.5 5.5zM132 163q0 -1 1 -2q2 -2 2 -6t-1 -6l-8 -12q-7 -12 -7 -24q0 -4 1 -6q-2 0 -7 -0.5t-9.5 1t-8 4.5t-3.5 11q0 7 4.5 12t4.5 27
q0 4 -2 8q7 0 14 -1q5 -1 11 -2.5t8 -3.5z" />
    <glyph glyph-name="v" unicode="v" horiz-adv-x="224" 
d="M230 104q0 -1 1 -1q0 -1 0.5 -1t0.5 -1t-4 -3.5t-17 -2.5q-8 0 -17 1.5t-18 5.5q-5 -14 -15 -32.5t-23.5 -34.5t-31 -27t-36.5 -11q-44 0 -63 26.5t-19 63.5q0 28 5 53t12.5 46t15 36.5t13.5 24.5q5 9 12.5 24.5t11.5 26.5q1 0 8 -4.5t15 -11.5t14.5 -15.5t6.5 -16.5
q0 -16 -10 -35t-22.5 -40.5t-22.5 -45.5t-10 -51q0 -18 6.5 -29.5t23.5 -11.5q15 0 28 8t24 20t19.5 26t15.5 26q-11 11 -17.5 27.5t-6.5 36.5q0 6 2 20.5t7.5 29.5t16 26.5t28.5 13.5q13 0 18.5 -11t5.5 -28q0 -15 -3.5 -33t-8 -34.5t-9 -30t-7.5 -20.5q9 -7 19.5 -9
t18.5 -2q5 0 8 0.5t4 0.5zM161 130q8 20 17 47t9 44q0 15 -9 15q-6 0 -11 -8t-9 -18.5t-6 -22t-2 -17.5q0 -11 3 -20t8 -20z" />
    <glyph glyph-name="w" unicode="w" horiz-adv-x="352" 
d="M366 97q-2 -3 -16 -3q-8 0 -18 1.5t-21 6.5q-5 -14 -14.5 -32.5t-23 -34.5t-30.5 -27t-38 -11q-30 0 -51.5 16t-28.5 56q-6 -11 -14.5 -23t-19 -23t-23.5 -18t-28 -7q-19 0 -36 18.5t-17 54.5q0 42 10.5 75t23.5 60t25.5 49t16.5 42q1 0 8.5 -4.5t16 -11.5t15.5 -15.5
t7 -16.5q0 -15 -12 -38t-26 -49.5t-26 -54.5t-12 -53q0 -13 3.5 -21.5t15.5 -8.5q14 0 33.5 17t36.5 59q2 37 11 67t19.5 51t19 32.5l8.5 11.5q6 0 15.5 -4.5t18.5 -9.5t15 -10l6 -5v-1q-9 -14 -20 -32t-20.5 -38t-16 -41.5t-6.5 -43.5q0 -18 6.5 -29t23.5 -11q15 0 28 8.5
t24 20.5t19.5 26t14.5 25q-11 10 -17 26.5t-6 36.5q0 9 4 25t11 31.5t17 26.5t22 11q14 0 19 -10.5t5 -27.5q0 -15 -3.5 -33t-8 -35.5t-10 -32t-8.5 -22.5q7 -5 18 -8t22 -3q8 0 11 1h1v-1q0 -1 1 -2q0 -1 -0.5 -1t-0.5 -1v-1zM293 135q1 -2 1.5 -2.5t1.5 -2.5q3 6 7 17.5
t8 25t7 26.5t3 22q0 15 -8 15q-6 0 -11 -8t-9 -18.5t-6 -22t-2 -17.5q0 -20 8 -35z" />
    <glyph glyph-name="x" unicode="x" horiz-adv-x="272" 
d="M280 115q3 -2 3 -4q-1 -3 -9.5 -22.5t-26.5 -42.5q-4 -5 -10.5 -13.5t-15.5 -17t-21.5 -14.5t-27.5 -6q-17 0 -30.5 8t-24 21t-18 28.5t-12.5 29.5l-61 -61t-48.5 -48t-32.5 -31.5t-12 -12.5q-2 0 -4 1.5t-2 3.5q0 3 14 21.5t35 45.5t46.5 59t49.5 62q-6 20 -10 38t-7 33
q-17 -27 -39.5 -41t-37.5 -14q-8 0 -9.5 0.5t-1.5 1.5q0 3 4 3t11.5 2t17.5 9t21 24q15 19 20.5 37.5t7.5 26.5q0 2 -0.5 2.5t-0.5 1.5t8 4t18 6t20 5.5t15 2.5q2 0 3 -10.5t2 -25t1 -29t1 -22.5q20 24 34 41.5t19 23.5q8 9 15 17q6 7 11.5 14.5t7.5 12.5q8 -7 14 -14
q5 -6 10 -13t5 -15q0 -2 -1.5 -10t-15.5 -23v-1l-91 -91q2 -11 6 -26t10 -29.5t14 -24.5t19 -10q12 0 23.5 5.5t21 14t17 17t12.5 14.5q19 23 22.5 29.5t6.5 6.5q2 0 4 -1z" />
    <glyph glyph-name="y" unicode="y" horiz-adv-x="275" 
d="M285 115q4 -3 4 -4v1q-1 0 -5 -18t-15.5 -39t-31.5 -39t-52 -18q-11 0 -21.5 4t-19.5 15q-3 -8 -7 -15t-7 -14q36 -8 66 -13t56 -5q10 0 15 1q0 -20 -12.5 -37.5t-36.5 -17.5q-21 0 -51.5 9t-60.5 18q-20 -35 -43 -48.5t-47 -13.5q-4 0 -14 1t-20.5 6t-19 15.5t-8.5 29.5
t10 31t23.5 18.5t26.5 8.5t19 2q8 0 14.5 -0.5t13.5 -0.5q20 0 24 9t10 24q-11 -11 -25 -19t-30 -8q-18 0 -35 18.5t-17 54.5q0 23 6 49t14.5 50t17.5 44t15 31l22 52q1 0 9 -4.5t16 -11.5t15 -15.5t7 -17.5q0 -11 -11.5 -33.5t-26 -50t-26 -57t-11.5 -53.5q0 -13 3.5 -21.5
t15.5 -8.5q17 0 41 26t44 90q9 30 16 48.5t12 29.5t8 18t4 13q14 -7 29.5 -20t15.5 -33q0 -11 -7 -24q-18 -32 -30.5 -58.5t-12.5 -60.5q0 -12 3 -18.5t14 -6.5q17 0 42.5 20.5t45.5 66.5l2 1q2 0 4 -1zM63 -53q3 1 11 1q3 0 6 -0.5t5 -0.5h5l-25 6q-11 2 -22.5 4.5
t-22.5 3.5q-17 0 -31.5 -7.5t-14.5 -25.5q0 -13 10.5 -19t22.5 -6q13 0 27.5 9.5t28.5 34.5z" />
    <glyph glyph-name="z" unicode="z" horiz-adv-x="245" 
d="M209 117q5 -2 9.5 -6.5t4.5 -12.5q0 -14 -14 -28.5t-32.5 -27t-38.5 -22.5t-32 -14q3 -11 8 -19.5t10.5 -14.5t9.5 -9.5l4 -3.5q0 -4 -2 -4q-1 0 -5.5 3t-10.5 8.5t-12.5 14.5t-10.5 21q-10 -3 -22 -6.5t-26 -3.5q-15 0 -27.5 6.5t-22 17.5t-14.5 24.5t-5 27.5t4 23
q32 53 67 85.5t63 51.5q-24 -8 -48.5 -14t-35.5 -6q-13 0 -20 3t-10.5 8t-4 11.5t-0.5 12.5v18q0 4 1 7q7 -3 21 -6t31.5 -4.5t35.5 -2.5t33 -1q27 0 51.5 5.5t41.5 22.5q2 -8 5 -16q2 -7 4 -14.5t2 -15.5q0 -9 -2 -13q-2 -6 -17.5 -15t-38 -21t-47.5 -26.5t-46.5 -31
t-36 -34t-14.5 -35.5q0 -20 15 -28.5t32 -8.5q7 0 13 1t13 3q0 27 11.5 45t28 28.5t34.5 14.5t30 4q5 -1 8 -1t5 -1zM106 32q7 3 20.5 8.5t26.5 13.5t23 16.5t10 17.5q0 3 -4 5q-23 -1 -46.5 -16.5t-29.5 -44.5z" />
    <glyph glyph-name="quotesingle" unicode="'" horiz-adv-x="96" 
d="M108 422q2 0 3.5 0.5t3.5 0.5q14 0 19.5 -9.5t5.5 -20.5q0 -24 -11.5 -43.5t-25.5 -33t-26.5 -20.5t-14.5 -7q2 -1 0 1t-2 5q1 2 9.5 8t19.5 21q13 17 16.5 32t3.5 26q0 8 -1 19t-3 21h3z" />
    <glyph glyph-name="aacute" unicode="&#xe1;" horiz-adv-x="264" 
d="M274 116q5 -3 5 -4q0 -4 -6.5 -25t-18.5 -45t-29.5 -43.5t-39.5 -19.5q-15 0 -30.5 12.5t-22.5 43.5q-4 -5 -9.5 -11.5t-14 -12t-20 -9.5t-28.5 -4q-23 0 -37.5 11t-22.5 27t-11 32.5t-3 28.5q0 28 11 58.5t30.5 55.5t46 41t58.5 16q22 0 34.5 -6.5t23.5 -13.5
q2 3 2.5 6.5t1.5 5.5q1 0 9 -4.5t17 -12t16 -16t7 -17.5q0 -8 -3 -15.5t-7 -15.5h-1q-8 -15 -17.5 -32.5t-17.5 -35.5t-13.5 -37t-5.5 -37q0 -33 14 -33t36 27.5t40 83.5q0 1 2 1h4zM130 54q0 34 11 70t22 62q-9 10 -19 16.5t-22 6.5q-17 0 -34.5 -11t-32.5 -28.5
t-24.5 -39.5t-9.5 -44q0 -11 1.5 -22t7 -21t15 -16t26.5 -6t32 9t27 24zM242 389q1 0 4.5 -4t7.5 -9t7 -11.5t3 -10.5q0 -13 -10 -21.5t-23.5 -14t-28.5 -8t-25 -2.5q-16 0 -30.5 3t-26 6.5t-18.5 7t-7 5.5l2 4q0 1 0.5 1t0.5 1l1 1q3 -1 17 -4.5t31 -3.5q18 0 31 4t22 10
t14.5 11.5l8.5 8.5q3 4 9.5 12.5t9.5 13.5z" />
    <glyph glyph-name="acircumflex" unicode="&#xe2;" horiz-adv-x="264" 
d="M274 116q5 -3 5 -4q0 -4 -6.5 -25t-18.5 -45t-29.5 -43.5t-39.5 -19.5q-15 0 -30.5 12.5t-22.5 43.5q-4 -5 -9.5 -11.5t-14 -12t-20 -9.5t-28.5 -4q-23 0 -37.5 11t-22.5 27t-11 32.5t-3 28.5q0 28 11 58.5t30.5 55.5t46 41t58.5 16q22 0 34.5 -6.5t23.5 -13.5
q2 3 2.5 6.5t1.5 5.5q1 0 9 -4.5t17 -12t16 -16t7 -17.5q0 -8 -3 -15.5t-7 -15.5h-1q-8 -15 -17.5 -32.5t-17.5 -35.5t-13.5 -37t-5.5 -37q0 -33 14 -33t36 27.5t40 83.5q0 1 2 1h4zM130 54q0 34 11 70t22 62q-9 10 -19 16.5t-22 6.5q-17 0 -34.5 -11t-32.5 -28.5
t-24.5 -39.5t-9.5 -44q0 -11 1.5 -22t7 -21t15 -16t26.5 -6t32 9t27 24zM288 310q0 -2 1.5 -3t1.5 -2q0 -2 -5.5 -4t-24.5 -2q-18 0 -41 8t-38 31q-11 -8 -23 -11t-24 -3q-13 0 -24.5 3t-20.5 7t-14.5 7.5t-5.5 5.5l4 6q2 -1 15 -4.5t30 -3.5t28.5 5t19 11t12 11t9.5 5
q11 0 14.5 -6t6.5 -14.5t8 -18t20 -15.5q17 -8 32 -9.5t19 -2.5v-1z" />
    <glyph glyph-name="atilde" unicode="&#xe3;" horiz-adv-x="264" 
d="M274 116q5 -3 5 -4q0 -4 -6.5 -25t-18.5 -45t-29.5 -43.5t-39.5 -19.5q-15 0 -30.5 12.5t-22.5 43.5q-4 -5 -9.5 -11.5t-14 -12t-20 -9.5t-28.5 -4q-23 0 -37.5 11t-22.5 27t-11 32.5t-3 28.5q0 28 11 58.5t30.5 55.5t46 41t58.5 16q22 0 34.5 -6.5t23.5 -13.5
q2 3 2.5 6.5t1.5 5.5q1 0 9 -4.5t17 -12t16 -16t7 -17.5q0 -8 -3 -15.5t-7 -15.5h-1q-8 -15 -17.5 -32.5t-17.5 -35.5t-13.5 -37t-5.5 -37q0 -33 14 -33t36 27.5t40 83.5q0 1 2 1h4zM130 54q0 34 11 70t22 62q-9 10 -19 16.5t-22 6.5q-17 0 -34.5 -11t-32.5 -28.5
t-24.5 -39.5t-9.5 -44q0 -11 1.5 -22t7 -21t15 -16t26.5 -6t32 9t27 24zM151 342q-11 3 -19.5 6.5t-18.5 3.5q-13 0 -16 -7t-3 -10t0.5 -5t0.5 -3q-1 0 -1 -1.5t-4 -1.5q-2 1 -3 3q-2 4 -2 9q0 14 9 22t20 8q24 0 49.5 -6t41.5 -6q13 0 23.5 4t12.5 27q3 0 8.5 -0.5t11 -3
t9.5 -6.5t4 -12q0 -11 -11.5 -26t-40.5 -15q-19 0 -38 7.5t-33 12.5z" />
    <glyph glyph-name="adieresis" unicode="&#xe4;" horiz-adv-x="264" 
d="M274 116q5 -3 5 -4q0 -4 -6.5 -25t-18.5 -45t-29.5 -43.5t-39.5 -19.5q-15 0 -30.5 12.5t-22.5 43.5q-4 -5 -9.5 -11.5t-14 -12t-20 -9.5t-28.5 -4q-23 0 -37.5 11t-22.5 27t-11 32.5t-3 28.5q0 28 11 58.5t30.5 55.5t46 41t58.5 16q22 0 34.5 -6.5t23.5 -13.5
q2 3 2.5 6.5t1.5 5.5q1 0 9 -4.5t17 -12t16 -16t7 -17.5q0 -8 -3 -15.5t-7 -15.5h-1q-8 -15 -17.5 -32.5t-17.5 -35.5t-13.5 -37t-5.5 -37q0 -33 14 -33t36 27.5t40 83.5q0 1 2 1h4zM130 54q0 34 11 70t22 62q-9 10 -19 16.5t-22 6.5q-17 0 -34.5 -11t-32.5 -28.5
t-24.5 -39.5t-9.5 -44q0 -11 1.5 -22t7 -21t15 -16t26.5 -6t32 9t27 24zM200 369q1 -1 7 -1t12.5 -1.5t12 -4.5t5.5 -9q0 -5 -7.5 -13.5t-7.5 -33.5q0 -6 1 -9h-6q-6 0 -14.5 3t-8.5 17q0 3 1 5.5t2.5 7t3 11.5t1.5 19q0 5 -2 9zM130 369q1 -1 7 -1t13 -1t12 -4.5t5 -10.5
q0 -5 -1 -7q-4 -6 -7 -13q-7 -14 -7 -27q0 -6 1 -8h-6q-6 0 -14.5 3t-8.5 16q0 4 1 6t2.5 5.5t3 10.5t1.5 21q0 6 -2 10z" />
    <glyph glyph-name="grave" unicode="`" horiz-adv-x="233" 
d="M48 389q3 -5 9.5 -13.5t9.5 -12.5l8.5 -8.5t14.5 -11.5t22 -10t31 -4q17 0 31 3.5t17 4.5h1v-1q0 -2 1 -2q2 -5 2 -3.5t0 -0.5t-7 -5.5t-18.5 -7t-26 -6.5t-30.5 -3q-11 0 -25.5 3t-28 9t-23 16t-9.5 24q0 5 3 9.5t7 9.5t11 10z" />
    <glyph glyph-name="agrave" unicode="&#xe0;" horiz-adv-x="264" 
d="M274 116q5 -3 5 -4q0 -4 -6.5 -25t-18.5 -45t-29.5 -43.5t-39.5 -19.5q-15 0 -30.5 12.5t-22.5 43.5q-4 -5 -9.5 -11.5t-14 -12t-20 -9.5t-28.5 -4q-23 0 -37.5 11t-22.5 27t-11 32.5t-3 28.5q0 28 11 58.5t30.5 55.5t46 41t58.5 16q22 0 34.5 -6.5t23.5 -13.5
q2 3 2.5 6.5t1.5 5.5q1 0 9 -4.5t17 -12t16 -16t7 -17.5q0 -8 -3 -15.5t-7 -15.5h-1q-8 -15 -17.5 -32.5t-17.5 -35.5t-13.5 -37t-5.5 -37q0 -33 14 -33t36 27.5t40 83.5q0 1 2 1h4zM130 54q0 34 11 70t22 62q-9 10 -19 16.5t-22 6.5q-17 0 -34.5 -11t-32.5 -28.5
t-24.5 -39.5t-9.5 -44q0 -11 1.5 -22t7 -21t15 -16t26.5 -6t32 9t27 24zM116 389q3 -5 9.5 -13.5t9.5 -12.5l8.5 -8.5t14.5 -11.5t22 -10t31 -4q17 0 31 3.5t17 4.5h1v-1q0 -2 1 -2q2 -5 2 -3.5t0 -0.5t-7 -5.5t-18.5 -7t-26 -6.5t-30.5 -3q-11 0 -25.5 3t-28 9t-23 16
t-9.5 24q0 5 3 9.5t7 9.5t11 10z" />
    <glyph glyph-name="egrave" unicode="&#xe8;" horiz-adv-x="213" 
d="M219 90q2 -2 2 -4q-15 -28 -35 -49q-17 -18 -43.5 -33t-61.5 -15q-26 0 -44 11t-29 27.5t-15.5 35.5t-4.5 34q0 34 11 65.5t30 56.5t43 40t50 15q32 0 49.5 -18t17.5 -39t-9 -40t-24.5 -33.5t-36.5 -23t-44 -8.5q-16 0 -27 3.5t-16 8.5q-6 -18 -6 -36q0 -28 17.5 -50.5
t46.5 -22.5q22 0 44.5 12t35.5 21q15 11 23.5 19t12.5 13.5t5.5 8t3.5 2.5t4 -1zM61 183q-14 -20 -25 -44q3 -1 13 -1q15 0 29 7t24.5 17t17 21.5t6.5 19.5q0 13 -14 13q-10 0 -23.5 -7.5t-27.5 -25.5zM80 389q3 -5 9.5 -13.5t9.5 -12.5l8.5 -8.5t14.5 -11.5t22 -10t31 -4
q17 0 31 3.5t17 4.5h1v-1q0 -2 1 -2q2 -5 2 -3.5t0 -0.5t-7 -5.5t-18.5 -7t-26 -6.5t-30.5 -3q-11 0 -25.5 3t-28 9t-23 16t-9.5 24q0 5 3 9.5t7 9.5t11 10z" />
    <glyph glyph-name="eacute" unicode="&#xe9;" horiz-adv-x="213" 
d="M219 90q2 -2 2 -4q-15 -28 -35 -49q-17 -18 -43.5 -33t-61.5 -15q-26 0 -44 11t-29 27.5t-15.5 35.5t-4.5 34q0 34 11 65.5t30 56.5t43 40t50 15q32 0 49.5 -18t17.5 -39t-9 -40t-24.5 -33.5t-36.5 -23t-44 -8.5q-16 0 -27 3.5t-16 8.5q-6 -18 -6 -36q0 -28 17.5 -50.5
t46.5 -22.5q22 0 44.5 12t35.5 21q15 11 23.5 19t12.5 13.5t5.5 8t3.5 2.5t4 -1zM61 183q-14 -20 -25 -44q3 -1 13 -1q15 0 29 7t24.5 17t17 21.5t6.5 19.5q0 13 -14 13q-10 0 -23.5 -7.5t-27.5 -25.5zM206 389q1 0 4.5 -4t7.5 -9t7 -11.5t3 -10.5q0 -13 -10 -21.5
t-23.5 -14t-28.5 -8t-25 -2.5q-16 0 -30.5 3t-26 6.5t-18.5 7t-7 5.5l2 4q0 1 0.5 1t0.5 1l1 1q3 -1 17 -4.5t31 -3.5q18 0 31 4t22 10t14.5 11.5l8.5 8.5q3 4 9.5 12.5t9.5 13.5z" />
    <glyph glyph-name="ecircumflex" unicode="&#xea;" horiz-adv-x="213" 
d="M219 90q2 -2 2 -4q-15 -28 -35 -49q-17 -18 -43.5 -33t-61.5 -15q-26 0 -44 11t-29 27.5t-15.5 35.5t-4.5 34q0 34 11 65.5t30 56.5t43 40t50 15q32 0 49.5 -18t17.5 -39t-9 -40t-24.5 -33.5t-36.5 -23t-44 -8.5q-16 0 -27 3.5t-16 8.5q-6 -18 -6 -36q0 -28 17.5 -50.5
t46.5 -22.5q22 0 44.5 12t35.5 21q15 11 23.5 19t12.5 13.5t5.5 8t3.5 2.5t4 -1zM61 183q-14 -20 -25 -44q3 -1 13 -1q15 0 29 7t24.5 17t17 21.5t6.5 19.5q0 13 -14 13q-10 0 -23.5 -7.5t-27.5 -25.5zM253 302q0 -2 1.5 -3t1.5 -2q0 -2 -5.5 -4t-24.5 -2q-18 0 -41 8
t-38 31q-11 -8 -23 -11t-24 -3q-13 0 -24.5 3t-20.5 7t-14.5 7.5t-5.5 5.5l4 6q2 -1 15 -4.5t30 -3.5t28.5 5t19 11t12 11t9.5 5q11 0 14.5 -6t6.5 -14.5t8 -18t20 -15.5q17 -8 32 -9.5t19 -2.5v-1z" />
    <glyph glyph-name="edieresis" unicode="&#xeb;" horiz-adv-x="213" 
d="M219 90q2 -2 2 -4q-15 -28 -35 -49q-17 -18 -43.5 -33t-61.5 -15q-26 0 -44 11t-29 27.5t-15.5 35.5t-4.5 34q0 34 11 65.5t30 56.5t43 40t50 15q32 0 49.5 -18t17.5 -39t-9 -40t-24.5 -33.5t-36.5 -23t-44 -8.5q-16 0 -27 3.5t-16 8.5q-6 -18 -6 -36q0 -28 17.5 -50.5
t46.5 -22.5q22 0 44.5 12t35.5 21q15 11 23.5 19t12.5 13.5t5.5 8t3.5 2.5t4 -1zM61 183q-14 -20 -25 -44q3 -1 13 -1q15 0 29 7t24.5 17t17 21.5t6.5 19.5q0 13 -14 13q-10 0 -23.5 -7.5t-27.5 -25.5zM163 369q1 -1 7 -1t12.5 -1.5t12 -4.5t5.5 -9q0 -5 -7.5 -13.5
t-7.5 -33.5q0 -6 1 -9h-6q-6 0 -14.5 3t-8.5 17q0 3 1 5.5t2.5 7t3 11.5t1.5 19q0 5 -2 9zM93 369q1 -1 7 -1t13 -1t12 -4.5t5 -10.5q0 -5 -1 -7q-4 -6 -7 -13q-7 -14 -7 -27q0 -6 1 -8h-6q-6 0 -14.5 3t-8.5 16q0 4 1 6t2.5 5.5t3 10.5t1.5 21q0 6 -2 10z" />
    <glyph glyph-name="igrave" unicode="&#xec;" horiz-adv-x="123" 
d="M-3 18q9 -12 20 -16t21 -4q31 0 51.5 18t32.5 39.5t16.5 39t4.5 16.5l-2 2q-3 3 -7 3l-2 -1q-20 -46 -45 -66.5t-42 -20.5q-11 0 -14 7t-3 18q0 32 17.5 68t34.5 68h1q10 15 10 26q0 15 -8 24.5t-17 15.5t-16.5 9t-6.5 5q-2 -10 -11.5 -31t-20.5 -48t-20 -58t-9 -61
q0 -34 15 -53zM16 389q3 -5 9.5 -13.5t9.5 -12.5l8.5 -8.5t14.5 -11.5t22 -10t31 -4q17 0 31 3.5t17 4.5h1v-1q0 -2 1 -2q2 -5 2 -3.5t0 -0.5t-7 -5.5t-18.5 -7t-26 -6.5t-30.5 -3q-11 0 -25.5 3t-28 9t-23 16t-9.5 24q0 5 3 9.5t7 9.5t11 10z" />
    <glyph glyph-name="iacute" unicode="&#xed;" horiz-adv-x="123" 
d="M-3 18q-15 19 -15 53q0 30 9 61t20 58t20.5 48t11.5 31q-1 -2 6.5 -5t16.5 -9t17 -15.5t8 -24.5q0 -11 -10 -26h-1q-17 -32 -34.5 -68t-17.5 -68q0 -11 3 -18t14 -7q17 0 42 20.5t45 66.5l2 1q4 0 7 -3l2 -2q0 1 -4.5 -16.5t-16.5 -39t-32.5 -39.5t-51.5 -18q-10 0 -21 4
t-20 16zM141 389q1 0 4.5 -4t7.5 -9t7 -11.5t3 -10.5q0 -13 -10 -21.5t-23.5 -14t-28.5 -8t-25 -2.5q-16 0 -30.5 3t-26 6.5t-18.5 7t-7 5.5l2 4q0 1 0.5 1t0.5 1l1 1q3 -1 17 -4.5t31 -3.5q18 0 31 4t22 10t14.5 11.5l8.5 8.5q3 4 9.5 12.5t9.5 13.5z" />
    <glyph glyph-name="icircumflex" unicode="&#xee;" horiz-adv-x="123" 
d="M-3 18q-15 19 -15 53q0 30 9 61t20 58t20.5 48t11.5 31q-1 -2 6.5 -5t16.5 -9t17 -15.5t8 -24.5q0 -11 -10 -26h-1q-17 -32 -34.5 -68t-17.5 -68q0 -11 3 -18t14 -7q17 0 42 20.5t45 66.5l2 1q4 0 7 -3l2 -2q0 1 -4.5 -16.5t-16.5 -39t-32.5 -39.5t-51.5 -18q-10 0 -21 4
t-20 16zM187 293q0 -2 1.5 -3t1.5 -2q0 -2 -5.5 -4t-24.5 -2q-18 0 -41 8t-38 31q-11 -8 -23 -11t-24 -3q-13 0 -24.5 3t-20.5 7t-14.5 7.5t-5.5 5.5l4 6q2 -1 15 -4.5t30 -3.5t28.5 5t19 11t12 11t9.5 5q11 0 14.5 -6t6.5 -14.5t8 -18t20 -15.5q17 -8 32 -9.5t19 -2.5v-1z
" />
    <glyph glyph-name="idieresis" unicode="&#xef;" horiz-adv-x="123" 
d="M-3 18q-15 19 -15 53q0 30 9 61t20 58t20.5 48t11.5 31q-1 -2 6.5 -5t16.5 -9t17 -15.5t8 -24.5q0 -11 -10 -26h-1q-17 -32 -34.5 -68t-17.5 -68q0 -11 3 -18t14 -7q17 0 42 20.5t45 66.5l2 1q4 0 7 -3l2 -2q0 1 -4.5 -16.5t-16.5 -39t-32.5 -39.5t-51.5 -18q-10 0 -21 4
t-20 16zM98 369q1 -1 7 -1t12.5 -1.5t12 -4.5t5.5 -9q0 -5 -7.5 -13.5t-7.5 -33.5q0 -6 1 -9h-6q-6 0 -14.5 3t-8.5 17q0 3 1 5.5t2.5 7t3 11.5t1.5 19q0 5 -2 9zM28 369q1 -1 7 -1t13 -1t12 -4.5t5 -10.5q0 -5 -1 -7q-4 -6 -7 -13q-7 -14 -7 -27q0 -6 1 -8h-6q-6 0 -14.5 3
t-8.5 16q0 4 1 6t2.5 5.5t3 10.5t1.5 21q0 6 -2 10z" />
    <glyph glyph-name="ntilde" unicode="&#xf1;" horiz-adv-x="244" 
d="M130 34q-14 20 -14 53q0 27 6 48.5t16 48.5q-9 -17 -22.5 -41.5t-26.5 -50t-23.5 -48t-13.5 -33.5l-2.5 -6.5t-7.5 -13.5t-11.5 -13t-14.5 -6q-24 0 -32 18.5t-8 48.5q0 33 8 65t18 58t19 43.5t11 21.5q6 12 12 28.5t8 23.5q3 0 11 -5t15.5 -12.5t13.5 -16.5t6 -17
q0 -17 -12 -38t-26.5 -45.5t-26.5 -51.5t-12 -57q0 -8 1 -12q33 63 57.5 104.5t42.5 67t30 40t19.5 24t11.5 17t7 21.5q1 0 8.5 -4.5t15.5 -12t15 -16t7 -17.5q0 -3 -1.5 -11t-5.5 -12q-8 -17 -19.5 -35.5t-22 -38.5t-18 -40.5t-7.5 -40.5q0 -11 2.5 -18.5t11.5 -7.5
q13 0 34.5 20.5t41.5 66.5l2 1q3 0 6 -3l2 -2q0 -2 -6.5 -19.5t-18.5 -38.5t-29.5 -38t-39.5 -17q-9 0 -19 4t-19 16zM110 342q-11 3 -19.5 6.5t-18.5 3.5q-13 0 -16 -7t-3 -10t0.5 -5t0.5 -3q-1 0 -1 -1.5t-4 -1.5q-2 1 -3 3q-2 4 -2 9q0 14 9 22t20 8q24 0 49.5 -6
t41.5 -6q13 0 23.5 4t12.5 27q3 0 8.5 -0.5t11 -3t9.5 -6.5t4 -12q0 -11 -11.5 -26t-40.5 -15q-19 0 -38 7.5t-33 12.5z" />
    <glyph glyph-name="ograve" unicode="&#xf2;" 
d="M204 196q1 -5 1 -9.5v-9.5q0 -36 -15.5 -68.5t-31.5 -52.5q4 -2 12 -2q9 0 17 3.5t15 8t12 8t8 3.5t3 -5q0 -4 -3.5 -11.5t-11 -15t-21 -13t-32.5 -5.5q-12 0 -25 5q-5 -7 -23.5 -20.5t-43.5 -13.5q-21 0 -35.5 9t-23.5 23t-13.5 30t-4.5 31q0 39 13 69.5t29.5 52.5
t32.5 34.5t22 14.5q2 0 5.5 -2.5t11.5 -15.5q8 6 18 11t26 5t27 -7.5t17.5 -17.5t10 -21t3.5 -18zM68 23q5 0 15 4t24 17q-26 16 -34.5 44t-8.5 55q0 6 0.5 12.5t1.5 12.5q-17 -18 -28.5 -41t-11.5 -50t11 -39.5t31 -14.5zM153 126q2 6 3 13t1 14q0 15 -1 28t-7 15
q-8 0 -15 -8t-12.5 -19.5t-9 -25t-3.5 -25.5q0 -11 4 -28t16 -21q8 11 14 25t10 32zM69 389q3 -5 9.5 -13.5t9.5 -12.5l8.5 -8.5t14.5 -11.5t22 -10t31 -4q17 0 31 3.5t17 4.5h1v-1q0 -2 1 -2q2 -5 2 -3.5t0 -0.5t-7 -5.5t-18.5 -7t-26 -6.5t-30.5 -3q-11 0 -25.5 3t-28 9
t-23 16t-9.5 24q0 5 3 9.5t7 9.5t11 10z" />
    <glyph glyph-name="oacute" unicode="&#xf3;" 
d="M204 196q1 -5 1 -9.5v-9.5q0 -36 -15.5 -68.5t-31.5 -52.5q4 -2 12 -2q9 0 17 3.5t15 8t12 8t8 3.5t3 -5q0 -4 -3.5 -11.5t-11 -15t-21 -13t-32.5 -5.5q-12 0 -25 5q-5 -7 -23.5 -20.5t-43.5 -13.5q-21 0 -35.5 9t-23.5 23t-13.5 30t-4.5 31q0 39 13 69.5t29.5 52.5
t32.5 34.5t22 14.5q2 0 5.5 -2.5t11.5 -15.5q8 6 18 11t26 5t27 -7.5t17.5 -17.5t10 -21t3.5 -18zM68 23q5 0 15 4t24 17q-26 16 -34.5 44t-8.5 55q0 6 0.5 12.5t1.5 12.5q-17 -18 -28.5 -41t-11.5 -50t11 -39.5t31 -14.5zM153 126q2 6 3 13t1 14q0 15 -1 28t-7 15
q-8 0 -15 -8t-12.5 -19.5t-9 -25t-3.5 -25.5q0 -11 4 -28t16 -21q8 11 14 25t10 32zM195 389q1 0 4.5 -4t7.5 -9t7 -11.5t3 -10.5q0 -13 -10 -21.5t-23.5 -14t-28.5 -8t-25 -2.5q-16 0 -30.5 3t-26 6.5t-18.5 7t-7 5.5l2 4q0 1 0.5 1t0.5 1l1 1q3 -1 17 -4.5t31 -3.5
q18 0 31 4t22 10t14.5 11.5l8.5 8.5q3 4 9.5 12.5t9.5 13.5z" />
    <glyph glyph-name="ocircumflex" unicode="&#xf4;" 
d="M204 196q1 -5 1 -9.5v-9.5q0 -36 -15.5 -68.5t-31.5 -52.5q4 -2 12 -2q9 0 17 3.5t15 8t12 8t8 3.5t3 -5q0 -4 -3.5 -11.5t-11 -15t-21 -13t-32.5 -5.5q-12 0 -25 5q-5 -7 -23.5 -20.5t-43.5 -13.5q-21 0 -35.5 9t-23.5 23t-13.5 30t-4.5 31q0 39 13 69.5t29.5 52.5
t32.5 34.5t22 14.5q2 0 5.5 -2.5t11.5 -15.5q8 6 18 11t26 5t27 -7.5t17.5 -17.5t10 -21t3.5 -18zM68 23q5 0 15 4t24 17q-26 16 -34.5 44t-8.5 55q0 6 0.5 12.5t1.5 12.5q-17 -18 -28.5 -41t-11.5 -50t11 -39.5t31 -14.5zM153 126q2 6 3 13t1 14q0 15 -1 28t-7 15
q-8 0 -15 -8t-12.5 -19.5t-9 -25t-3.5 -25.5q0 -11 4 -28t16 -21q8 11 14 25t10 32zM243 305q0 -2 1.5 -3t1.5 -2q0 -2 -5.5 -4t-24.5 -2q-18 0 -41 8t-38 31q-11 -8 -23 -11t-24 -3q-13 0 -24.5 3t-20.5 7t-14.5 7.5t-5.5 5.5l4 6q2 -1 15 -4.5t30 -3.5t28.5 5t19 11t12 11
t9.5 5q11 0 14.5 -6t6.5 -14.5t8 -18t20 -15.5q17 -8 32 -9.5t19 -2.5v-1z" />
    <glyph glyph-name="otilde" unicode="&#xf5;" 
d="M204 196q1 -5 1 -9.5v-9.5q0 -36 -15.5 -68.5t-31.5 -52.5q4 -2 12 -2q9 0 17 3.5t15 8t12 8t8 3.5t3 -5q0 -4 -3.5 -11.5t-11 -15t-21 -13t-32.5 -5.5q-12 0 -25 5q-5 -7 -23.5 -20.5t-43.5 -13.5q-21 0 -35.5 9t-23.5 23t-13.5 30t-4.5 31q0 39 13 69.5t29.5 52.5
t32.5 34.5t22 14.5q2 0 5.5 -2.5t11.5 -15.5q8 6 18 11t26 5t27 -7.5t17.5 -17.5t10 -21t3.5 -18zM68 23q5 0 15 4t24 17q-26 16 -34.5 44t-8.5 55q0 6 0.5 12.5t1.5 12.5q-17 -18 -28.5 -41t-11.5 -50t11 -39.5t31 -14.5zM153 126q2 6 3 13t1 14q0 15 -1 28t-7 15
q-8 0 -15 -8t-12.5 -19.5t-9 -25t-3.5 -25.5q0 -11 4 -28t16 -21q8 11 14 25t10 32zM103 342q-11 3 -19.5 6.5t-18.5 3.5q-13 0 -16 -7t-3 -10t0.5 -5t0.5 -3q-1 0 -1 -1.5t-4 -1.5q-2 1 -3 3q-2 4 -2 9q0 14 9 22t20 8q24 0 49.5 -6t41.5 -6q13 0 23.5 4t12.5 27
q3 0 8.5 -0.5t11 -3t9.5 -6.5t4 -12q0 -11 -11.5 -26t-40.5 -15q-19 0 -38 7.5t-33 12.5z" />
    <glyph glyph-name="odieresis" unicode="&#xf6;" 
d="M204 196q1 -5 1 -9.5v-9.5q0 -36 -15.5 -68.5t-31.5 -52.5q4 -2 12 -2q9 0 17 3.5t15 8t12 8t8 3.5t3 -5q0 -4 -3.5 -11.5t-11 -15t-21 -13t-32.5 -5.5q-12 0 -25 5q-5 -7 -23.5 -20.5t-43.5 -13.5q-21 0 -35.5 9t-23.5 23t-13.5 30t-4.5 31q0 39 13 69.5t29.5 52.5
t32.5 34.5t22 14.5q2 0 5.5 -2.5t11.5 -15.5q8 6 18 11t26 5t27 -7.5t17.5 -17.5t10 -21t3.5 -18zM68 23q5 0 15 4t24 17q-26 16 -34.5 44t-8.5 55q0 6 0.5 12.5t1.5 12.5q-17 -18 -28.5 -41t-11.5 -50t11 -39.5t31 -14.5zM153 126q2 6 3 13t1 14q0 15 -1 28t-7 15
q-8 0 -15 -8t-12.5 -19.5t-9 -25t-3.5 -25.5q0 -11 4 -28t16 -21q8 11 14 25t10 32zM152 369q1 -1 7 -1t12.5 -1.5t12 -4.5t5.5 -9q0 -5 -7.5 -13.5t-7.5 -33.5q0 -6 1 -9h-6q-6 0 -14.5 3t-8.5 17q0 3 1 5.5t2.5 7t3 11.5t1.5 19q0 5 -2 9zM82 369q1 -1 7 -1t13 -1t12 -4.5
t5 -10.5q0 -5 -1 -7q-4 -6 -7 -13q-7 -14 -7 -27q0 -6 1 -8h-6q-6 0 -14.5 3t-8.5 16q0 4 1 6t2.5 5.5t3 10.5t1.5 21q0 6 -2 10z" />
    <glyph glyph-name="ugrave" unicode="&#xf9;" horiz-adv-x="247" 
d="M262 116q5 -3 5 -4q0 -4 -6.5 -25t-18.5 -45t-29.5 -43.5t-39.5 -19.5q-20 0 -37.5 21.5t-17.5 56.5q-6 -10 -14 -20.5t-18 -19t-22 -14t-25 -5.5q-19 0 -35.5 19t-16.5 55q0 24 6.5 51t15.5 51.5t18 44t14 30.5h-1q6 10 11 20q5 8 8.5 16.5t5.5 14.5q1 0 8.5 -4.5
t15.5 -12t15 -16.5t7 -18q0 -11 -12 -34t-27 -50.5t-27 -57t-12 -54.5q0 -12 3.5 -20t15.5 -8q14 0 33.5 16.5t36.5 56.5q7 35 19.5 66t19.5 45q5 10 9 20q4 8 7 16.5t5 14.5q1 0 9 -4.5t17 -12t16 -16.5t7 -18q0 -12 -10 -31.5t-22.5 -43t-22.5 -49t-10 -48.5q0 -33 14 -33
t36 27.5t40 83.5q0 1 2 1h4zM99 389q3 -5 9.5 -13.5t9.5 -12.5l8.5 -8.5t14.5 -11.5t22 -10t31 -4q17 0 31 3.5t17 4.5h1v-1q0 -2 1 -2q2 -5 2 -3.5t0 -0.5t-7 -5.5t-18.5 -7t-26 -6.5t-30.5 -3q-11 0 -25.5 3t-28 9t-23 16t-9.5 24q0 5 3 9.5t7 9.5t11 10z" />
    <glyph glyph-name="uacute" unicode="&#xfa;" horiz-adv-x="247" 
d="M262 116q5 -3 5 -4q0 -4 -6.5 -25t-18.5 -45t-29.5 -43.5t-39.5 -19.5q-20 0 -37.5 21.5t-17.5 56.5q-6 -10 -14 -20.5t-18 -19t-22 -14t-25 -5.5q-19 0 -35.5 19t-16.5 55q0 24 6.5 51t15.5 51.5t18 44t14 30.5h-1q6 10 11 20q5 8 8.5 16.5t5.5 14.5q1 0 8.5 -4.5
t15.5 -12t15 -16.5t7 -18q0 -11 -12 -34t-27 -50.5t-27 -57t-12 -54.5q0 -12 3.5 -20t15.5 -8q14 0 33.5 16.5t36.5 56.5q7 35 19.5 66t19.5 45q5 10 9 20q4 8 7 16.5t5 14.5q1 0 9 -4.5t17 -12t16 -16.5t7 -18q0 -12 -10 -31.5t-22.5 -43t-22.5 -49t-10 -48.5q0 -33 14 -33
t36 27.5t40 83.5q0 1 2 1h4zM228 389q1 0 4.5 -4t7.5 -9t7 -11.5t3 -10.5q0 -13 -10 -21.5t-23.5 -14t-28.5 -8t-25 -2.5q-16 0 -30.5 3t-26 6.5t-18.5 7t-7 5.5l2 4q0 1 0.5 1t0.5 1l1 1q3 -1 17 -4.5t31 -3.5q18 0 31 4t22 10t14.5 11.5l8.5 8.5q3 4 9.5 12.5t9.5 13.5z
" />
    <glyph glyph-name="ucircumflex" unicode="&#xfb;" horiz-adv-x="247" 
d="M262 116q5 -3 5 -4q0 -4 -6.5 -25t-18.5 -45t-29.5 -43.5t-39.5 -19.5q-20 0 -37.5 21.5t-17.5 56.5q-6 -10 -14 -20.5t-18 -19t-22 -14t-25 -5.5q-19 0 -35.5 19t-16.5 55q0 24 6.5 51t15.5 51.5t18 44t14 30.5h-1q6 10 11 20q5 8 8.5 16.5t5.5 14.5q1 0 8.5 -4.5
t15.5 -12t15 -16.5t7 -18q0 -11 -12 -34t-27 -50.5t-27 -57t-12 -54.5q0 -12 3.5 -20t15.5 -8q14 0 33.5 16.5t36.5 56.5q7 35 19.5 66t19.5 45q5 10 9 20q4 8 7 16.5t5 14.5q1 0 9 -4.5t17 -12t16 -16.5t7 -18q0 -12 -10 -31.5t-22.5 -43t-22.5 -49t-10 -48.5q0 -33 14 -33
t36 27.5t40 83.5q0 1 2 1h4zM270 293q0 -2 1.5 -3t1.5 -2q0 -2 -5.5 -4t-24.5 -2q-18 0 -41 8t-38 31q-11 -8 -23 -11t-24 -3q-13 0 -24.5 3t-20.5 7t-14.5 7.5t-5.5 5.5l4 6q2 -1 15 -4.5t30 -3.5t28.5 5t19 11t12 11t9.5 5q11 0 14.5 -6t6.5 -14.5t8 -18t20 -15.5
q17 -8 32 -9.5t19 -2.5v-1z" />
    <glyph glyph-name="udieresis" unicode="&#xfc;" horiz-adv-x="247" 
d="M262 116q5 -3 5 -4q0 -4 -6.5 -25t-18.5 -45t-29.5 -43.5t-39.5 -19.5q-20 0 -37.5 21.5t-17.5 56.5q-6 -10 -14 -20.5t-18 -19t-22 -14t-25 -5.5q-19 0 -35.5 19t-16.5 55q0 24 6.5 51t15.5 51.5t18 44t14 30.5h-1q6 10 11 20q5 8 8.5 16.5t5.5 14.5q1 0 8.5 -4.5
t15.5 -12t15 -16.5t7 -18q0 -11 -12 -34t-27 -50.5t-27 -57t-12 -54.5q0 -12 3.5 -20t15.5 -8q14 0 33.5 16.5t36.5 56.5q7 35 19.5 66t19.5 45q5 10 9 20q4 8 7 16.5t5 14.5q1 0 9 -4.5t17 -12t16 -16.5t7 -18q0 -12 -10 -31.5t-22.5 -43t-22.5 -49t-10 -48.5q0 -33 14 -33
t36 27.5t40 83.5q0 1 2 1h4zM181 369q1 -1 7 -1t12.5 -1.5t12 -4.5t5.5 -9q0 -5 -7.5 -13.5t-7.5 -33.5q0 -6 1 -9h-6q-6 0 -14.5 3t-8.5 17q0 3 1 5.5t2.5 7t3 11.5t1.5 19q0 5 -2 9zM111 369q1 -1 7 -1t13 -1t12 -4.5t5 -10.5q0 -5 -1 -7q-4 -6 -7 -13q-7 -14 -7 -27
q0 -6 1 -8h-6q-6 0 -14.5 3t-8.5 16q0 4 1 6t2.5 5.5t3 10.5t1.5 21q0 6 -2 10z" />
    <glyph glyph-name="yacute" unicode="&#xfd;" horiz-adv-x="275" 
d="M285 115q4 -3 4 -4v1q-1 0 -5 -18t-15.5 -39t-31.5 -39t-52 -18q-11 0 -21.5 4t-19.5 15q-3 -8 -7 -15t-7 -14q36 -8 66 -13t56 -5q10 0 15 1q0 -20 -12.5 -37.5t-36.5 -17.5q-21 0 -51.5 9t-60.5 18q-20 -35 -43 -48.5t-47 -13.5q-4 0 -14 1t-20.5 6t-19 15.5t-8.5 29.5
t10 31t23.5 18.5t26.5 8.5t19 2q8 0 14.5 -0.5t13.5 -0.5q20 0 24 9t10 24q-11 -11 -25 -19t-30 -8q-18 0 -35 18.5t-17 54.5q0 23 6 49t14.5 50t17.5 44t15 31l22 52q1 0 9 -4.5t16 -11.5t15 -15.5t7 -17.5q0 -11 -11.5 -33.5t-26 -50t-26 -57t-11.5 -53.5q0 -13 3.5 -21.5
t15.5 -8.5q17 0 41 26t44 90q9 30 16 48.5t12 29.5t8 18t4 13q14 -7 29.5 -20t15.5 -33q0 -11 -7 -24q-18 -32 -30.5 -58.5t-12.5 -60.5q0 -12 3 -18.5t14 -6.5q17 0 42.5 20.5t45.5 66.5l2 1q2 0 4 -1zM63 -53q3 1 11 1q3 0 6 -0.5t5 -0.5h5l-25 6q-11 2 -22.5 4.5
t-22.5 3.5q-17 0 -31.5 -7.5t-14.5 -25.5q0 -13 10.5 -19t22.5 -6q13 0 27.5 9.5t28.5 34.5zM230 389q1 0 4.5 -4t7.5 -9t7 -11.5t3 -10.5q0 -13 -10 -21.5t-23.5 -14t-28.5 -8t-25 -2.5q-16 0 -30.5 3t-26 6.5t-18.5 7t-7 5.5l2 4q0 1 0.5 1t0.5 1l1 1q3 -1 17 -4.5
t31 -3.5q18 0 31 4t22 10t14.5 11.5l8.5 8.5q3 4 9.5 12.5t9.5 13.5z" />
    <glyph glyph-name="ydieresis" unicode="&#xff;" horiz-adv-x="275" 
d="M285 115q4 -3 4 -4v1q-1 0 -5 -18t-15.5 -39t-31.5 -39t-52 -18q-11 0 -21.5 4t-19.5 15q-3 -8 -7 -15t-7 -14q36 -8 66 -13t56 -5q10 0 15 1q0 -20 -12.5 -37.5t-36.5 -17.5q-21 0 -51.5 9t-60.5 18q-20 -35 -43 -48.5t-47 -13.5q-4 0 -14 1t-20.5 6t-19 15.5t-8.5 29.5
t10 31t23.5 18.5t26.5 8.5t19 2q8 0 14.5 -0.5t13.5 -0.5q20 0 24 9t10 24q-11 -11 -25 -19t-30 -8q-18 0 -35 18.5t-17 54.5q0 23 6 49t14.5 50t17.5 44t15 31l22 52q1 0 9 -4.5t16 -11.5t15 -15.5t7 -17.5q0 -11 -11.5 -33.5t-26 -50t-26 -57t-11.5 -53.5q0 -13 3.5 -21.5
t15.5 -8.5q17 0 41 26t44 90q9 30 16 48.5t12 29.5t8 18t4 13q14 -7 29.5 -20t15.5 -33q0 -11 -7 -24q-18 -32 -30.5 -58.5t-12.5 -60.5q0 -12 3 -18.5t14 -6.5q17 0 42.5 20.5t45.5 66.5l2 1q2 0 4 -1zM63 -53q3 1 11 1q3 0 6 -0.5t5 -0.5h5l-25 6q-11 2 -22.5 4.5
t-22.5 3.5q-17 0 -31.5 -7.5t-14.5 -25.5q0 -13 10.5 -19t22.5 -6q13 0 27.5 9.5t28.5 34.5zM186 369q1 -1 7 -1t12.5 -1.5t12 -4.5t5.5 -9q0 -5 -7.5 -13.5t-7.5 -33.5q0 -6 1 -9h-6q-6 0 -14.5 3t-8.5 17q0 3 1 5.5t2.5 7t3 11.5t1.5 19q0 5 -2 9zM116 369q1 -1 7 -1
t13 -1t12 -4.5t5 -10.5q0 -5 -1 -7q-4 -6 -7 -13q-7 -14 -7 -27q0 -6 1 -8h-6q-6 0 -14.5 3t-8.5 16q0 4 1 6t2.5 5.5t3 10.5t1.5 21q0 6 -2 10z" />
    <glyph glyph-name="oslash" unicode="&#xf8;" 
d="M204 196q1 -5 1 -9.5v-9.5q0 -36 -15.5 -68.5t-31.5 -52.5q4 -2 12 -2q9 0 17 3.5t15 8t12 8t8 3.5t3 -5q0 -4 -3.5 -11.5t-11 -15t-21 -13t-32.5 -5.5q-12 0 -25 5q-5 -7 -23.5 -20.5t-43.5 -13.5q-21 0 -35.5 9t-23.5 23t-13.5 30t-4.5 31q0 39 13 69.5t29.5 52.5
t32.5 34.5t22 14.5q2 0 5.5 -2.5t11.5 -15.5q8 6 18 11t26 5t27 -7.5t17.5 -17.5t10 -21t3.5 -18zM68 23q5 0 15 4t24 17q-26 16 -34.5 44t-8.5 55q0 6 0.5 12.5t1.5 12.5q-17 -18 -28.5 -41t-11.5 -50t11 -39.5t31 -14.5zM153 126q2 6 3 13t1 14q0 15 -1 28t-7 15
q-8 0 -15 -8t-12.5 -19.5t-9 -25t-3.5 -25.5q0 -11 4 -28t16 -21q8 11 14 25t10 32zM140.805 251.573q-9.01172 -29.5361 -20.5977 -60.3564q-11.5869 -30.8203 -23.1729 -60.3564t-22.5283 -55.8623q-10.9424 -26.3252 -19.6328 -45.9092
q-8.68945 -19.583 -13.5166 -31.1416q-4.82812 -11.5566 -4.18457 -11.5566q-1.28711 0 -2.57422 0.641602q-1.28711 0 -2.57422 1.28418q-0.644531 0.642578 -0.644531 1.28418q1.28809 5.13672 6.75879 26.0049q5.47168 20.8672 12.874 49.4404t16.0918 60.999
t15.7695 61.3193q7.08105 28.8936 12.2305 49.7617t5.79297 26.0049q0.643555 5.7793 1.28711 14.126t0.643555 13.4834q5.79297 -3.20996 14.1611 -4.81543q8.36816 -1.60449 15.4482 -5.13672q7.08008 -3.53125 9.97656 -9.95215q2.89746 -6.4209 -1.6084 -19.2627z" />
    <glyph glyph-name="multiply" unicode="&#xd7;" horiz-adv-x="326" 
d="M213 136q3 -1 2 -4.5t-3 -7.5t-5.5 -6t-6.5 0q-5 1 -12 7.5t-14.5 14.5t-13.5 16.5t-8 14.5l-29 -29t-17.5 -16.5t-8.5 -7.5l-2 -2q-4 0 -4 3q0 4 12 22t41 54q-7 17 -10 35t-6 39q1 1 4.5 6.5t20.5 5.5q16 0 15.5 -15.5t0.5 -37.5q12 15 26.5 30.5t25.5 34.5q5 -4 9 -8
l6 -8t3 -9q0 -9 -6.5 -18.5t-16.5 -18.5t-21 -18.5t-20 -18.5q2 -14 8.5 -31.5t20.5 -22.5z" />
    <glyph glyph-name="comma" unicode="," horiz-adv-x="212" 
d="M108 36q0 -1 1 -2q0 -1 0.5 -2t0.5 -3q0 -3 -4 -16.5t-11 -28.5t-17 -27t-23 -12q-7 0 -10 8q17 17 24 38.5t7 39.5q0 3 -0.5 6t-0.5 6q7 0 14 -1q5 -1 11 -2.5t8 -3.5z" />
    <glyph glyph-name="equal" unicode="=" horiz-adv-x="274" 
d="M65 213q38 0 70 1q27 1 50.5 2.5t26.5 5.5v-9q0 -4 0.5 -8.5t0.5 -9.5q0 -6 -3.5 -10.5t-17.5 -4.5q-15 1 -32 2q-14 1 -31.5 1.5t-34.5 0.5q-20 0 -36.5 -1.5t-22.5 -4.5l-2 6q-1 3 -1 12q0 5 5.5 11t27.5 6zM65 150q38 0 70 1q27 1 50.5 2.5t26.5 5.5v-9q0 -4 0.5 -8.5
t0.5 -9.5q0 -6 -3.5 -10.5t-17.5 -4.5q-15 1 -32 2q-14 1 -31.5 1.5t-34.5 0.5q-20 0 -36.5 -1.5t-22.5 -4.5l-2 6q-1 3 -1 12q0 5 5.5 11t27.5 6z" />
    <glyph glyph-name="questiondown" unicode="&#xbf;" horiz-adv-x="355" 
d="M272.011 351.007q-1 0 -6.99902 0.5q-6 0.5 -12.499 1.5t-11.498 3.99902q-5 3 -5 7.99902q0 5 8.49902 13.499t8.49902 30.4961q0 3.99902 -1 5.99902h5.99902q7 0 14.499 -2.5q7.49902 -2.49902 7.49902 -13.498q0 -6.99902 -5 -12.998
q-4.99902 -5.99902 -4.99902 -27.9971q0 -2.99902 2 -6.99902zM207.019 -68.9414q-19.998 -7 -44.9951 -7q-25.9961 0 -48.9932 8.99902t-39.9951 25.4971t-26.4971 38.4951q-9.49902 21.998 -9.49902 47.9941q0 39.9951 19.998 71.9912q19.9971 31.9961 46.9941 57.4932
q26.9961 25.4971 54.4932 45.4951q27.4971 19.9971 41.4951 36.9951q22.9971 26.9971 31.4961 44.4941q8.49902 17.498 10.998 26.9971q2.5 9.49902 2.5 13.498q0 4 5.99902 4q4 0 5 -2t1 -4q0 -4.99902 -4 -19.4971q-3.99902 -14.498 -13.498 -33.9961
q-9.49902 -19.4971 -24.9971 -41.4951q-15.498 -21.9971 -38.4951 -41.9941q-17.998 -14.998 -35.9961 -32.9961q-17.9971 -17.998 -32.4961 -37.4961q-14.498 -19.4971 -23.4971 -39.9951q-8.99902 -20.4971 -8.99902 -41.4941q0 -39.9951 24.4971 -58.4932
t52.4941 -18.498q27.9961 0 46.4941 10.999t29.4961 26.4971q10.999 15.498 15.498 33.4951q4.5 17.998 4.5 32.9961q0 37.9951 -12.999 60.9932q-12.998 22.9971 -29.9961 36.9951l5.99902 3.5q6 3.49902 14.499 7.49902q8.49902 3.99902 18.4971 6.99902
q9.99902 2.99902 17.998 2.99902q4.99902 0 11.998 -4.49902q7 -4.49902 16.998 -20.4971v-1q4 0 7.49902 -9.99902q3.5 -9.99902 6.5 -23.4971q2.99902 -13.498 4.49902 -26.9971q1.5 -13.498 1.5 -21.4971q0 -23.9971 -5.99902 -48.4941q-6 -24.4971 -18.498 -45.9941
q-12.499 -21.498 -31.9961 -37.9961q-19.498 -16.498 -47.4941 -25.4961z" />
    <glyph glyph-name="M" unicode="M" horiz-adv-x="712" 
d="M715 426q2 -1 11 -4.5t19 -9.5t18 -15.5t8 -21.5q0 -11 -5 -22q-8 -15 -22 -46t-30 -70.5t-32.5 -82.5t-29.5 -82.5t-21.5 -71t-8.5 -47.5q-1 0 -7.5 1.5t-14 6t-13.5 12.5t-6 21q0 18 10 59t29 98q-56 -54 -84.5 -99t-35.5 -65q0 -2 -0.5 -6t-4.5 -4q-3 0 -12 15.5
t-20.5 41t-22.5 58.5t-19 68q-1 2 -1 5q-15 -40 -35 -80t-48 -72.5t-67 -53t-91 -20.5q-75 0 -120 44t-45 134q0 52 17.5 97.5t46 79t64 53t72.5 21.5q40 0 61.5 -12.5t39.5 -30.5l-4 -5t-10 -10t-14 -9.5t-16 -4.5q-6 0 -11 2q-7 5 -18 13t-34 8q-29 0 -62.5 -16.5
t-56.5 -44.5q-30 -32 -39.5 -63.5t-9.5 -69.5q0 -29 6.5 -56t21.5 -48t39 -33.5t59 -12.5q45 0 78 16.5t56.5 42t38.5 57.5t25 63q19 60 43 120t32 126q1 -1 11 -5t21 -11t18.5 -17.5t4.5 -23.5q-2 -7 -2.5 -9.5t-1 -4.5t-1.5 -4.5t-4 -8.5q-13 -28 -18 -63.5t-5 -72.5
q0 -26 4 -52t9.5 -48.5t10.5 -40.5t8 -30q13 38 39 80.5t68 102.5q36 56 58.5 98t34.5 70.5t16.5 44.5t4.5 21z" />
    <glyph glyph-name="uniFB01" unicode="&#xfb01;" horiz-adv-x="268" 
d="M16 -153q-4 -1 -10 -1q-18 0 -28 7t-15 17t-6 21.5t-1 20.5q0 33 8.5 73t20.5 80t25 77t22 64q-19 32 -28.5 46.5t-9.5 17.5q0 2 2 3.5t4 1.5q12 -2 26 -3.5t28 -3.5q13 33 21 54t16 41l7 21q3 9 5.5 18t2.5 15q2 -1 11 -4.5t19 -9.5t18 -14.5t8 -19.5q0 -9 -4.5 -21.5
t-11 -26.5t-14 -29.5t-13.5 -30.5q45 -6 64.5 -8t17.5 -4q-1 -1 -10 -1h-22h-28h-28q-9 -20 -17.5 -40.5t-17.5 -43.5q7 -14 16.5 -31.5t17.5 -37.5t13.5 -43.5t5.5 -50.5q0 -39 -14 -67.5t-32.5 -47t-38 -28.5t-30.5 -11zM27 242q3 -4 6 -7.5t6 -8.5q2 5 3.5 10.5t3.5 10.5
h-14.5t-6.5 -2q0 -1 2 -3zM7 -66q-1 -6 -1.5 -12.5t-0.5 -13.5q0 -9 2.5 -15.5t10.5 -6.5q21 0 36.5 14.5t26 35t15.5 42.5t5 37q0 34 -10.5 65.5t-22.5 57.5q-19 -48 -36 -100.5t-25 -103.5zM184 -2q-29 0 -42.5 22.5t-13.5 50.5q0 30 7.5 58t17 51t18 41t10.5 28
q3 3 14 1.5t21.5 -9t15.5 -20.5t-6 -32q-17 -32 -34.5 -68t-17.5 -68q0 -11 3 -18t14 -7q17 0 42 20.5t45 66.5l2 1q4 0 7 -3l2 -2q0 1 -4.5 -16.5t-16.5 -39t-32.5 -39.5t-51.5 -18zM275 299q-5 -11 -15 -18t-21 -7q-14 0 -20 10t-6 23q0 16 9.5 26t23.5 10t23 -9t9 -22
q0 -7 -3 -13z" />
    <glyph glyph-name="uniFB02" unicode="&#xfb02;" horiz-adv-x="234" 
d="M16 -153q-4 -1 -10 -1q-18 0 -28 7t-15 17t-6 21.5t-1 20.5q0 33 8.5 73t20.5 80t25 77t22 64q-19 32 -28.5 46.5t-9.5 17.5q0 2 2 3.5t4 1.5q12 -2 26 -3.5t28 -3.5q13 33 21 54t16 41l7 21q3 9 5.5 18t2.5 15q2 -1 11 -4.5t19 -9.5t18 -14.5t8 -19.5q0 -9 -4.5 -21.5
t-11 -26.5t-14 -29.5t-13.5 -30.5q18 -2 40.5 -3t42 -2t33 -2.5t13.5 -2.5q0 -3 -16 -3.5t-38 -0.5t-45 0.5t-36 0.5q-9 -20 -17.5 -40.5t-17.5 -43.5q7 -14 16.5 -31.5t17.5 -37.5t13.5 -43.5t5.5 -50.5q0 -39 -14 -67.5t-32.5 -47t-38 -28.5t-30.5 -11zM27 242
q3 -4 6 -7.5t6 -8.5q2 5 3.5 10.5t3.5 10.5q-5 0 -14.5 -0.5t-4.5 -4.5zM7 -66q-1 -6 -1.5 -12.5t-0.5 -13.5q0 -9 2.5 -15.5t10.5 -6.5q21 0 36.5 14.5t26 35t15.5 42.5t5 37q0 34 -10.5 65.5t-22.5 57.5q-19 -48 -36 -100.5t-25 -103.5zM241 469q2 0 11 -4t19.5 -10.5
t18.5 -15.5t8 -19q0 -9 -3.5 -18.5t-7.5 -17.5q-7 -15 -20.5 -44.5t-29.5 -66t-33 -76.5t-30.5 -76.5t-22 -67t-8.5 -47.5q0 -2 0.5 -5t2.5 -3q5 0 25.5 18t52.5 70q8 8 11 8q2 -1 2 -5q0 -9 -12 -31t-28.5 -44.5t-34 -39.5t-28.5 -17q-4 0 -9.5 0.5t-11 4.5t-9.5 12.5
t-4 23.5q0 21 6.5 53t17 69.5t24 78.5t27.5 80t27 74t24 61q3 11 7 22q3 9 5.5 18t2.5 15z" />
    <glyph glyph-name="ring" unicode="&#x2da;" horiz-adv-x="252" 
d="M154 307q-13 -1 -27.5 3t-27.5 21q0 2 0.5 7t3.5 12q4 7 13 8.5t19 -1t19 -7.5t13 -11q1 -1 1 -4q0 -6 -8 -22q-2 -4 -6 -6zM143 321q0 1 1 1.5t1 1.5q3 7 3 10v2q-4 5 -14.5 8t-13.5 -3q-2 -5 -2 -9q5 -8 12 -9.5t13 -1.5z" />
    <glyph glyph-name="aring" unicode="&#xe5;" horiz-adv-x="264" 
d="M274 116q5 -3 5 -4q0 -4 -6.5 -25t-18.5 -45t-29.5 -43.5t-39.5 -19.5q-15 0 -30.5 12.5t-22.5 43.5q-4 -5 -9.5 -11.5t-14 -12t-20 -9.5t-28.5 -4q-23 0 -37.5 11t-22.5 27t-11 32.5t-3 28.5q0 28 11 58.5t30.5 55.5t46 41t58.5 16q22 0 34.5 -6.5t23.5 -13.5
q2 3 2.5 6.5t1.5 5.5q1 0 9 -4.5t17 -12t16 -16t7 -17.5q0 -8 -3 -15.5t-7 -15.5h-1q-8 -15 -17.5 -32.5t-17.5 -35.5t-13.5 -37t-5.5 -37q0 -33 14 -33t36 27.5t40 83.5q0 1 2 1h4zM130 54q0 34 11 70t22 62q-9 10 -19 16.5t-22 6.5q-17 0 -34.5 -11t-32.5 -28.5
t-24.5 -39.5t-9.5 -44q0 -11 1.5 -22t7 -21t15 -16t26.5 -6t32 9t27 24zM214 307q-13 -1 -27.5 3t-27.5 21q0 2 0.5 7t3.5 12q4 7 13 8.5t19 -1t19 -7.5t13 -11q1 -1 1 -4q0 -6 -8 -22q-2 -4 -6 -6zM203 321q0 1 1 1.5t1 1.5q3 7 3 10v2q-4 5 -14.5 8t-13.5 -3q-2 -5 -2 -9
q5 -8 12 -9.5t13 -1.5z" />
    <glyph glyph-name="ccedilla" unicode="&#xe7;" 
d="M231 119q3 -1 3 -4q-5 -22 -22 -44t-40 -39.5t-48.5 -28.5t-47.5 -11q-23 0 -39.5 9.5t-27.5 24t-16.5 32.5t-5.5 35q0 62 28.5 112t90.5 71q9 3 18 3q22 0 35 -11.5t20 -26t9 -28t2 -16.5q0 -11 -2.5 -24.5t-7.5 -25.5t-14 -20t-21 -8q-8 0 -16 2t-15 4l-16 6
q11 14 17 27t8 23q3 11 3 20q0 16 -12 16q-11 0 -25.5 -11t-28.5 -28.5t-23.5 -40t-9.5 -45.5q0 -31 18 -51t45 -20q14 0 27 5t25 11.5t22 14t17 13.5q19 15 27 25t11 16.5t4.5 9.5t7.5 3zM16 42v-8.5t2 -7t7 -8t16 -12.5q5 -5 5.5 -8.5t0.5 -8.5q-4 -25 -18 -32.5t-28 -7.5
q-20 0 -31.5 6t-17 13.5t-7 14t-1.5 7.5q0 7 4.5 11.5t10 6.5t11 2.5t7.5 1.5q2 -12 5 -18t8 -9q4 -4 11 -4h-1q8 -2 12 -2q12 0 12 12q0 3 -3 7.5t-7 9.5t-7 10t-3 9q0 8 3 12.5t3 5.5q0 -1 1 -1t1 -0.5t1 -0.5q1 -1 3 -1z" />
    <glyph glyph-name="oe" unicode="&#x153;" horiz-adv-x="366" 
d="M204 196q1 -4 1 -9v-10q-7 -32 -12 -53.5t-12 -37t-18.5 -27.5t-30.5 -27q-5 -7 -23.5 -20.5t-43.5 -13.5q-21 0 -35.5 9t-23.5 23t-13.5 30t-4.5 31q0 39 13 69.5t29.5 52.5t32.5 34.5t22 14.5q2 0 5.5 -2.5t11.5 -15.5q8 6 18 11t26 5t27 -7.5t17.5 -17.5t10 -21
t3.5 -18zM68 23q5 0 15 4t24 17q-26 16 -34.5 44t-8.5 55q0 6 0.5 12.5t1.5 12.5q-17 -18 -28.5 -41t-11.5 -50t11 -39.5t31 -14.5zM153 126q2 6 3 13t1 14q0 15 -1 28t-7 15q-8 0 -15 -8t-12.5 -19.5t-9 -25t-3.5 -25.5q0 -11 4 -28t16 -21q8 11 14 25t10 32zM382 90
q2 -2 2 -4q-15 -28 -35 -49q-17 -18 -43.5 -33t-61.5 -15q-26 0 -44 11t-29 27.5t-15.5 35.5t-4.5 34q0 34 11 65.5t30 56.5t43 40t50 15q32 0 49.5 -18t17.5 -39t-9 -40t-24.5 -33.5t-36.5 -23t-44 -8.5q-16 0 -27 3.5t-16 8.5q-6 -18 -6 -36q0 -28 17.5 -50.5t46.5 -22.5
q22 0 44.5 12t35.5 21q15 11 23.5 19t12.5 13.5t5.5 8t3.5 2.5t4 -1zM224 183q-14 -20 -25 -44q3 -1 13 -1q15 0 29 7t24.5 17t17 21.5t6.5 19.5q0 13 -14 13q-10 0 -23.5 -7.5t-27.5 -25.5z" />
    <glyph glyph-name="parenleft" unicode="(" horiz-adv-x="161" 
d="M154 386q-24 -51 -42 -114.5t-24 -123t2.5 -106.5t36.5 -65q26 -18 21.5 -26t-31.5 11q-28 19 -43.5 51t-22 71.5t-3.5 83.5t12.5 86.5t24.5 81.5t34 68q17 28 28 41t23 5q8 -4 3 -18t-19 -46z" />
    <glyph glyph-name="parenright" unicode=")" horiz-adv-x="98" 
d="M-14 386q-14 32 -19 46t3 18q12 8 23 -5t28 -41q19 -29 34 -68t24.5 -81.5t12.5 -86.5t-3.5 -83.5t-22 -71.5t-43.5 -51q-27 -19 -31.5 -11t21.5 26q28 18 36.5 65t2.5 106.5t-24 123t-42 114.5z" />
    <glyph glyph-name="asterisk" unicode="*" horiz-adv-x="132" 
d="M128 370q7 18 9 21.5t2 6.5q0 14 -8 15t-9 3q0 -6 -4 -18.5t-10 -27.5q-21 -1 -30 -1.5t-12 -1t-3 -1.5t-3 -3q-2 -2 -2 -8v-6q0 -2 1 -2q4 2 15 3t25 1q-6 -15 -9 -21.5t-4 -8.5l-1 -2v-1q0 -10 9.5 -13t12.5 -4q0 3 4 17.5t10 31.5q9 0 16 -0.5t12 -0.5q5 -1 10 -1
q8 0 10 3t2 7v17q-2 -2 -14.5 -3t-28.5 -2zM96 358q-13 9 -23 16.5t-14 6.5q2 1 4 4q2 2 3.5 4.5t3.5 4.5q2 3 5.5 4.5t10.5 -3.5q2 -3 6 -7q5 -7 22 -20q15 11 27 19.5t14 10.5q2 -2 8 -10t-2 -16q0 -1 0.5 -1t-1.5 -1t-8.5 -4t-21.5 -11q11 -9 20.5 -15t13.5 -7
q0 -2 -1 -3q-1 -2 -3 -4q-5 -5 -7 -5q-3 0 -3.5 -0.5t-3.5 1t-10.5 7t-24.5 17.5q-14 -8 -24.5 -15.5t-15.5 -12.5q1 1 -1 3t-3.5 5t-1.5 7.5t5 9.5q2 2 5.5 4t20.5 11z" />
    <glyph glyph-name="Agrave" unicode="&#xc0;" horiz-adv-x="592" 
d="M92 -6q-35 24 -55.5 63t-20.5 79q0 30 11.5 52t30.5 38t42 25t47 12q33 4 93 8t132 4q26 42 56 72t59.5 49.5t54.5 29t40 9.5q12 0 19 -6.5t7 -32.5q0 -8 -7.5 -22.5t-18.5 -32t-23.5 -36.5t-21.5 -37q26 0 41.5 -2.5t23.5 -7t10.5 -10t2.5 -11.5q0 -8 -0.5 -16.5
t-1.5 -15.5q-1 -8 -1 -16q-10 7 -23 10t-27 4t-28 1t-27 1q-14 -31 -27.5 -67.5t-13.5 -64.5q0 -20 12 -35.5t38 -15.5q11 0 20.5 3t17.5 5q34 14 43 22t11 8t4.5 -2t2.5 -4v1q-1 0 -5.5 -6.5t-15 -15.5t-28.5 -18.5t-45 -14.5q-8 -2 -12 -2q-12 0 -25 5.5t-24 14.5
t-18.5 21.5t-7.5 27.5q0 40 7.5 75t17.5 67q-12 0 -29.5 2.5t-35.5 4.5q-20 -33 -41 -66.5t-40 -66.5q-11 -19 -27.5 -39t-37 -36t-44 -26.5t-48.5 -10.5q-34 0 -64 23zM515 353q-41 -28 -80 -79q12 -1 23.5 -1t22.5 -1q8 23 17 43.5t17 37.5zM120 232q-35 -5 -54 -33.5
t-19 -61.5q0 -25 10 -47.5t25.5 -40t35 -28t38.5 -10.5q31 0 57 21.5t48.5 53t42 68.5t37.5 68q-40 5 -80 9t-82 4q-29 0 -59 -3zM526 545q3 -5 9.5 -13.5t9.5 -12.5l8.5 -8.5t14.5 -11.5t22 -10t31 -4q17 0 31 3.5t17 4.5h1v-1q0 -2 1 -2q2 -5 2 -3.5t0 -0.5t-7 -5.5
t-18.5 -7t-26 -6.5t-30.5 -3q-11 0 -25.5 3t-28 9t-23 16t-9.5 24q0 5 3 9.5t7 9.5t11 10z" />
    <glyph glyph-name="Aacute" unicode="&#xc1;" horiz-adv-x="592" 
d="M92 -6q-35 24 -55.5 63t-20.5 79q0 30 11.5 52t30.5 38t42 25t47 12q33 4 93 8t132 4q26 42 56 72t59.5 49.5t54.5 29t40 9.5q12 0 19 -6.5t7 -32.5q0 -8 -7.5 -22.5t-18.5 -32t-23.5 -36.5t-21.5 -37q26 0 41.5 -2.5t23.5 -7t10.5 -10t2.5 -11.5q0 -8 -0.5 -16.5
t-1.5 -15.5q-1 -8 -1 -16q-10 7 -23 10t-27 4t-28 1t-27 1q-14 -31 -27.5 -67.5t-13.5 -64.5q0 -20 12 -35.5t38 -15.5q11 0 20.5 3t17.5 5q34 14 43 22t11 8t4.5 -2t2.5 -4v1q-1 0 -5.5 -6.5t-15 -15.5t-28.5 -18.5t-45 -14.5q-8 -2 -12 -2q-12 0 -25 5.5t-24 14.5
t-18.5 21.5t-7.5 27.5q0 40 7.5 75t17.5 67q-12 0 -29.5 2.5t-35.5 4.5q-20 -33 -41 -66.5t-40 -66.5q-11 -19 -27.5 -39t-37 -36t-44 -26.5t-48.5 -10.5q-34 0 -64 23zM515 353q-41 -28 -80 -79q12 -1 23.5 -1t22.5 -1q8 23 17 43.5t17 37.5zM120 232q-35 -5 -54 -33.5
t-19 -61.5q0 -25 10 -47.5t25.5 -40t35 -28t38.5 -10.5q31 0 57 21.5t48.5 53t42 68.5t37.5 68q-40 5 -80 9t-82 4q-29 0 -59 -3zM634 545q1 0 4.5 -4t7.5 -9t7 -11.5t3 -10.5q0 -13 -10 -21.5t-23.5 -14t-28.5 -8t-25 -2.5q-16 0 -30.5 3t-26 6.5t-18.5 7t-7 5.5l2 4
q0 1 0.5 1t0.5 1l1 1q3 -1 17 -4.5t31 -3.5q18 0 31 4t22 10t14.5 11.5l8.5 8.5q3 4 9.5 12.5t9.5 13.5z" />
    <glyph glyph-name="Acircumflex" unicode="&#xc2;" horiz-adv-x="592" 
d="M92 -6q-35 24 -55.5 63t-20.5 79q0 30 11.5 52t30.5 38t42 25t47 12q33 4 93 8t132 4q26 42 56 72t59.5 49.5t54.5 29t40 9.5q12 0 19 -6.5t7 -32.5q0 -8 -7.5 -22.5t-18.5 -32t-23.5 -36.5t-21.5 -37q26 0 41.5 -2.5t23.5 -7t10.5 -10t2.5 -11.5q0 -8 -0.5 -16.5
t-1.5 -15.5q-1 -8 -1 -16q-10 7 -23 10t-27 4t-28 1t-27 1q-14 -31 -27.5 -67.5t-13.5 -64.5q0 -20 12 -35.5t38 -15.5q11 0 20.5 3t17.5 5q34 14 43 22t11 8t4.5 -2t2.5 -4v1q-1 0 -5.5 -6.5t-15 -15.5t-28.5 -18.5t-45 -14.5q-8 -2 -12 -2q-12 0 -25 5.5t-24 14.5
t-18.5 21.5t-7.5 27.5q0 40 7.5 75t17.5 67q-12 0 -29.5 2.5t-35.5 4.5q-20 -33 -41 -66.5t-40 -66.5q-11 -19 -27.5 -39t-37 -36t-44 -26.5t-48.5 -10.5q-34 0 -64 23zM515 353q-41 -28 -80 -79q12 -1 23.5 -1t22.5 -1q8 23 17 43.5t17 37.5zM120 232q-35 -5 -54 -33.5
t-19 -61.5q0 -25 10 -47.5t25.5 -40t35 -28t38.5 -10.5q31 0 57 21.5t48.5 53t42 68.5t37.5 68q-40 5 -80 9t-82 4q-29 0 -59 -3zM690 461q0 -2 1.5 -3t1.5 -2q0 -2 -5.5 -4t-24.5 -2q-18 0 -41 8t-38 31q-11 -8 -23 -11t-24 -3q-13 0 -24.5 3t-20.5 7t-14.5 7.5t-5.5 5.5
l4 6q2 -1 15 -4.5t30 -3.5t28.5 5t19 11t12 11t9.5 5q11 0 14.5 -6t6.5 -14.5t8 -18t20 -15.5q17 -8 32 -9.5t19 -2.5v-1z" />
    <glyph glyph-name="Atilde" unicode="&#xc3;" horiz-adv-x="592" 
d="M92 -6q-35 24 -55.5 63t-20.5 79q0 30 11.5 52t30.5 38t42 25t47 12q33 4 93 8t132 4q26 42 56 72t59.5 49.5t54.5 29t40 9.5q12 0 19 -6.5t7 -32.5q0 -8 -7.5 -22.5t-18.5 -32t-23.5 -36.5t-21.5 -37q26 0 41.5 -2.5t23.5 -7t10.5 -10t2.5 -11.5q0 -8 -0.5 -16.5
t-1.5 -15.5q-1 -8 -1 -16q-10 7 -23 10t-27 4t-28 1t-27 1q-14 -31 -27.5 -67.5t-13.5 -64.5q0 -20 12 -35.5t38 -15.5q11 0 20.5 3t17.5 5q34 14 43 22t11 8t4.5 -2t2.5 -4v1q-1 0 -5.5 -6.5t-15 -15.5t-28.5 -18.5t-45 -14.5q-8 -2 -12 -2q-12 0 -25 5.5t-24 14.5
t-18.5 21.5t-7.5 27.5q0 40 7.5 75t17.5 67q-12 0 -29.5 2.5t-35.5 4.5q-20 -33 -41 -66.5t-40 -66.5q-11 -19 -27.5 -39t-37 -36t-44 -26.5t-48.5 -10.5q-34 0 -64 23zM515 353q-41 -28 -80 -79q12 -1 23.5 -1t22.5 -1q8 23 17 43.5t17 37.5zM120 232q-35 -5 -54 -33.5
t-19 -61.5q0 -25 10 -47.5t25.5 -40t35 -28t38.5 -10.5q31 0 57 21.5t48.5 53t42 68.5t37.5 68q-40 5 -80 9t-82 4q-29 0 -59 -3zM551 498q-11 3 -19.5 6.5t-18.5 3.5q-13 0 -16 -7t-3 -10t0.5 -5t0.5 -3q-1 0 -1 -1.5t-4 -1.5q-2 1 -3 3q-2 4 -2 9q0 14 9 22t20 8
q24 0 49.5 -6t41.5 -6q13 0 23.5 4t12.5 27q3 0 8.5 -0.5t11 -3t9.5 -6.5t4 -12q0 -11 -11.5 -26t-40.5 -15q-19 0 -38 7.5t-33 12.5z" />
    <glyph glyph-name="Adieresis" unicode="&#xc4;" horiz-adv-x="592" 
d="M92 -6q-35 24 -55.5 63t-20.5 79q0 30 11.5 52t30.5 38t42 25t47 12q33 4 93 8t132 4q26 42 56 72t59.5 49.5t54.5 29t40 9.5q12 0 19 -6.5t7 -32.5q0 -8 -7.5 -22.5t-18.5 -32t-23.5 -36.5t-21.5 -37q26 0 41.5 -2.5t23.5 -7t10.5 -10t2.5 -11.5q0 -8 -0.5 -16.5
t-1.5 -15.5q-1 -8 -1 -16q-10 7 -23 10t-27 4t-28 1t-27 1q-14 -31 -27.5 -67.5t-13.5 -64.5q0 -20 12 -35.5t38 -15.5q11 0 20.5 3t17.5 5q34 14 43 22t11 8t4.5 -2t2.5 -4v1q-1 0 -5.5 -6.5t-15 -15.5t-28.5 -18.5t-45 -14.5q-8 -2 -12 -2q-12 0 -25 5.5t-24 14.5
t-18.5 21.5t-7.5 27.5q0 40 7.5 75t17.5 67q-12 0 -29.5 2.5t-35.5 4.5q-20 -33 -41 -66.5t-40 -66.5q-11 -19 -27.5 -39t-37 -36t-44 -26.5t-48.5 -10.5q-34 0 -64 23zM515 353q-41 -28 -80 -79q12 -1 23.5 -1t22.5 -1q8 23 17 43.5t17 37.5zM120 232q-35 -5 -54 -33.5
t-19 -61.5q0 -25 10 -47.5t25.5 -40t35 -28t38.5 -10.5q31 0 57 21.5t48.5 53t42 68.5t37.5 68q-40 5 -80 9t-82 4q-29 0 -59 -3zM605 525q1 -1 7 -1t12.5 -1.5t12 -4.5t5.5 -9q0 -5 -7.5 -13.5t-7.5 -33.5q0 -6 1 -9h-6q-6 0 -14.5 3t-8.5 17q0 3 1 5.5t2.5 7t3 11.5
t1.5 19q0 5 -2 9zM535 525q1 -1 7 -1t13 -1t12 -4.5t5 -10.5q0 -5 -1 -7q-4 -6 -7 -13q-7 -14 -7 -27q0 -6 1 -8h-6q-6 0 -14.5 3t-8.5 16q0 4 1 6t2.5 5.5t3 10.5t1.5 21q0 6 -2 10z" />
    <glyph glyph-name="Aring" unicode="&#xc5;" horiz-adv-x="592" 
d="M92 -6q-35 24 -55.5 63t-20.5 79q0 30 11.5 52t30.5 38t42 25t47 12q33 4 93 8t132 4q26 42 56 72t59.5 49.5t54.5 29t40 9.5q12 0 19 -6.5t7 -32.5q0 -8 -7.5 -22.5t-18.5 -32t-23.5 -36.5t-21.5 -37q26 0 41.5 -2.5t23.5 -7t10.5 -10t2.5 -11.5q0 -8 -0.5 -16.5
t-1.5 -15.5q-1 -8 -1 -16q-10 7 -23 10t-27 4t-28 1t-27 1q-14 -31 -27.5 -67.5t-13.5 -64.5q0 -20 12 -35.5t38 -15.5q11 0 20.5 3t17.5 5q34 14 43 22t11 8t4.5 -2t2.5 -4v1q-1 0 -5.5 -6.5t-15 -15.5t-28.5 -18.5t-45 -14.5q-8 -2 -12 -2q-12 0 -25 5.5t-24 14.5
t-18.5 21.5t-7.5 27.5q0 40 7.5 75t17.5 67q-12 0 -29.5 2.5t-35.5 4.5q-20 -33 -41 -66.5t-40 -66.5q-11 -19 -27.5 -39t-37 -36t-44 -26.5t-48.5 -10.5q-34 0 -64 23zM515 353q-41 -28 -80 -79q12 -1 23.5 -1t22.5 -1q8 23 17 43.5t17 37.5zM120 232q-35 -5 -54 -33.5
t-19 -61.5q0 -25 10 -47.5t25.5 -40t35 -28t38.5 -10.5q31 0 57 21.5t48.5 53t42 68.5t37.5 68q-40 5 -80 9t-82 4q-29 0 -59 -3zM623 463q-13 -1 -27.5 3t-27.5 21q0 2 0.5 7t3.5 12q4 7 13 8.5t19 -1t19 -7.5t13 -11q1 -1 1 -4q0 -6 -8 -22q-2 -4 -6 -6zM612 477
q0 1 1 1.5t1 1.5q3 7 3 10v2q-4 5 -14.5 8t-13.5 -3q-2 -5 -2 -9q5 -8 12 -9.5t13 -1.5z" />
    <glyph glyph-name="Ccedilla" unicode="&#xc7;" horiz-adv-x="358" 
d="M131 -49q-26 0 -48 11t-37.5 29.5t-24.5 44t-9 54.5q-1 59 23.5 120t65.5 110t96 80t115 31q57 0 86 -17t31 -37q0 -4 -1 -6q-22 -35 -32.5 -61t-15 -43.5t-5.5 -27t-4 -12.5l-2 -1q-23 2 -35.5 10.5t-18.5 18.5q-7 11 -9 26q0 8 6.5 29.5t24.5 52.5q-12 3 -26 3
q-40 0 -84 -24t-81.5 -63t-62 -89.5t-24.5 -103.5q0 -21 3.5 -40t12.5 -32.5t25 -21.5t41 -8t50 7t48 19t42.5 27.5t33.5 32.5q25 30 36 49.5t15.5 31t6 15.5t8.5 4q3 0 4 -2t1 -4q0 -7 -5.5 -24t-18 -38.5t-33 -46.5t-49.5 -47q-12 -9 -28.5 -19t-35.5 -18.5t-41 -14
t-44 -5.5zM59 -1v-8.5t2 -7t7 -8t16 -12.5q5 -5 5.5 -8.5t0.5 -8.5q-4 -25 -18 -32.5t-28 -7.5q-20 0 -31.5 6t-17 13.5t-7 14t-1.5 7.5q0 7 4.5 11.5t10 6.5t11 2.5t7.5 1.5q2 -12 5 -18t8 -9q4 -4 11 -4h-1q8 -2 12 -2q12 0 12 12q0 3 -3 7.5t-7 9.5t-7 10t-3 9
q0 8 3 12.5t3 5.5q0 -1 1 -1t1 -0.5t1 -0.5q1 -1 3 -1z" />
    <glyph glyph-name="Egrave" unicode="&#xc8;" horiz-adv-x="593" 
d="M663 438q11 -21 11 -38q0 -11 -3.5 -19.5t-7.5 -13.5q-4 -6 -10 -11q-7 -5 -35 -12.5t-76 -7.5q-22 0 -47 2.5t-51 6.5q1 -4 1.5 -6.5t0.5 -4.5q-17 -8 -33 -16q-14 -7 -27.5 -15.5t-22.5 -16.5q24 -5 48.5 -10t43.5 -10t31 -8.5t12 -4.5h1q2 -2 2 -6t-3 -7l-2 -1v1
q-2 -1 -15.5 -1.5t-42.5 -0.5q-26 0 -56.5 0.5t-59.5 0.5q-20 -26 -36 -62t-16 -74q0 -43 22.5 -78t70.5 -39q43 2 77.5 15.5t61 32.5t45.5 41t31 41.5t17.5 32.5t5.5 15q0 1 1 2q2 2 5 2q6 0 6 -5q0 -21 -10.5 -45.5t-28 -48.5t-41.5 -46t-51 -39t-55.5 -26.5t-55.5 -9.5
q-35 0 -63 14t-47.5 37t-30 53t-10.5 63q0 35 9.5 66.5t23.5 58.5q-22 0 -26.5 10t-4.5 21v21q0 5 1 10q4 -3 11.5 -4.5t15.5 -3t15 -2t10 -0.5v-1q2 0 4 0.5t4 0.5q16 23 33.5 41t34.5 30q-26 6 -53 9.5t-54 3.5q-39 0 -75.5 -10.5t-65 -33t-46 -58.5t-17.5 -86
q0 -36 11 -63.5t28.5 -45.5t40 -27.5t46.5 -9.5q13 0 21 2t10 2q-1 0 3 -0.5t4 -5.5q0 -2 -9.5 -7t-41.5 -5q-18 0 -42.5 7.5t-46 27t-37 53t-15.5 85.5q0 50 21.5 99t70.5 84q41 24 82 33t80 9q37 0 70 -4.5t62 -8.5q35 -5 63 -7.5t48 -2.5q42 0 70 6t46 12.5t26.5 12
t11.5 4.5zM421 545q3 -5 9.5 -13.5t9.5 -12.5l8.5 -8.5t14.5 -11.5t22 -10t31 -4q17 0 31 3.5t17 4.5h1v-1q0 -2 1 -2q2 -5 2 -3.5t0 -0.5t-7 -5.5t-18.5 -7t-26 -6.5t-30.5 -3q-11 0 -25.5 3t-28 9t-23 16t-9.5 24q0 5 3 9.5t7 9.5t11 10z" />
    <glyph glyph-name="Eacute" unicode="&#xc9;" horiz-adv-x="593" 
d="M663 438q11 -21 11 -38q0 -11 -3.5 -19.5t-7.5 -13.5q-4 -6 -10 -11q-7 -5 -35 -12.5t-76 -7.5q-22 0 -47 2.5t-51 6.5q1 -4 1.5 -6.5t0.5 -4.5q-17 -8 -33 -16q-14 -7 -27.5 -15.5t-22.5 -16.5q24 -5 48.5 -10t43.5 -10t31 -8.5t12 -4.5h1q2 -2 2 -6t-3 -7l-2 -1v1
q-2 -1 -15.5 -1.5t-42.5 -0.5q-26 0 -56.5 0.5t-59.5 0.5q-20 -26 -36 -62t-16 -74q0 -43 22.5 -78t70.5 -39q43 2 77.5 15.5t61 32.5t45.5 41t31 41.5t17.5 32.5t5.5 15q0 1 1 2q2 2 5 2q6 0 6 -5q0 -21 -10.5 -45.5t-28 -48.5t-41.5 -46t-51 -39t-55.5 -26.5t-55.5 -9.5
q-35 0 -63 14t-47.5 37t-30 53t-10.5 63q0 35 9.5 66.5t23.5 58.5q-22 0 -26.5 10t-4.5 21v21q0 5 1 10q4 -3 11.5 -4.5t15.5 -3t15 -2t10 -0.5v-1q2 0 4 0.5t4 0.5q16 23 33.5 41t34.5 30q-26 6 -53 9.5t-54 3.5q-39 0 -75.5 -10.5t-65 -33t-46 -58.5t-17.5 -86
q0 -36 11 -63.5t28.5 -45.5t40 -27.5t46.5 -9.5q13 0 21 2t10 2q-1 0 3 -0.5t4 -5.5q0 -2 -9.5 -7t-41.5 -5q-18 0 -42.5 7.5t-46 27t-37 53t-15.5 85.5q0 50 21.5 99t70.5 84q41 24 82 33t80 9q37 0 70 -4.5t62 -8.5q35 -5 63 -7.5t48 -2.5q42 0 70 6t46 12.5t26.5 12
t11.5 4.5zM548 545q1 0 4.5 -4t7.5 -9t7 -11.5t3 -10.5q0 -13 -10 -21.5t-23.5 -14t-28.5 -8t-25 -2.5q-16 0 -30.5 3t-26 6.5t-18.5 7t-7 5.5l2 4q0 1 0.5 1t0.5 1l1 1q3 -1 17 -4.5t31 -3.5q18 0 31 4t22 10t14.5 11.5l8.5 8.5q3 4 9.5 12.5t9.5 13.5z" />
    <glyph glyph-name="Ecircumflex" unicode="&#xca;" horiz-adv-x="593" 
d="M663 438q11 -21 11 -38q0 -11 -3.5 -19.5t-7.5 -13.5q-4 -6 -10 -11q-7 -5 -35 -12.5t-76 -7.5q-22 0 -47 2.5t-51 6.5q1 -4 1.5 -6.5t0.5 -4.5q-17 -8 -33 -16q-14 -7 -27.5 -15.5t-22.5 -16.5q24 -5 48.5 -10t43.5 -10t31 -8.5t12 -4.5h1q2 -2 2 -6t-3 -7l-2 -1v1
q-2 -1 -15.5 -1.5t-42.5 -0.5q-26 0 -56.5 0.5t-59.5 0.5q-20 -26 -36 -62t-16 -74q0 -43 22.5 -78t70.5 -39q43 2 77.5 15.5t61 32.5t45.5 41t31 41.5t17.5 32.5t5.5 15q0 1 1 2q2 2 5 2q6 0 6 -5q0 -21 -10.5 -45.5t-28 -48.5t-41.5 -46t-51 -39t-55.5 -26.5t-55.5 -9.5
q-35 0 -63 14t-47.5 37t-30 53t-10.5 63q0 35 9.5 66.5t23.5 58.5q-22 0 -26.5 10t-4.5 21v21q0 5 1 10q4 -3 11.5 -4.5t15.5 -3t15 -2t10 -0.5v-1q2 0 4 0.5t4 0.5q16 23 33.5 41t34.5 30q-26 6 -53 9.5t-54 3.5q-39 0 -75.5 -10.5t-65 -33t-46 -58.5t-17.5 -86
q0 -36 11 -63.5t28.5 -45.5t40 -27.5t46.5 -9.5q13 0 21 2t10 2q-1 0 3 -0.5t4 -5.5q0 -2 -9.5 -7t-41.5 -5q-18 0 -42.5 7.5t-46 27t-37 53t-15.5 85.5q0 50 21.5 99t70.5 84q41 24 82 33t80 9q37 0 70 -4.5t62 -8.5q35 -5 63 -7.5t48 -2.5q42 0 70 6t46 12.5t26.5 12
t11.5 4.5zM591 449q0 -2 1.5 -3t1.5 -2q0 -2 -5.5 -4t-24.5 -2q-18 0 -41 8t-38 31q-11 -8 -23 -11t-24 -3q-13 0 -24.5 3t-20.5 7t-14.5 7.5t-5.5 5.5l4 6q2 -1 15 -4.5t30 -3.5t28.5 5t19 11t12 11t9.5 5q11 0 14.5 -6t6.5 -14.5t8 -18t20 -15.5q17 -8 32 -9.5t19 -2.5v-1
z" />
    <glyph glyph-name="Edieresis" unicode="&#xcb;" horiz-adv-x="593" 
d="M663 438q11 -21 11 -38q0 -11 -3.5 -19.5t-7.5 -13.5q-4 -6 -10 -11q-7 -5 -35 -12.5t-76 -7.5q-22 0 -47 2.5t-51 6.5q1 -4 1.5 -6.5t0.5 -4.5q-17 -8 -33 -16q-14 -7 -27.5 -15.5t-22.5 -16.5q24 -5 48.5 -10t43.5 -10t31 -8.5t12 -4.5h1q2 -2 2 -6t-3 -7l-2 -1v1
q-2 -1 -15.5 -1.5t-42.5 -0.5q-26 0 -56.5 0.5t-59.5 0.5q-20 -26 -36 -62t-16 -74q0 -43 22.5 -78t70.5 -39q43 2 77.5 15.5t61 32.5t45.5 41t31 41.5t17.5 32.5t5.5 15q0 1 1 2q2 2 5 2q6 0 6 -5q0 -21 -10.5 -45.5t-28 -48.5t-41.5 -46t-51 -39t-55.5 -26.5t-55.5 -9.5
q-35 0 -63 14t-47.5 37t-30 53t-10.5 63q0 35 9.5 66.5t23.5 58.5q-22 0 -26.5 10t-4.5 21v21q0 5 1 10q4 -3 11.5 -4.5t15.5 -3t15 -2t10 -0.5v-1q2 0 4 0.5t4 0.5q16 23 33.5 41t34.5 30q-26 6 -53 9.5t-54 3.5q-39 0 -75.5 -10.5t-65 -33t-46 -58.5t-17.5 -86
q0 -36 11 -63.5t28.5 -45.5t40 -27.5t46.5 -9.5q13 0 21 2t10 2q-1 0 3 -0.5t4 -5.5q0 -2 -9.5 -7t-41.5 -5q-18 0 -42.5 7.5t-46 27t-37 53t-15.5 85.5q0 50 21.5 99t70.5 84q41 24 82 33t80 9q37 0 70 -4.5t62 -8.5q35 -5 63 -7.5t48 -2.5q42 0 70 6t46 12.5t26.5 12
t11.5 4.5zM503 525q1 -1 7 -1t12.5 -1.5t12 -4.5t5.5 -9q0 -5 -7.5 -13.5t-7.5 -33.5q0 -6 1 -9h-6q-6 0 -14.5 3t-8.5 17q0 3 1 5.5t2.5 7t3 11.5t1.5 19q0 5 -2 9zM433 525q1 -1 7 -1t13 -1t12 -4.5t5 -10.5q0 -5 -1 -7q-4 -6 -7 -13q-7 -14 -7 -27q0 -6 1 -8h-6
q-6 0 -14.5 3t-8.5 16q0 4 1 6t2.5 5.5t3 10.5t1.5 21q0 6 -2 10z" />
    <glyph glyph-name="Igrave" unicode="&#xcc;" horiz-adv-x="420" 
d="M588 429q11 -19 11 -37q0 -11 -3.5 -19.5t-7.5 -13.5q-4 -7 -10 -11q-8 -5 -37 -12.5t-80 -7.5h-8t-8 1l8 -8t3 -19q0 -12 -5 -23q-9 -17 -20.5 -41.5t-24 -52.5t-25 -58t-22.5 -56.5t-16.5 -47.5t-7.5 -33q31 -5 54 -14.5t28 -12.5q0 -5 -4 -15t-8.5 -20t-8.5 -18t-5 -8
q-18 20 -51 33t-67.5 21t-65 11.5t-44.5 3.5q-9 0 -9 -1q-1 0 -2 1q-2 2 -2 8q0 3 13 6t34 5.5t47 4t53 1.5q-1 2 -1.5 2t-1 1.5t-0.5 6v13.5q0 7 2 16.5t5 22.5q11 42 25.5 81t28 74t25 65.5t17.5 56.5q-42 5 -82 14.5t-84 9.5q-32 0 -66 -7.5t-61.5 -24t-45 -42
t-17.5 -61.5q0 -39 23.5 -60t65.5 -21q16 0 25 2.5t11 2.5q-1 0 2.5 -1t3.5 -6q0 -3 -12 -7.5t-38 -6.5q-11 0 -29 3.5t-35.5 14.5t-30.5 31t-13 54q0 48 23.5 82t60 55t80.5 30.5t85 9.5q18 0 48.5 -1.5t66 -3t71.5 -1.5t66.5 2.5t50 8.5t22.5 17zM357 545q3 -5 9.5 -13.5
t9.5 -12.5l8.5 -8.5t14.5 -11.5t22 -10t31 -4q17 0 31 3.5t17 4.5h1v-1q0 -2 1 -2q2 -5 2 -3.5t0 -0.5t-7 -5.5t-18.5 -7t-26 -6.5t-30.5 -3q-11 0 -25.5 3t-28 9t-23 16t-9.5 24q0 5 3 9.5t7 9.5t11 10z" />
    <glyph glyph-name="Iacute" unicode="&#xcd;" horiz-adv-x="420" 
d="M588 429q11 -19 11 -37q0 -11 -3.5 -19.5t-7.5 -13.5q-4 -7 -10 -11q-8 -5 -37 -12.5t-80 -7.5h-8t-8 1l8 -8t3 -19q0 -12 -5 -23q-9 -17 -20.5 -41.5t-24 -52.5t-25 -58t-22.5 -56.5t-16.5 -47.5t-7.5 -33q31 -5 54 -14.5t28 -12.5q0 -5 -4 -15t-8.5 -20t-8.5 -18t-5 -8
q-18 20 -51 33t-67.5 21t-65 11.5t-44.5 3.5q-9 0 -9 -1q-1 0 -2 1q-2 2 -2 8q0 3 13 6t34 5.5t47 4t53 1.5q-1 2 -1.5 2t-1 1.5t-0.5 6v13.5q0 7 2 16.5t5 22.5q11 42 25.5 81t28 74t25 65.5t17.5 56.5q-42 5 -82 14.5t-84 9.5q-32 0 -66 -7.5t-61.5 -24t-45 -42
t-17.5 -61.5q0 -39 23.5 -60t65.5 -21q16 0 25 2.5t11 2.5q-1 0 2.5 -1t3.5 -6q0 -3 -12 -7.5t-38 -6.5q-11 0 -29 3.5t-35.5 14.5t-30.5 31t-13 54q0 48 23.5 82t60 55t80.5 30.5t85 9.5q18 0 48.5 -1.5t66 -3t71.5 -1.5t66.5 2.5t50 8.5t22.5 17zM483 545q1 0 4.5 -4
t7.5 -9t7 -11.5t3 -10.5q0 -13 -10 -21.5t-23.5 -14t-28.5 -8t-25 -2.5q-16 0 -30.5 3t-26 6.5t-18.5 7t-7 5.5l2 4q0 1 0.5 1t0.5 1l1 1q3 -1 17 -4.5t31 -3.5q18 0 31 4t22 10t14.5 11.5l8.5 8.5q3 4 9.5 12.5t9.5 13.5z" />
    <glyph glyph-name="Icircumflex" unicode="&#xce;" horiz-adv-x="420" 
d="M588 429q11 -19 11 -37q0 -11 -3.5 -19.5t-7.5 -13.5q-4 -7 -10 -11q-8 -5 -37 -12.5t-80 -7.5h-8t-8 1l8 -8t3 -19q0 -12 -5 -23q-9 -17 -20.5 -41.5t-24 -52.5t-25 -58t-22.5 -56.5t-16.5 -47.5t-7.5 -33q31 -5 54 -14.5t28 -12.5q0 -5 -4 -15t-8.5 -20t-8.5 -18t-5 -8
q-18 20 -51 33t-67.5 21t-65 11.5t-44.5 3.5q-9 0 -9 -1q-1 0 -2 1q-2 2 -2 8q0 3 13 6t34 5.5t47 4t53 1.5q-1 2 -1.5 2t-1 1.5t-0.5 6v13.5q0 7 2 16.5t5 22.5q11 42 25.5 81t28 74t25 65.5t17.5 56.5q-42 5 -82 14.5t-84 9.5q-32 0 -66 -7.5t-61.5 -24t-45 -42
t-17.5 -61.5q0 -39 23.5 -60t65.5 -21q16 0 25 2.5t11 2.5q-1 0 2.5 -1t3.5 -6q0 -3 -12 -7.5t-38 -6.5q-11 0 -29 3.5t-35.5 14.5t-30.5 31t-13 54q0 48 23.5 82t60 55t80.5 30.5t85 9.5q18 0 48.5 -1.5t66 -3t71.5 -1.5t66.5 2.5t50 8.5t22.5 17zM528 449q0 -2 1.5 -3
t1.5 -2q0 -2 -5.5 -4t-24.5 -2q-18 0 -41 8t-38 31q-11 -8 -23 -11t-24 -3q-13 0 -24.5 3t-20.5 7t-14.5 7.5t-5.5 5.5l4 6q2 -1 15 -4.5t30 -3.5t28.5 5t19 11t12 11t9.5 5q11 0 14.5 -6t6.5 -14.5t8 -18t20 -15.5q17 -8 32 -9.5t19 -2.5v-1z" />
    <glyph glyph-name="Idieresis" unicode="&#xcf;" horiz-adv-x="420" 
d="M588 429q11 -19 11 -37q0 -11 -3.5 -19.5t-7.5 -13.5q-4 -7 -10 -11q-8 -5 -37 -12.5t-80 -7.5h-8t-8 1l8 -8t3 -19q0 -12 -5 -23q-9 -17 -20.5 -41.5t-24 -52.5t-25 -58t-22.5 -56.5t-16.5 -47.5t-7.5 -33q31 -5 54 -14.5t28 -12.5q0 -5 -4 -15t-8.5 -20t-8.5 -18t-5 -8
q-18 20 -51 33t-67.5 21t-65 11.5t-44.5 3.5q-9 0 -9 -1q-1 0 -2 1q-2 2 -2 8q0 3 13 6t34 5.5t47 4t53 1.5q-1 2 -1.5 2t-1 1.5t-0.5 6v13.5q0 7 2 16.5t5 22.5q11 42 25.5 81t28 74t25 65.5t17.5 56.5q-42 5 -82 14.5t-84 9.5q-32 0 -66 -7.5t-61.5 -24t-45 -42
t-17.5 -61.5q0 -39 23.5 -60t65.5 -21q16 0 25 2.5t11 2.5q-1 0 2.5 -1t3.5 -6q0 -3 -12 -7.5t-38 -6.5q-11 0 -29 3.5t-35.5 14.5t-30.5 31t-13 54q0 48 23.5 82t60 55t80.5 30.5t85 9.5q18 0 48.5 -1.5t66 -3t71.5 -1.5t66.5 2.5t50 8.5t22.5 17zM440 525q1 -1 7 -1
t12.5 -1.5t12 -4.5t5.5 -9q0 -5 -7.5 -13.5t-7.5 -33.5q0 -6 1 -9h-6q-6 0 -14.5 3t-8.5 17q0 3 1 5.5t2.5 7t3 11.5t1.5 19q0 5 -2 9zM370 525q1 -1 7 -1t13 -1t12 -4.5t5 -10.5q0 -5 -1 -7q-4 -6 -7 -13q-7 -14 -7 -27q0 -6 1 -8h-6q-6 0 -14.5 3t-8.5 16q0 4 1 6t2.5 5.5
t3 10.5t1.5 21q0 6 -2 10z" />
    <glyph glyph-name="Ntilde" unicode="&#xd1;" horiz-adv-x="608" 
d="M665 389q5 -8 3.5 -18.5t-5.5 -19.5q-9 -15 -23 -46t-30 -70.5t-32 -83t-29.5 -83t-21.5 -71t-8 -46.5q-45 1 -75 47.5t-46 125.5q-18 -42 -39 -76.5t-48 -59t-61 -38t-77 -13.5q-74 0 -119 44.5t-45 133.5q0 48 15.5 92.5t42.5 79t63.5 56t78.5 23.5q20 0 35 -5
t26.5 -12t21 -14.5t18.5 -11.5q0 -8 -7.5 -13.5t-18 -9t-21 -5.5t-15.5 -3q-13 25 -45 25q-29 0 -63 -16.5t-57 -44.5q-29 -35 -39 -64.5t-10 -68.5q0 -29 7 -56t22 -48t39 -33.5t59 -12.5q47 0 80.5 17.5t57 45t38.5 61.5t26 67q9 27 17 53.5t15.5 49l13.5 40.5t9 28v1
q3 13 6 24q2 10 4 20.5t3 17.5l10 -5t21 -12t20.5 -14.5t9.5 -11.5q0 -6 -3.5 -15.5t-5.5 -16.5q1 0 1 -1q-17 -35 -32 -85.5t-15 -104.5q0 -48 12 -81.5t29 -56.5q0 14 9 48t22.5 76.5t29.5 87.5t29 82.5t21.5 60.5t7.5 21l7 21q6 19 8 33q12 -5 23 -10q9 -5 18 -11t12 -14
zM524 498q-11 3 -19.5 6.5t-18.5 3.5q-13 0 -16 -7t-3 -10t0.5 -5t0.5 -3q-1 0 -1 -1.5t-4 -1.5q-2 1 -3 3q-2 4 -2 9q0 14 9 22t20 8q24 0 49.5 -6t41.5 -6q13 0 23.5 4t12.5 27q3 0 8.5 -0.5t11 -3t9.5 -6.5t4 -12q0 -11 -11.5 -26t-40.5 -15q-19 0 -38 7.5t-33 12.5z" />
    <glyph glyph-name="Ograve" unicode="&#xd2;" horiz-adv-x="442" 
d="M128 -34q-61 12 -90.5 56t-31.5 104q-2 42 10.5 84.5t34.5 80.5t50.5 68.5t58.5 48.5l20 12q8 5 15.5 10t11.5 9l3.5 -6.5t7 -15.5t6 -19t1.5 -17q0 -3 -4 -9t-15 -14q-26 -11 -53 -33.5t-49 -53t-37.5 -67t-18.5 -76.5q-3 -36 5 -62.5t23 -44t35.5 -26.5t43.5 -11
q38 -3 69 6.5t59 38.5l-12 6q-26 12 -41.5 33t-24 45t-10.5 50t0 49q3 33 13.5 68.5t29 65t44.5 47.5t59 15q26 -2 42 -18.5t24 -40t10 -50t1 -48.5q-3 -30 -11.5 -59t-20 -56t-25.5 -49.5t-27 -38.5q27 -2 45 6.5t33 22.5q15 15 23 25.5t12 17.5t5.5 10t4.5 3q4 0 5 -2.5
t1 -3.5q0 -3 -7.5 -21t-24 -38.5t-43.5 -35.5t-68 -12q-4 0 -12 2q-18 -16 -37 -28.5t-41 -20.5t-47 -10t-55 3zM237 183q-4 -39 11 -75.5t55 -53.5q9 14 19.5 33.5t19.5 42t15 45.5t8 44q3 38 0 63t-9 39.5t-13 20.5t-13 6q-15 1 -30.5 -14.5t-29 -40.5t-22.5 -54.5
t-11 -55.5zM257 545q3 -5 9.5 -13.5t9.5 -12.5l8.5 -8.5t14.5 -11.5t22 -10t31 -4q17 0 31 3.5t17 4.5h1v-1q0 -2 1 -2q2 -5 2 -3.5t0 -0.5t-7 -5.5t-18.5 -7t-26 -6.5t-30.5 -3q-11 0 -25.5 3t-28 9t-23 16t-9.5 24q0 5 3 9.5t7 9.5t11 10z" />
    <glyph glyph-name="Oacute" unicode="&#xd3;" horiz-adv-x="442" 
d="M128 -34q-61 12 -90.5 56t-31.5 104q-2 42 10.5 84.5t34.5 80.5t50.5 68.5t58.5 48.5l20 12q8 5 15.5 10t11.5 9l3.5 -6.5t7 -15.5t6 -19t1.5 -17q0 -3 -4 -9t-15 -14q-26 -11 -53 -33.5t-49 -53t-37.5 -67t-18.5 -76.5q-3 -36 5 -62.5t23 -44t35.5 -26.5t43.5 -11
q38 -3 69 6.5t59 38.5l-12 6q-26 12 -41.5 33t-24 45t-10.5 50t0 49q3 33 13.5 68.5t29 65t44.5 47.5t59 15q26 -2 42 -18.5t24 -40t10 -50t1 -48.5q-3 -30 -11.5 -59t-20 -56t-25.5 -49.5t-27 -38.5q27 -2 45 6.5t33 22.5q15 15 23 25.5t12 17.5t5.5 10t4.5 3q4 0 5 -2.5
t1 -3.5q0 -3 -7.5 -21t-24 -38.5t-43.5 -35.5t-68 -12q-4 0 -12 2q-18 -16 -37 -28.5t-41 -20.5t-47 -10t-55 3zM237 183q-4 -39 11 -75.5t55 -53.5q9 14 19.5 33.5t19.5 42t15 45.5t8 44q3 38 0 63t-9 39.5t-13 20.5t-13 6q-15 1 -30.5 -14.5t-29 -40.5t-22.5 -54.5
t-11 -55.5zM381 545q1 0 4.5 -4t7.5 -9t7 -11.5t3 -10.5q0 -13 -10 -21.5t-23.5 -14t-28.5 -8t-25 -2.5q-16 0 -30.5 3t-26 6.5t-18.5 7t-7 5.5l2 4q0 1 0.5 1t0.5 1l1 1q3 -1 17 -4.5t31 -3.5q18 0 31 4t22 10t14.5 11.5l8.5 8.5q3 4 9.5 12.5t9.5 13.5z" />
    <glyph glyph-name="Ocircumflex" unicode="&#xd4;" horiz-adv-x="442" 
d="M128 -34q-61 12 -90.5 56t-31.5 104q-2 42 10.5 84.5t34.5 80.5t50.5 68.5t58.5 48.5l20 12q8 5 15.5 10t11.5 9l3.5 -6.5t7 -15.5t6 -19t1.5 -17q0 -3 -4 -9t-15 -14q-26 -11 -53 -33.5t-49 -53t-37.5 -67t-18.5 -76.5q-3 -36 5 -62.5t23 -44t35.5 -26.5t43.5 -11
q38 -3 69 6.5t59 38.5l-12 6q-26 12 -41.5 33t-24 45t-10.5 50t0 49q3 33 13.5 68.5t29 65t44.5 47.5t59 15q26 -2 42 -18.5t24 -40t10 -50t1 -48.5q-3 -30 -11.5 -59t-20 -56t-25.5 -49.5t-27 -38.5q27 -2 45 6.5t33 22.5q15 15 23 25.5t12 17.5t5.5 10t4.5 3q4 0 5 -2.5
t1 -3.5q0 -3 -7.5 -21t-24 -38.5t-43.5 -35.5t-68 -12q-4 0 -12 2q-18 -16 -37 -28.5t-41 -20.5t-47 -10t-55 3zM237 183q-4 -39 11 -75.5t55 -53.5q9 14 19.5 33.5t19.5 42t15 45.5t8 44q3 38 0 63t-9 39.5t-13 20.5t-13 6q-15 1 -30.5 -14.5t-29 -40.5t-22.5 -54.5
t-11 -55.5zM431 449q0 -2 1.5 -3t1.5 -2q0 -2 -5.5 -4t-24.5 -2q-18 0 -41 8t-38 31q-11 -8 -23 -11t-24 -3q-13 0 -24.5 3t-20.5 7t-14.5 7.5t-5.5 5.5l4 6q2 -1 15 -4.5t30 -3.5t28.5 5t19 11t12 11t9.5 5q11 0 14.5 -6t6.5 -14.5t8 -18t20 -15.5q17 -8 32 -9.5t19 -2.5
v-1z" />
    <glyph glyph-name="Otilde" unicode="&#xd5;" horiz-adv-x="442" 
d="M128 -34q-61 12 -90.5 56t-31.5 104q-2 42 10.5 84.5t34.5 80.5t50.5 68.5t58.5 48.5l20 12q8 5 15.5 10t11.5 9l3.5 -6.5t7 -15.5t6 -19t1.5 -17q0 -3 -4 -9t-15 -14q-26 -11 -53 -33.5t-49 -53t-37.5 -67t-18.5 -76.5q-3 -36 5 -62.5t23 -44t35.5 -26.5t43.5 -11
q38 -3 69 6.5t59 38.5l-12 6q-26 12 -41.5 33t-24 45t-10.5 50t0 49q3 33 13.5 68.5t29 65t44.5 47.5t59 15q26 -2 42 -18.5t24 -40t10 -50t1 -48.5q-3 -30 -11.5 -59t-20 -56t-25.5 -49.5t-27 -38.5q27 -2 45 6.5t33 22.5q15 15 23 25.5t12 17.5t5.5 10t4.5 3q4 0 5 -2.5
t1 -3.5q0 -3 -7.5 -21t-24 -38.5t-43.5 -35.5t-68 -12q-4 0 -12 2q-18 -16 -37 -28.5t-41 -20.5t-47 -10t-55 3zM237 183q-4 -39 11 -75.5t55 -53.5q9 14 19.5 33.5t19.5 42t15 45.5t8 44q3 38 0 63t-9 39.5t-13 20.5t-13 6q-15 1 -30.5 -14.5t-29 -40.5t-22.5 -54.5
t-11 -55.5zM293 498q-11 3 -19.5 6.5t-18.5 3.5q-13 0 -16 -7t-3 -10t0.5 -5t0.5 -3q-1 0 -1 -1.5t-4 -1.5q-2 1 -3 3q-2 4 -2 9q0 14 9 22t20 8q24 0 49.5 -6t41.5 -6q13 0 23.5 4t12.5 27q3 0 8.5 -0.5t11 -3t9.5 -6.5t4 -12q0 -11 -11.5 -26t-40.5 -15q-19 0 -38 7.5
t-33 12.5z" />
    <glyph glyph-name="Odieresis" unicode="&#xd6;" horiz-adv-x="442" 
d="M128 -34q-61 12 -90.5 56t-31.5 104q-2 42 10.5 84.5t34.5 80.5t50.5 68.5t58.5 48.5l20 12q8 5 15.5 10t11.5 9l3.5 -6.5t7 -15.5t6 -19t1.5 -17q0 -3 -4 -9t-15 -14q-26 -11 -53 -33.5t-49 -53t-37.5 -67t-18.5 -76.5q-3 -36 5 -62.5t23 -44t35.5 -26.5t43.5 -11
q38 -3 69 6.5t59 38.5l-12 6q-26 12 -41.5 33t-24 45t-10.5 50t0 49q3 33 13.5 68.5t29 65t44.5 47.5t59 15q26 -2 42 -18.5t24 -40t10 -50t1 -48.5q-3 -30 -11.5 -59t-20 -56t-25.5 -49.5t-27 -38.5q27 -2 45 6.5t33 22.5q15 15 23 25.5t12 17.5t5.5 10t4.5 3q4 0 5 -2.5
t1 -3.5q0 -3 -7.5 -21t-24 -38.5t-43.5 -35.5t-68 -12q-4 0 -12 2q-18 -16 -37 -28.5t-41 -20.5t-47 -10t-55 3zM237 183q-4 -39 11 -75.5t55 -53.5q9 14 19.5 33.5t19.5 42t15 45.5t8 44q3 38 0 63t-9 39.5t-13 20.5t-13 6q-15 1 -30.5 -14.5t-29 -40.5t-22.5 -54.5
t-11 -55.5zM337 525q1 -1 7 -1t12.5 -1.5t12 -4.5t5.5 -9q0 -5 -7.5 -13.5t-7.5 -33.5q0 -6 1 -9h-6q-6 0 -14.5 3t-8.5 17q0 3 1 5.5t2.5 7t3 11.5t1.5 19q0 5 -2 9zM267 525q1 -1 7 -1t13 -1t12 -4.5t5 -10.5q0 -5 -1 -7q-4 -6 -7 -13q-7 -14 -7 -27q0 -6 1 -8h-6
q-6 0 -14.5 3t-8.5 16q0 4 1 6t2.5 5.5t3 10.5t1.5 21q0 6 -2 10z" />
    <glyph glyph-name="Oslash" unicode="&#xd8;" horiz-adv-x="442" 
d="M128 -34q-61 12 -90.5 56t-31.5 104q-2 42 10.5 84.5t34.5 80.5t50.5 68.5t58.5 48.5l20 12q8 5 15.5 10t11.5 9l3.5 -6.5t7 -15.5t6 -19t1.5 -17q0 -3 -4 -9t-15 -14q-26 -11 -53 -33.5t-49 -53t-37.5 -67t-18.5 -76.5q-3 -36 5 -62.5t23 -44t35.5 -26.5t43.5 -11
q38 -3 69 6.5t59 38.5l-12 6q-26 12 -41.5 33t-24 45t-10.5 50t0 49q3 33 13.5 68.5t29 65t44.5 47.5t59 15q26 -2 42 -18.5t24 -40t10 -50t1 -48.5q-3 -30 -11.5 -59t-20 -56t-25.5 -49.5t-27 -38.5q27 -2 45 6.5t33 22.5q15 15 23 25.5t12 17.5t5.5 10t4.5 3q4 0 5 -2.5
t1 -3.5q0 -3 -7.5 -21t-24 -38.5t-43.5 -35.5t-68 -12q-4 0 -12 2q-18 -16 -37 -28.5t-41 -20.5t-47 -10t-55 3zM237 183q-4 -39 11 -75.5t55 -53.5q9 14 19.5 33.5t19.5 42t15 45.5t8 44q3 38 0 63t-9 39.5t-13 20.5t-13 6q-15 1 -30.5 -14.5t-29 -40.5t-22.5 -54.5
t-11 -55.5zM307.924 410.186q-15.8428 -52.1152 -36.2109 -106.496q-20.3691 -54.3809 -40.7373 -106.495q-20.3691 -52.1152 -39.6064 -98.5654q-19.2363 -46.4502 -34.5127 -81.0049t-23.7637 -54.9473t-7.35547 -20.3926q-2.2627 0 -4.52637 1.13281
q-2.26367 0 -4.52637 2.26562q-1.13184 1.13281 -1.13184 2.26562q2.26367 9.06348 11.8818 45.8838t22.6318 87.2363t28.29 107.629t27.7236 108.195q12.4473 50.9814 21.5 87.8018q9.05273 36.8213 10.1846 45.8838q1.13184 10.1973 2.26367 24.9248
q1.13184 14.7285 1.13184 23.792q10.1836 -5.66504 24.8945 -8.49707t27.1582 -9.06348t17.54 -17.5605q5.0918 -11.3291 -2.8291 -33.9883z" />
    <glyph glyph-name="Ugrave" unicode="&#xd9;" horiz-adv-x="536" 
d="M517 46q-5 -6 -11.5 -14t-15.5 -15.5t-21 -12.5t-27 -5q-14 0 -25 5.5t-22 22.5q-20 -26 -52 -42t-71 -16q-25 0 -51 9t-47 26.5t-34 42.5t-13 57q0 44 13 79t21 61q-27 -12 -54.5 -18t-49.5 -6q-29 0 -40 2.5t-11 7.5q0 4 10 5t26.5 3t37.5 7t42 19q21 10 36 23.5
t25.5 26t15.5 21.5t6 12l2.5 6.5t5.5 15t5 17t2 14.5q2 -1 10.5 -4t18.5 -9t17.5 -14.5t7.5 -20.5q0 -5 -1 -11t-3 -13q-12 -24 -26.5 -52.5t-28 -59t-23.5 -63.5t-11 -66q0 -15 9 -29t24 -24.5t33 -16.5t36 -6q33 0 61.5 20.5t45.5 49.5q0 2 1 3q4 37 17.5 83t29 89
t29.5 75.5t19 41.5q3 11 7 22q3 9 5.5 18t2.5 15q2 -1 11 -4.5t19.5 -9.5t18.5 -15t8 -21q0 -13 -5 -24t-16 -32.5t-24.5 -49.5t-28 -60t-26 -62.5t-19 -56.5t-7.5 -43q0 -21 17 -21t42 20.5t45 66.5l2 1q5 0 7 -2t2 -3q0 -3 -6.5 -22.5t-23.5 -43.5zM326 545
q3 -5 9.5 -13.5t9.5 -12.5l8.5 -8.5t14.5 -11.5t22 -10t31 -4q17 0 31 3.5t17 4.5h1v-1q0 -2 1 -2q2 -5 2 -3.5t0 -0.5t-7 -5.5t-18.5 -7t-26 -6.5t-30.5 -3q-11 0 -25.5 3t-28 9t-23 16t-9.5 24q0 5 3 9.5t7 9.5t11 10z" />
    <glyph glyph-name="Uacute" unicode="&#xda;" horiz-adv-x="536" 
d="M517 46q-5 -6 -11.5 -14t-15.5 -15.5t-21 -12.5t-27 -5q-14 0 -25 5.5t-22 22.5q-20 -26 -52 -42t-71 -16q-25 0 -51 9t-47 26.5t-34 42.5t-13 57q0 44 13 79t21 61q-27 -12 -54.5 -18t-49.5 -6q-29 0 -40 2.5t-11 7.5q0 4 10 5t26.5 3t37.5 7t42 19q21 10 36 23.5
t25.5 26t15.5 21.5t6 12l2.5 6.5t5.5 15t5 17t2 14.5q2 -1 10.5 -4t18.5 -9t17.5 -14.5t7.5 -20.5q0 -5 -1 -11t-3 -13q-12 -24 -26.5 -52.5t-28 -59t-23.5 -63.5t-11 -66q0 -15 9 -29t24 -24.5t33 -16.5t36 -6q33 0 61.5 20.5t45.5 49.5q0 2 1 3q4 37 17.5 83t29 89
t29.5 75.5t19 41.5q3 11 7 22q3 9 5.5 18t2.5 15q2 -1 11 -4.5t19.5 -9.5t18.5 -15t8 -21q0 -13 -5 -24t-16 -32.5t-24.5 -49.5t-28 -60t-26 -62.5t-19 -56.5t-7.5 -43q0 -21 17 -21t42 20.5t45 66.5l2 1q5 0 7 -2t2 -3q0 -3 -6.5 -22.5t-23.5 -43.5zM436 545q1 0 4.5 -4
t7.5 -9t7 -11.5t3 -10.5q0 -13 -10 -21.5t-23.5 -14t-28.5 -8t-25 -2.5q-16 0 -30.5 3t-26 6.5t-18.5 7t-7 5.5l2 4q0 1 0.5 1t0.5 1l1 1q3 -1 17 -4.5t31 -3.5q18 0 31 4t22 10t14.5 11.5l8.5 8.5q3 4 9.5 12.5t9.5 13.5z" />
    <glyph glyph-name="Ucircumflex" unicode="&#xdb;" horiz-adv-x="536" 
d="M517 46q-5 -6 -11.5 -14t-15.5 -15.5t-21 -12.5t-27 -5q-14 0 -25 5.5t-22 22.5q-20 -26 -52 -42t-71 -16q-25 0 -51 9t-47 26.5t-34 42.5t-13 57q0 44 13 79t21 61q-27 -12 -54.5 -18t-49.5 -6q-29 0 -40 2.5t-11 7.5q0 4 10 5t26.5 3t37.5 7t42 19q21 10 36 23.5
t25.5 26t15.5 21.5t6 12l2.5 6.5t5.5 15t5 17t2 14.5q2 -1 10.5 -4t18.5 -9t17.5 -14.5t7.5 -20.5q0 -5 -1 -11t-3 -13q-12 -24 -26.5 -52.5t-28 -59t-23.5 -63.5t-11 -66q0 -15 9 -29t24 -24.5t33 -16.5t36 -6q33 0 61.5 20.5t45.5 49.5q0 2 1 3q4 37 17.5 83t29 89
t29.5 75.5t19 41.5q3 11 7 22q3 9 5.5 18t2.5 15q2 -1 11 -4.5t19.5 -9.5t18.5 -15t8 -21q0 -13 -5 -24t-16 -32.5t-24.5 -49.5t-28 -60t-26 -62.5t-19 -56.5t-7.5 -43q0 -21 17 -21t42 20.5t45 66.5l2 1q5 0 7 -2t2 -3q0 -3 -6.5 -22.5t-23.5 -43.5zM489 449q0 -2 1.5 -3
t1.5 -2q0 -2 -5.5 -4t-24.5 -2q-18 0 -41 8t-38 31q-11 -8 -23 -11t-24 -3q-13 0 -24.5 3t-20.5 7t-14.5 7.5t-5.5 5.5l4 6q2 -1 15 -4.5t30 -3.5t28.5 5t19 11t12 11t9.5 5q11 0 14.5 -6t6.5 -14.5t8 -18t20 -15.5q17 -8 32 -9.5t19 -2.5v-1z" />
    <glyph glyph-name="Udieresis" unicode="&#xdc;" horiz-adv-x="536" 
d="M517 46q-5 -6 -11.5 -14t-15.5 -15.5t-21 -12.5t-27 -5q-14 0 -25 5.5t-22 22.5q-20 -26 -52 -42t-71 -16q-25 0 -51 9t-47 26.5t-34 42.5t-13 57q0 44 13 79t21 61q-27 -12 -54.5 -18t-49.5 -6q-29 0 -40 2.5t-11 7.5q0 4 10 5t26.5 3t37.5 7t42 19q21 10 36 23.5
t25.5 26t15.5 21.5t6 12l2.5 6.5t5.5 15t5 17t2 14.5q2 -1 10.5 -4t18.5 -9t17.5 -14.5t7.5 -20.5q0 -5 -1 -11t-3 -13q-12 -24 -26.5 -52.5t-28 -59t-23.5 -63.5t-11 -66q0 -15 9 -29t24 -24.5t33 -16.5t36 -6q33 0 61.5 20.5t45.5 49.5q0 2 1 3q4 37 17.5 83t29 89
t29.5 75.5t19 41.5q3 11 7 22q3 9 5.5 18t2.5 15q2 -1 11 -4.5t19.5 -9.5t18.5 -15t8 -21q0 -13 -5 -24t-16 -32.5t-24.5 -49.5t-28 -60t-26 -62.5t-19 -56.5t-7.5 -43q0 -21 17 -21t42 20.5t45 66.5l2 1q5 0 7 -2t2 -3q0 -3 -6.5 -22.5t-23.5 -43.5zM410 525q1 -1 7 -1
t12.5 -1.5t12 -4.5t5.5 -9q0 -5 -7.5 -13.5t-7.5 -33.5q0 -6 1 -9h-6q-6 0 -14.5 3t-8.5 17q0 3 1 5.5t2.5 7t3 11.5t1.5 19q0 5 -2 9zM340 525q1 -1 7 -1t13 -1t12 -4.5t5 -10.5q0 -5 -1 -7q-4 -6 -7 -13q-7 -14 -7 -27q0 -6 1 -8h-6q-6 0 -14.5 3t-8.5 16q0 4 1 6t2.5 5.5
t3 10.5t1.5 21q0 6 -2 10z" />
    <glyph glyph-name="Yacute" unicode="&#xdd;" horiz-adv-x="437" 
d="M532 -24q3 0 10.5 -7t15 -15t13.5 -16t6 -9l-1 -1v-1q-32 -26 -76 -37t-91 -11q-42 0 -80.5 7.5t-72.5 16.5q-20 -29 -41 -41.5t-44 -12.5q-3 0 -13 0.5t-21.5 5t-20.5 14.5t-9 28q0 16 6.5 27t15 17t17.5 8.5t14 3.5q19 2 35.5 -2t34.5 -9q6 14 13 31.5t12 34.5
q-18 -19 -44 -29t-55 -10q-32 0 -58.5 9t-45.5 27t-29.5 44.5t-9.5 61.5q0 23 8.5 55.5t20.5 67t25.5 66.5t22.5 54l7 21q3 9 5.5 18t2.5 15q3 -1 13 -5t20 -11t18 -17t8 -23v-1q-6 -11 -13.5 -25.5t-14.5 -27.5q-11 -21 -25 -47t-26 -53.5t-20 -54.5t-8 -50q0 -21 9 -38.5
t24 -30t35 -19t41 -6.5q37 0 61.5 15.5t39.5 38t23.5 46.5t15.5 41q6 23 12 41t10.5 33.5t7.5 31t4 33.5q2 0 10.5 -4t18 -10t17 -15t7.5 -19q0 -5 -1 -11t-4 -14q0 -1 -7 -17.5t-16 -39.5t-16.5 -49.5t-7.5 -46.5q0 -11 3 -18t14 -7q17 0 42.5 20.5t45.5 66.5h1l2 1
q7 0 7 -4v2q-1 0 -5 -18t-15 -40t-31.5 -40t-53.5 -18q-9 0 -19 3.5t-19 13.5q-19 -43 -39 -80q23 -4 46 -7t45 -3q33 0 61.5 6.5t50 14.5t35.5 16.5t18 13.5h2zM128 -102q0 -13 10.5 -19t23.5 -6t27.5 9t28.5 34q-14 5 -26 8.5t-25 3.5t-26 -6.5t-13 -23.5zM366 495
q1 0 4.5 -4t7.5 -9t7 -11.5t3 -10.5q0 -13 -10 -21.5t-23.5 -14t-28.5 -8t-25 -2.5q-16 0 -30.5 3t-26 6.5t-18.5 7t-7 5.5l2 4q0 1 0.5 1t0.5 1l1 1q3 -1 17 -4.5t31 -3.5q18 0 31 4t22 10t14.5 11.5l8.5 8.5q3 4 9.5 12.5t9.5 13.5z" />
    <glyph glyph-name="colon" unicode=":" horiz-adv-x="183" 
d="M103 97q0 -1 1 -2q0 -1 0.5 -2t0.5 -3q0 -5 -7.5 -12.5t-7.5 -29.5q0 -5 1 -7h-6q-5 0 -14 1.5t-9 14.5q0 7 5 13t5 27q0 3 -2 7q7 0 14 -1q5 -1 11 -2.5t8 -3.5zM129 209q0 -1 1 -2q0 -1 0.5 -2t0.5 -3q0 -5 -7.5 -12.5t-7.5 -29.5q0 -5 1 -7h-6q-5 0 -14 1.5t-9 14.5
q0 7 5 13t5 27q0 3 -2 7q7 0 14 -1q5 -1 11 -2.5t8 -3.5z" />
    <glyph glyph-name="quoteright" unicode="&#x2019;" horiz-adv-x="96" 
d="M108 422q2 0 3.5 0.5t3.5 0.5q14 0 19.5 -9.5t5.5 -20.5q0 -24 -11.5 -43.5t-25.5 -33t-26.5 -20.5t-14.5 -7q2 -1 0 1t-2 5q1 2 9.5 8t19.5 21q13 17 16.5 32t3.5 26q0 8 -1 19t-3 21h3z" />
    </font>
</defs>
</svg>
